#N canvas 187 75 580 425 10;
#X declare -lib Gem;
#X obj 8 10 cnv 15 400 40 empty empty GEM_units 20 17 0 24 -228856
-66577 0;
#X obj 426 15 gemwin_control;
#X obj 427 59 import Gem;
#X obj 179 155 gemhead;
#X obj 179 127 tgl 15 1 empty empty empty 0 -6 0 8 -24198 -1 -1 0 1
;
#X obj 84 329 gemhead;
#X obj 84 301 tgl 15 1 empty empty empty 0 -6 0 8 -24198 -1 -1 0 1
;
#X obj 84 387 circle 1;
#X obj 179 183 circle 1;
#X obj 263 329 gemhead;
#X obj 263 301 tgl 15 1 empty empty empty 0 -6 0 8 -24198 -1 -1 0 1
;
#X obj 263 387 circle 1;
#X obj 263 359 translateXYZ 0 1 0;
#X obj 84 359 translateXYZ 1 0 0;
#X obj 8 62 cnv 15 400 50 empty empty empty 20 17 0 24 -228856 -66577
0;
#X text 34 68 Everything in Gem uses the same units for measurement
of space. First we have here a circle with a radius of 1:;
#X obj 8 232 cnv 15 400 50 empty empty empty 20 17 0 24 -228856 -66577
0;
#X text 24 236 Here a circle with a radius of one is moved 1 unit on
the X-axis. You can see that the center points of the circles below
are at the edge of the above circle.;
#X connect 3 0 8 0;
#X connect 4 0 3 0;
#X connect 5 0 13 0;
#X connect 6 0 5 0;
#X connect 9 0 12 0;
#X connect 10 0 9 0;
#X connect 12 0 11 0;
#X connect 13 0 7 0;
