#N canvas 1048 89 303 652 10;
#X obj 1 -3 cnv 15 300 650 empty main_canvas GEM.Browser 20 25 1 41
-66577 -262144 0;
#X obj 20 57 cnv 15 210 540 empty empty empty 20 12 0 14 -228856 -33289
0;
#N canvas 352 207 450 300 sub-browser 0;
#X obj 105 104 tgl 15 0 empty empty 1.gemwin 23 7 0 10 -262144 -1 -1
0 0.5;
#X obj 152 196 s \$0-tglSelection;
#X obj 107 140 select 0;
#X obj 107 193 t b;
#X obj 107 241 s close;
#X connect 0 0 2 0;
#X connect 2 0 3 0;
#X connect 2 1 1 0;
#X connect 3 0 4 0;
#X coords 0 -1 1 1 185 23 2 100 100;
#X restore 33 74 pd sub-browser;
#N canvas 0 0 450 300 sub-browser 0;
#X obj 105 104 tgl 15 0 empty empty 2.gemwin_as_pointer 23 7 0 10 -262144
-1 -1 0 1;
#X obj 162 206 s \$0-tglSelection;
#X obj 117 150 select 0;
#X obj 117 203 t b;
#X obj 117 251 s close;
#X connect 0 0 2 0;
#X connect 2 0 3 0;
#X connect 2 1 1 0;
#X connect 3 0 4 0;
#X coords 0 -1 1 1 185 23 2 100 100;
#X restore 33 104 pd sub-browser;
#N canvas 361 208 450 300 sub-browser 0;
#X obj 105 104 tgl 15 0 empty empty 3.gemwin_control 23 7 0 10 -262144
-1 -1 0 2;
#X obj 172 216 s \$0-tglSelection;
#X obj 127 160 select 0;
#X obj 127 213 t b;
#X obj 127 261 s close;
#X connect 0 0 2 0;
#X connect 2 0 3 0;
#X connect 2 1 1 0;
#X connect 3 0 4 0;
#X coords 0 -1 1 1 185 23 2 100 100;
#X restore 33 134 pd sub-browser;
#N canvas 0 0 450 300 sub-browser 0;
#X obj 105 104 tgl 15 0 empty empty 4.Render_Chains 23 7 0 10 -262144
-1 -1 0 3;
#X obj 156 202 s \$0-tglSelection;
#X obj 111 146 select 0;
#X obj 111 199 t b;
#X obj 111 247 s close;
#X connect 0 0 2 0;
#X connect 2 0 3 0;
#X connect 2 1 1 0;
#X connect 3 0 4 0;
#X coords 0 -1 1 1 185 23 2 100 100;
#X restore 33 164 pd sub-browser;
#N canvas 0 0 450 300 sub-browser 0;
#X obj 105 104 tgl 15 0 empty empty 5.Basic_2d_Objects 23 7 0 10 -262144
-1 -1 0 4;
#X obj 155 202 s \$0-tglSelection;
#X obj 110 146 select 0;
#X obj 110 199 t b;
#X obj 110 247 s close;
#X connect 0 0 2 0;
#X connect 2 0 3 0;
#X connect 2 1 1 0;
#X connect 3 0 4 0;
#X coords 0 -1 1 1 185 23 2 100 100;
#X restore 33 194 pd sub-browser;
#N canvas 180 153 450 300 sub-browser 0;
#X obj 105 104 tgl 15 0 empty empty 6.Lighting 23 7 0 10 -262144 -1
-1 0 5;
#X obj 152 201 s \$0-tglSelection;
#X obj 107 145 select 0;
#X obj 107 198 t b;
#X obj 107 246 s close;
#X connect 0 0 2 0;
#X connect 2 0 3 0;
#X connect 2 1 1 0;
#X connect 3 0 4 0;
#X coords 0 -1 1 1 185 23 2 100 100;
#X restore 33 224 pd sub-browser;
#N canvas 445 137 450 300 sub-browser 0;
#X obj 105 104 tgl 15 0 empty empty 7.Basic_3d_Objects 23 7 0 10 -262144
-1 -1 0 6;
#X obj 153 193 s \$0-tglSelection;
#X obj 108 137 select 0;
#X obj 108 190 t b;
#X obj 108 238 s close;
#X connect 0 0 2 0;
#X connect 2 0 3 0;
#X connect 2 1 1 0;
#X connect 3 0 4 0;
#X coords 0 -1 1 1 185 23 2 100 100;
#X restore 33 254 pd sub-browser;
#N canvas 423 196 450 300 sub-browser 0;
#X obj 106 104 tgl 15 0 empty empty 8.Manipulations 23 7 0 10 -262144
-1 -1 0 7;
#X obj 159 208 s \$0-tglSelection;
#X obj 114 152 select 0;
#X obj 114 205 t b;
#X obj 114 253 s close;
#X connect 0 0 2 0;
#X connect 2 0 3 0;
#X connect 2 1 1 0;
#X connect 3 0 4 0;
#X coords 0 -1 1 1 185 23 2 100 100;
#X restore 33 284 pd sub-browser;
#N canvas 172 74 450 300 sub-browser 0;
#X obj 105 104 tgl 15 0 empty empty 9.GEM_units 23 7 0 10 -262144 -1
-1 0 8;
#X obj 147 199 s \$0-tglSelection;
#X obj 102 143 select 0;
#X obj 102 196 t b;
#X obj 102 244 s close;
#X connect 0 0 2 0;
#X connect 2 0 3 0;
#X connect 2 1 1 0;
#X connect 3 0 4 0;
#X coords 0 -1 1 1 185 23 2 100 100;
#X restore 33 314 pd sub-browser;
#N canvas 0 0 450 300 sub-browser 0;
#X obj 154 207 s \$0-tglSelection;
#X obj 109 151 select 0;
#X obj 109 204 t b;
#X obj 109 252 s close;
#X obj 101 101 cnv 15 183 21 empty empty empty 20 12 0 14 -262130 -66577
0;
#X obj 105 104 tgl 15 0 empty empty 10.Make_your_object 23 7 0 10 -262144
-1 -1 0 10;
#X connect 1 0 2 0;
#X connect 1 1 0 0;
#X connect 2 0 3 0;
#X connect 5 0 1 0;
#X coords 0 -1 1 1 185 23 2 100 100;
#X restore 33 344 pd sub-browser;
#N canvas 0 0 450 300 sub-browser 0;
#X obj 105 104 tgl 15 0 empty empty 11.Images 23 7 0 10 -262144 -1
-1 0 11;
#X obj 155 203 s \$0-tglSelection;
#X obj 110 147 select 0;
#X obj 110 200 t b;
#X obj 110 248 s close;
#X connect 0 0 2 0;
#X connect 2 0 3 0;
#X connect 2 1 1 0;
#X connect 3 0 4 0;
#X coords 0 -1 1 1 185 23 2 100 100;
#X restore 33 374 pd sub-browser;
#N canvas 0 0 450 300 sub-browser 0;
#X obj 105 104 tgl 15 0 empty empty 12.Texturing 23 7 0 10 -262144
-1 -1 0 12;
#X obj 156 201 s \$0-tglSelection;
#X obj 111 145 select 0;
#X obj 111 198 t b;
#X obj 111 246 s close;
#X connect 0 0 2 0;
#X connect 2 0 3 0;
#X connect 2 1 1 0;
#X connect 3 0 4 0;
#X coords 0 -1 1 1 185 23 2 100 100;
#X restore 33 404 pd sub-browser;
#N canvas 0 0 450 300 sub-browser 0;
#X obj 105 104 tgl 15 0 empty empty 13.Movies 23 7 0 10 -262144 -1
-1 0 13;
#X obj 151 197 s \$0-tglSelection;
#X obj 106 141 select 0;
#X obj 106 194 t b;
#X obj 106 242 s close;
#X connect 0 0 2 0;
#X connect 2 0 3 0;
#X connect 2 1 1 0;
#X connect 3 0 4 0;
#X coords 0 -1 1 1 185 23 2 100 100;
#X restore 33 434 pd sub-browser;
#N canvas 0 0 450 300 sub-browser 0;
#X obj 105 104 tgl 15 0 empty empty 14.Live_video 23 7 0 10 -262144
-1 -1 0 14;
#X obj 154 198 s \$0-tglSelection;
#X obj 109 142 select 0;
#X obj 109 195 t b;
#X obj 109 243 s close;
#X connect 0 0 2 0;
#X connect 2 0 3 0;
#X connect 2 1 1 0;
#X connect 3 0 4 0;
#X coords 0 -1 1 1 185 23 2 100 100;
#X restore 33 464 pd sub-browser;
#N canvas 0 0 450 300 sub-browser 0;
#X obj 105 104 tgl 15 0 empty empty 15.Pixel_processing 23 7 0 10 -262144
-1 -1 0 15;
#X obj 159 202 s \$0-tglSelection;
#X obj 114 146 select 0;
#X obj 114 199 t b;
#X obj 114 247 s close;
#X connect 0 0 2 0;
#X connect 2 0 3 0;
#X connect 2 1 1 0;
#X connect 3 0 4 0;
#X coords 0 -1 1 1 185 23 2 100 100;
#X restore 33 494 pd sub-browser;
#N canvas 0 0 450 300 sub-browser 0;
#X obj 148 196 s \$0-tglSelection;
#X obj 103 140 select 0;
#X obj 103 193 t b;
#X obj 103 241 s close;
#X obj 101 101 cnv 15 183 21 empty empty empty 20 12 0 14 -262130 -66577
0;
#X obj 105 104 tgl 15 0 empty empty 16.Pix_effects 23 7 0 10 -262144
-1 -1 0 16;
#X connect 1 0 2 0;
#X connect 1 1 0 0;
#X connect 2 0 3 0;
#X connect 5 0 1 0;
#X coords 0 -1 1 1 185 23 2 100 100;
#X restore 33 524 pd sub-browser;
#N canvas 0 0 450 300 sub-browser 0;
#X obj 105 104 tgl 15 0 empty empty 17.Tracking 23 7 0 10 -262144 -1
-1 0 17;
#X obj 169 218 s \$0-tglSelection;
#X obj 124 162 select 0;
#X obj 124 215 t b;
#X obj 124 263 s close;
#X connect 0 0 2 0;
#X connect 2 0 3 0;
#X connect 2 1 1 0;
#X connect 3 0 4 0;
#X coords 0 -1 1 1 185 23 2 100 100;
#X restore 33 554 pd sub-browser;
#N canvas 847 20 532 551 code 0;
#X obj 130 96 getdir;
#X obj 130 167 folder_list;
#X obj 147 208 mapping/tolist;
#N canvas 103 333 616 365 os 0;
#X obj 137 17 inlet;
#X obj 131 315 outlet;
#X obj 278 80 zexy/operating_system;
#X obj 278 101 select windows;
#X obj 371 121 bang;
#X obj 137 58 trigger anything bang;
#X obj 297 260 makefilename %s/[0-9]*.pd;
#X msg 278 122 1;
#X obj 111 261 makefilename %s/*.pd;
#X obj 111 237 spigot;
#X obj 297 237 spigot;
#X msg 371 141 0;
#X msg 335 177 \$1 1;
#X obj 334 197 -;
#X obj 334 217 abs;
#X connect 0 0 5 0;
#X connect 2 0 3 0;
#X connect 3 0 7 0;
#X connect 3 1 4 0;
#X connect 4 0 11 0;
#X connect 5 0 9 0;
#X connect 5 0 10 0;
#X connect 5 1 2 0;
#X connect 6 0 1 0;
#X connect 7 0 9 1;
#X connect 7 0 12 0;
#X connect 8 0 1 0;
#X connect 9 0 8 0;
#X connect 10 0 6 0;
#X connect 11 0 9 1;
#X connect 11 0 12 0;
#X connect 12 0 13 0;
#X connect 13 0 14 0;
#X connect 14 0 10 1;
#X restore 130 126 pd os glob;
#X obj 144 323 split_path;
#X obj 147 272 list;
#X obj 144 380 pack symbol symbol;
#X msg 144 412 \; pd open \$2 \$1;
#X floatatom 250 248 5 0 0 0 - - -;
#X obj 194 246 bng 15 250 50 0 empty empty empty 17 7 0 10 -262144
-1 -1;
#X obj 147 292 list-abs/list-idx;
#X obj 129 16 loadbang;
#X obj 131 42 t b b;
#X obj 364 212 t b f;
#X obj 364 181 r \$0-tglSelection;
#X msg 350 447 \; \$1 menuclose 1;
#X obj 349 382 split_path;
#X obj 349 331 list;
#X obj 349 351 list-abs/list-idx;
#X obj 350 415 makefilename pd-%s;
#X obj 349 278 r close;
#X connect 0 0 3 0;
#X connect 1 0 2 0;
#X connect 2 0 5 1;
#X connect 2 0 17 1;
#X connect 3 0 1 0;
#X connect 4 0 6 0;
#X connect 4 1 6 1;
#X connect 5 0 10 0;
#X connect 6 0 7 0;
#X connect 8 0 10 1;
#X connect 8 0 18 1;
#X connect 9 0 5 0;
#X connect 10 0 4 0;
#X connect 11 0 12 0;
#X connect 12 0 2 1;
#X connect 12 1 0 0;
#X connect 13 0 9 0;
#X connect 13 1 8 0;
#X connect 14 0 13 0;
#X connect 16 1 19 0;
#X connect 17 0 18 0;
#X connect 18 0 16 0;
#X connect 19 0 15 0;
#X connect 20 0 17 0;
#X restore 25 612 pd code;
