#N canvas 158 87 639 507 10;
#X declare -lib Gem;
#X obj 8 10 cnv 15 400 40 empty empty Live_video 20 17 0 24 -228856
-66577 0;
#X obj 465 16 gemwin_control;
#X obj 466 60 import Gem;
#X obj 26 96 gemhead;
#X msg 163 159 freq 1234;
#X msg 165 230 dimen 256 256;
#X msg 165 250 dimen 64 64;
#X msg 161 82 mode NTSC;
#X msg 162 108 channel 2;
#X obj 26 437 rectangle 4 3;
#X msg 165 210 dimen 256 128;
#X obj 26 413 pix_texture;
#X text 243 103 depending on your capture-device you can switch between
(e.g) Tuner \, COMPOSITE & S-VHS;
#X text 231 83 defaults to PAL;
#X text 241 161 set the frequency for the TV-Tuner;
#X text 280 214 various dimension (might not work on your specific
capture-device);
#X obj 26 386 pix_video;
#X msg 165 291 colorspace RGBA;
#X text 283 291 could be RGBA \, YUV or Grey;
#X msg 168 332 device 0;
#X msg 168 362 driver 0;
#X text 282 333 switch between capture-cards;
#X text 272 363 switch between drivers (e.g: v4l and ieee1394);
#X msg 170 400 enumerate;
#X text 268 399 list all devices to the console;
#X msg 176 442 dialog;
#X text 242 443 configure the device via a pop-up dialog (on Windows(r))
;
#X connect 3 0 16 0;
#X connect 4 0 16 0;
#X connect 5 0 16 0;
#X connect 6 0 16 0;
#X connect 7 0 16 0;
#X connect 8 0 16 0;
#X connect 10 0 16 0;
#X connect 11 0 9 0;
#X connect 16 0 11 0;
#X connect 17 0 16 0;
#X connect 19 0 16 0;
#X connect 20 0 16 0;
#X connect 23 0 16 0;
#X connect 25 0 16 0;
