#N canvas 683 238 557 459 10;
#X msg 115 20 snap;
#X obj 113 -2 t b;
#X obj 114 153 GEMglLoadIdentity;
#X floatatom 246 166 5 0 1 0 - - -;
#X obj 214 -22 gemhead 0;
#X obj 112 -22 gemhead -15;
#X obj 114 269 rectangle 4 3;
#X obj 114 218 translateXYZ 0 0 -12;
#X obj 114 246 scaleXYZ 4 4 1;
#X obj 114 195 colorRGB 0 0 0;
#X obj 115 129 pix_snap2tex 0 0 640 480;
#X obj 473 -17 inlet;
#X obj 317 -17 inlet;
#X obj 378 -15 inlet;
#X connect 0 0 10 0;
#X connect 1 0 0 0;
#X connect 2 0 9 0;
#X connect 3 0 9 1;
#X connect 3 0 9 2;
#X connect 3 0 9 3;
#X connect 4 0 10 0;
#X connect 5 0 1 0;
#X connect 7 0 8 0;
#X connect 8 0 6 0;
#X connect 9 0 7 0;
#X connect 10 0 2 0;
#X connect 11 0 3 0;
#X connect 12 0 10 1;
#X connect 13 0 10 2;
