#N canvas 240 131 932 669 10;
#X floatatom 136 358 5 0 0 0 - - -;
#X msg 135 387 1 \, 0 \$1;
#X obj 135 413 line;
#X floatatom 135 438 5 0 0 0 - - -;
#X obj 102 517 *~;
#X obj 104 551 dac~;
#X obj 101 485 phasor~;
#X text 169 415 DECAY;
#X floatatom 98 461 5 0 0 0 - - -;
#X text 138 461 TON;
#X floatatom 240 359 5 0 0 0 - - -;
#X msg 218 386 1 \, 0 \$1;
#X obj 218 412 line;
#X floatatom 218 437 5 0 0 0 - - -;
#X obj 185 516 *~;
#X obj 187 550 dac~;
#X obj 184 484 phasor~;
#X text 252 414 DECAY;
#X floatatom 181 460 5 0 0 0 - - -;
#X text 221 460 TON;
#X floatatom 582 357 5 0 0 0 - - -;
#X msg 582 383 1 \, 0 \$1;
#X obj 582 409 line;
#X floatatom 582 434 5 0 0 0 - - -;
#X obj 549 513 *~;
#X obj 551 547 dac~;
#X text 616 411 DECAY;
#X floatatom 545 457 5 0 0 0 - - -;
#X text 585 457 TON;
#X floatatom 675 356 5 0 0 0 - - -;
#X msg 667 383 1 \, 0 \$1;
#X obj 667 409 line;
#X floatatom 667 434 5 0 0 0 - - -;
#X obj 634 513 *~;
#X obj 636 547 dac~;
#X text 701 411 DECAY;
#X floatatom 630 457 5 0 0 0 - - -;
#X text 670 457 TON;
#X floatatom 378 354 5 0 0 0 - - -;
#X msg 360 383 1 \, 0 \$1;
#X obj 360 409 line;
#X floatatom 360 434 5 0 0 0 - - -;
#X obj 327 513 *~;
#X obj 329 547 dac~;
#X obj 326 481 phasor~;
#X text 394 411 DECAY;
#X floatatom 323 457 5 0 0 0 - - -;
#X text 363 457 TON;
#X floatatom 446 354 5 0 0 0 - - -;
#X msg 445 383 1 \, 0 \$1;
#X obj 445 409 line;
#X floatatom 445 434 5 0 0 0 - - -;
#X obj 412 513 *~;
#X obj 414 547 dac~;
#X obj 411 481 phasor~;
#X text 479 411 DECAY;
#X floatatom 408 457 5 0 0 0 - - -;
#X text 448 457 TON;
#X obj 548 481 osc~;
#X obj 633 481 osc~;
#X msg 95 428 30;
#X msg 158 339 300;
#X msg 185 435 90;
#X msg 227 330 130;
#X msg 325 434 280;
#X msg 360 329 20;
#X msg 407 433 2000;
#X msg 428 330 5;
#X msg 544 431 200;
#X msg 581 332 120;
#X msg 630 432 1500;
#X msg 666 330 10;
#X obj 644 248 loadbang;
#X obj 644 272 bng 15 250 50 0 empty empty empty 17 7 0 10 -262144
-1 -1;
#X obj 15 18 cnv 15 393 150 empty empty empty 20 12 0 14 -233471 -66577
0;
#N canvas 243 82 1015 600 (subpatch) 0;
#X obj 286 255 i;
#X obj 263 0 bng 15 250 50 0 empty empty empty 0 -6 0 10 -203904 -1
-1;
#X obj 19 0 tgl 15 0 empty empty empty 0 -6 0 10 -33289 -262144 -262144
1 1;
#X floatatom 286 363 5 0 0 0 - - -;
#X obj 284 428 sel 1;
#X obj 326 255 i;
#X obj 34 0 tgl 15 0 empty empty empty 0 -6 0 10 -33289 -262144 -1
1 1;
#X obj 356 255 i;
#X obj 49 0 tgl 15 0 empty empty empty 0 -6 0 10 -33289 -262144 -1
1 1;
#X obj 389 255 i;
#X obj 64 0 tgl 15 0 empty empty empty 0 -6 0 10 -33289 -262144 -1
1 1;
#X obj 422 256 i;
#X obj 79 0 tgl 15 0 empty empty empty 0 -6 0 10 -13330 -262144 -1
1 1;
#X obj 451 255 i;
#X obj 94 0 tgl 15 0 empty empty empty 0 -6 0 10 -13330 -262144 -1
1 1;
#X obj 481 255 i;
#X obj 109 0 tgl 15 0 empty empty empty 0 -6 0 10 -13330 -262144 -1
1 1;
#X obj 514 255 i;
#X obj 124 0 tgl 15 0 empty empty empty 0 -6 0 10 -13330 -262144 -1
1 1;
#X obj 547 256 i;
#X obj 139 0 tgl 15 0 empty empty empty 0 -6 0 10 -33289 -262144 -1
1 1;
#X obj 583 255 i;
#X obj 154 0 tgl 15 0 empty empty empty 0 -6 0 10 -33289 -262144 -1
1 1;
#X obj 613 255 i;
#X obj 169 0 tgl 15 0 empty empty empty 0 -6 0 10 -33289 -262144 -1
1 1;
#X obj 646 255 i;
#X obj 184 0 tgl 15 0 empty empty empty 0 -6 0 10 -33289 -262144 -1
1 1;
#X obj 679 256 i;
#X obj 199 0 tgl 15 0 empty empty empty 0 -6 0 10 -13330 -262144 -1
1 1;
#X obj 708 255 i;
#X obj 214 0 tgl 15 0 empty empty empty 0 -6 0 10 -13330 -262144 -1
1 1;
#X obj 738 255 i;
#X obj 229 0 tgl 15 0 empty empty empty 0 -6 0 10 -13330 -262144 -1
1 1;
#X obj 771 255 i;
#X obj 244 0 tgl 15 0 empty empty empty 0 -6 0 10 -13330 -262144 -1
1 1;
#X obj 19 16 hradio 15 1 0 16 empty empty empty 0 -6 0 10 -262144 -1
-1 10;
#X obj 0 0 tgl 15 0 empty empty empty 0 -6 0 10 -45076 -262144 -262144
1 1;
#X obj 285 470 outlet;
#X obj 307 212 sel 0 1 2 3 4 5 6 7 8 9 10 11 12 13 14 15;
#X obj 21 -33 route 0 1 2 3 4 5 6 7 8 9 10 11 12 13 14 15;
#X obj 25 -131 r xlinie;
#X obj 22 -90 pack f f f;
#X obj -24 85 r seqscan;
#X obj 22 118 spigot;
#X obj -22 -50 inlet;
#X obj 21 -63 route 0;
#X obj -46 -131 r scanrate;
#X obj 84 -131 r onoff0;
#X connect 0 0 3 0;
#X connect 2 0 0 1;
#X connect 3 0 4 0;
#X connect 4 0 1 0;
#X connect 4 0 37 0;
#X connect 5 0 3 0;
#X connect 6 0 5 1;
#X connect 7 0 3 0;
#X connect 8 0 7 1;
#X connect 9 0 3 0;
#X connect 10 0 9 1;
#X connect 11 0 3 0;
#X connect 12 0 11 1;
#X connect 13 0 3 0;
#X connect 14 0 13 1;
#X connect 15 0 3 0;
#X connect 16 0 15 1;
#X connect 17 0 3 0;
#X connect 18 0 17 1;
#X connect 19 0 3 0;
#X connect 20 0 19 1;
#X connect 21 0 3 0;
#X connect 22 0 21 1;
#X connect 23 0 3 0;
#X connect 24 0 23 1;
#X connect 25 0 3 0;
#X connect 26 0 25 1;
#X connect 27 0 3 0;
#X connect 28 0 27 1;
#X connect 29 0 3 0;
#X connect 30 0 29 1;
#X connect 31 0 3 0;
#X connect 32 0 31 1;
#X connect 33 0 3 0;
#X connect 34 0 33 1;
#X connect 36 0 43 1;
#X connect 38 0 0 0;
#X connect 38 1 5 0;
#X connect 38 2 7 0;
#X connect 38 3 9 0;
#X connect 38 4 11 0;
#X connect 38 5 13 0;
#X connect 38 6 15 0;
#X connect 38 7 17 0;
#X connect 38 8 19 0;
#X connect 38 9 21 0;
#X connect 38 10 23 0;
#X connect 38 11 25 0;
#X connect 38 12 27 0;
#X connect 38 13 29 0;
#X connect 38 14 31 0;
#X connect 38 15 33 0;
#X connect 39 0 2 0;
#X connect 39 1 6 0;
#X connect 39 2 8 0;
#X connect 39 3 10 0;
#X connect 39 4 12 0;
#X connect 39 5 14 0;
#X connect 39 6 16 0;
#X connect 39 7 18 0;
#X connect 39 8 20 0;
#X connect 39 9 22 0;
#X connect 39 10 24 0;
#X connect 39 11 26 0;
#X connect 39 12 28 0;
#X connect 39 13 30 0;
#X connect 39 14 32 0;
#X connect 39 15 34 0;
#X connect 40 0 41 1;
#X connect 41 0 45 0;
#X connect 42 0 35 0;
#X connect 42 0 43 0;
#X connect 43 0 38 0;
#X connect 44 0 36 0;
#X connect 45 0 39 0;
#X connect 46 0 41 0;
#X connect 47 0 41 2;
#X coords 0 1 100 -1 278 31 1 0 0;
#X restore 25 130 graph;
#N canvas 214 145 1015 600 (subpatch) 0;
#X obj 286 255 i;
#X obj 263 0 bng 15 250 50 0 empty empty empty 0 -6 0 10 -203904 -1
-1;
#X obj 19 0 tgl 15 0 empty empty empty 0 -6 0 10 -33289 -262144 -262144
1 1;
#X floatatom 286 363 5 0 0 0 - - -;
#X obj 284 428 sel 1;
#X obj 326 255 i;
#X obj 34 0 tgl 15 0 empty empty empty 0 -6 0 10 -33289 -262144 -1
1 1;
#X obj 356 255 i;
#X obj 49 0 tgl 15 0 empty empty empty 0 -6 0 10 -33289 -262144 -1
1 1;
#X obj 389 255 i;
#X obj 64 0 tgl 15 0 empty empty empty 0 -6 0 10 -33289 -262144 -1
1 1;
#X obj 422 256 i;
#X obj 79 0 tgl 15 0 empty empty empty 0 -6 0 10 -13330 -262144 -1
1 1;
#X obj 451 255 i;
#X obj 94 0 tgl 15 0 empty empty empty 0 -6 0 10 -13330 -262144 -1
1 1;
#X obj 481 255 i;
#X obj 109 0 tgl 15 0 empty empty empty 0 -6 0 10 -13330 -262144 -1
1 1;
#X obj 514 255 i;
#X obj 124 0 tgl 15 0 empty empty empty 0 -6 0 10 -13330 -262144 -1
1 1;
#X obj 547 256 i;
#X obj 139 0 tgl 15 0 empty empty empty 0 -6 0 10 -33289 -262144 -1
1 1;
#X obj 583 255 i;
#X obj 154 0 tgl 15 0 empty empty empty 0 -6 0 10 -33289 -262144 -1
1 1;
#X obj 613 255 i;
#X obj 169 0 tgl 15 0 empty empty empty 0 -6 0 10 -33289 -262144 -1
1 1;
#X obj 646 255 i;
#X obj 184 0 tgl 15 0 empty empty empty 0 -6 0 10 -33289 -262144 -1
1 1;
#X obj 679 256 i;
#X obj 199 0 tgl 15 0 empty empty empty 0 -6 0 10 -13330 -262144 -1
1 1;
#X obj 708 255 i;
#X obj 214 0 tgl 15 0 empty empty empty 0 -6 0 10 -13330 -262144 -1
1 1;
#X obj 738 255 i;
#X obj 229 0 tgl 15 0 empty empty empty 0 -6 0 10 -13330 -262144 -1
0 1;
#X obj 771 255 i;
#X obj 244 0 tgl 15 0 empty empty empty 0 -6 0 10 -13330 -262144 -1
1 1;
#X obj 0 0 tgl 15 0 empty empty empty 0 -6 0 10 -45076 -262144 -262144
1 1;
#X obj 285 470 outlet;
#X obj 307 212 sel 0 1 2 3 4 5 6 7 8 9 10 11 12 13 14 15;
#X obj 21 -33 route 0 1 2 3 4 5 6 7 8 9 10 11 12 13 14 15;
#X obj 25 -131 r xlinie;
#X obj -19 88 r seqscan;
#X obj 50 121 spigot;
#X obj -22 -50 inlet;
#X obj -44 -130 r scanrate;
#X obj 84 -129 r onoff4;
#X obj 22 -90 pack f f;
#X connect 0 0 3 0;
#X connect 2 0 0 1;
#X connect 3 0 4 0;
#X connect 4 0 1 0;
#X connect 4 0 36 0;
#X connect 5 0 3 0;
#X connect 6 0 5 1;
#X connect 7 0 3 0;
#X connect 8 0 7 1;
#X connect 9 0 3 0;
#X connect 10 0 9 1;
#X connect 11 0 3 0;
#X connect 12 0 11 1;
#X connect 13 0 3 0;
#X connect 14 0 13 1;
#X connect 15 0 3 0;
#X connect 16 0 15 1;
#X connect 17 0 3 0;
#X connect 18 0 17 1;
#X connect 19 0 3 0;
#X connect 20 0 19 1;
#X connect 21 0 3 0;
#X connect 22 0 21 1;
#X connect 23 0 3 0;
#X connect 24 0 23 1;
#X connect 25 0 3 0;
#X connect 26 0 25 1;
#X connect 27 0 3 0;
#X connect 28 0 27 1;
#X connect 29 0 3 0;
#X connect 30 0 29 1;
#X connect 31 0 3 0;
#X connect 32 0 31 1;
#X connect 33 0 3 0;
#X connect 34 0 33 1;
#X connect 35 0 41 1;
#X connect 37 0 0 0;
#X connect 37 1 5 0;
#X connect 37 2 7 0;
#X connect 37 3 9 0;
#X connect 37 4 11 0;
#X connect 37 5 13 0;
#X connect 37 6 15 0;
#X connect 37 7 17 0;
#X connect 37 8 19 0;
#X connect 37 9 21 0;
#X connect 37 10 23 0;
#X connect 37 11 25 0;
#X connect 37 12 27 0;
#X connect 37 13 29 0;
#X connect 37 14 31 0;
#X connect 37 15 33 0;
#X connect 38 0 2 0;
#X connect 38 1 6 0;
#X connect 38 2 8 0;
#X connect 38 3 10 0;
#X connect 38 4 12 0;
#X connect 38 5 14 0;
#X connect 38 6 16 0;
#X connect 38 7 18 0;
#X connect 38 8 20 0;
#X connect 38 9 22 0;
#X connect 38 10 24 0;
#X connect 38 11 26 0;
#X connect 38 12 28 0;
#X connect 38 13 30 0;
#X connect 38 14 32 0;
#X connect 38 15 34 0;
#X connect 39 0 45 0;
#X connect 40 0 41 0;
#X connect 41 0 37 0;
#X connect 42 0 35 0;
#X connect 43 0 45 0;
#X connect 44 0 45 1;
#X connect 45 0 38 0;
#X coords 0 1 100 -1 278 15 1 0 0;
#X restore 25 66 graph;
#N canvas 243 82 1015 600 (subpatch) 0;
#X obj 286 255 i;
#X obj 263 0 bng 15 250 50 0 empty empty empty 0 -6 0 10 -203904 -1
-1;
#X obj 19 0 tgl 15 0 empty empty empty 0 -6 0 10 -33289 -262144 -262144
1 1;
#X floatatom 286 363 5 0 0 0 - - -;
#X obj 284 428 sel 1;
#X obj 326 255 i;
#X obj 34 0 tgl 15 0 empty empty empty 0 -6 0 10 -33289 -262144 -1
1 1;
#X obj 356 255 i;
#X obj 49 0 tgl 15 0 empty empty empty 0 -6 0 10 -33289 -262144 -1
1 1;
#X obj 389 255 i;
#X obj 64 0 tgl 15 0 empty empty empty 0 -6 0 10 -33289 -262144 -1
1 1;
#X obj 422 256 i;
#X obj 79 0 tgl 15 0 empty empty empty 0 -6 0 10 -13330 -262144 -1
1 1;
#X obj 451 255 i;
#X obj 94 0 tgl 15 0 empty empty empty 0 -6 0 10 -13330 -262144 -1
1 1;
#X obj 481 255 i;
#X obj 109 0 tgl 15 0 empty empty empty 0 -6 0 10 -13330 -262144 -1
1 1;
#X obj 514 255 i;
#X obj 124 0 tgl 15 0 empty empty empty 0 -6 0 10 -13330 -262144 -1
1 1;
#X obj 547 256 i;
#X obj 139 0 tgl 15 0 empty empty empty 0 -6 0 10 -33289 -262144 -1
1 1;
#X obj 583 255 i;
#X obj 154 0 tgl 15 0 empty empty empty 0 -6 0 10 -33289 -262144 -1
1 1;
#X obj 613 255 i;
#X obj 169 0 tgl 15 0 empty empty empty 0 -6 0 10 -33289 -262144 -1
1 1;
#X obj 646 255 i;
#X obj 184 0 tgl 15 0 empty empty empty 0 -6 0 10 -33289 -262144 -1
1 1;
#X obj 679 256 i;
#X obj 199 0 tgl 15 0 empty empty empty 0 -6 0 10 -13330 -262144 -1
1 1;
#X obj 708 255 i;
#X obj 214 0 tgl 15 0 empty empty empty 0 -6 0 10 -13330 -262144 -1
1 1;
#X obj 738 255 i;
#X obj 229 0 tgl 15 0 empty empty empty 0 -6 0 10 -13330 -262144 -1
1 1;
#X obj 771 255 i;
#X obj 244 0 tgl 15 0 empty empty empty 0 -6 0 10 -13330 -262144 -1
1 1;
#X obj 0 0 tgl 15 0 empty empty empty 0 -6 0 10 -45076 -262144 -262144
1 1;
#X obj 285 470 outlet;
#X obj 307 212 sel 0 1 2 3 4 5 6 7 8 9 10 11 12 13 14 15;
#X obj 21 -33 route 0 1 2 3 4 5 6 7 8 9 10 11 12 13 14 15;
#X obj 25 -131 r xlinie;
#X obj -27 102 r seqscan;
#X obj 12 132 spigot;
#X obj -22 -50 inlet;
#X obj -46 -131 r scanrate;
#X obj 84 -129 r onoff3;
#X obj 22 -90 pack f f;
#X connect 0 0 3 0;
#X connect 2 0 0 1;
#X connect 3 0 4 0;
#X connect 4 0 1 0;
#X connect 4 0 36 0;
#X connect 5 0 3 0;
#X connect 6 0 5 1;
#X connect 7 0 3 0;
#X connect 8 0 7 1;
#X connect 9 0 3 0;
#X connect 10 0 9 1;
#X connect 11 0 3 0;
#X connect 12 0 11 1;
#X connect 13 0 3 0;
#X connect 14 0 13 1;
#X connect 15 0 3 0;
#X connect 16 0 15 1;
#X connect 17 0 3 0;
#X connect 18 0 17 1;
#X connect 19 0 3 0;
#X connect 20 0 19 1;
#X connect 21 0 3 0;
#X connect 22 0 21 1;
#X connect 23 0 3 0;
#X connect 24 0 23 1;
#X connect 25 0 3 0;
#X connect 26 0 25 1;
#X connect 27 0 3 0;
#X connect 28 0 27 1;
#X connect 29 0 3 0;
#X connect 30 0 29 1;
#X connect 31 0 3 0;
#X connect 32 0 31 1;
#X connect 33 0 3 0;
#X connect 34 0 33 1;
#X connect 35 0 41 1;
#X connect 37 0 0 0;
#X connect 37 1 5 0;
#X connect 37 2 7 0;
#X connect 37 3 9 0;
#X connect 37 4 11 0;
#X connect 37 5 13 0;
#X connect 37 6 15 0;
#X connect 37 7 17 0;
#X connect 37 8 19 0;
#X connect 37 9 21 0;
#X connect 37 10 23 0;
#X connect 37 11 25 0;
#X connect 37 12 27 0;
#X connect 37 13 29 0;
#X connect 37 14 31 0;
#X connect 37 15 33 0;
#X connect 38 0 2 0;
#X connect 38 1 6 0;
#X connect 38 2 8 0;
#X connect 38 3 10 0;
#X connect 38 4 12 0;
#X connect 38 5 14 0;
#X connect 38 6 16 0;
#X connect 38 7 18 0;
#X connect 38 8 20 0;
#X connect 38 9 22 0;
#X connect 38 10 24 0;
#X connect 38 11 26 0;
#X connect 38 12 28 0;
#X connect 38 13 30 0;
#X connect 38 14 32 0;
#X connect 38 15 34 0;
#X connect 39 0 45 0;
#X connect 40 0 41 0;
#X connect 41 0 37 0;
#X connect 42 0 35 0;
#X connect 43 0 45 0;
#X connect 44 0 45 1;
#X connect 45 0 38 0;
#X coords 0 1 100 -1 278 15 1 0 0;
#X restore 25 82 graph;
#N canvas 243 82 1015 600 (subpatch) 0;
#X obj 286 255 i;
#X obj 263 0 bng 15 250 50 0 empty empty empty 0 -6 0 10 -203904 -1
-1;
#X obj 19 0 tgl 15 0 empty empty empty 0 -6 0 10 -33289 -262144 -262144
1 1;
#X floatatom 286 363 5 0 0 0 - - -;
#X obj 284 428 sel 1;
#X obj 326 255 i;
#X obj 34 0 tgl 15 0 empty empty empty 0 -6 0 10 -33289 -262144 -1
1 1;
#X obj 356 255 i;
#X obj 49 0 tgl 15 0 empty empty empty 0 -6 0 10 -33289 -262144 -1
1 1;
#X obj 389 255 i;
#X obj 64 0 tgl 15 0 empty empty empty 0 -6 0 10 -33289 -262144 -1
1 1;
#X obj 422 256 i;
#X obj 79 0 tgl 15 0 empty empty empty 0 -6 0 10 -13330 -262144 -1
1 1;
#X obj 451 255 i;
#X obj 94 0 tgl 15 0 empty empty empty 0 -6 0 10 -13330 -262144 -1
1 1;
#X obj 481 255 i;
#X obj 109 0 tgl 15 0 empty empty empty 0 -6 0 10 -13330 -262144 -1
1 1;
#X obj 514 255 i;
#X obj 124 0 tgl 15 0 empty empty empty 0 -6 0 10 -13330 -262144 -1
1 1;
#X obj 547 256 i;
#X obj 139 0 tgl 15 0 empty empty empty 0 -6 0 10 -33289 -262144 -1
1 1;
#X obj 583 255 i;
#X obj 154 0 tgl 15 0 empty empty empty 0 -6 0 10 -33289 -262144 -1
1 1;
#X obj 613 255 i;
#X obj 169 0 tgl 15 0 empty empty empty 0 -6 0 10 -33289 -262144 -1
1 1;
#X obj 646 255 i;
#X obj 184 0 tgl 15 0 empty empty empty 0 -6 0 10 -33289 -262144 -1
0 1;
#X obj 679 256 i;
#X obj 199 0 tgl 15 0 empty empty empty 0 -6 0 10 -13330 -262144 -1
1 1;
#X obj 708 255 i;
#X obj 214 0 tgl 15 0 empty empty empty 0 -6 0 10 -13330 -262144 -1
1 1;
#X obj 738 255 i;
#X obj 229 0 tgl 15 0 empty empty empty 0 -6 0 10 -13330 -262144 -1
1 1;
#X obj 771 255 i;
#X obj 244 0 tgl 15 0 empty empty empty 0 -6 0 10 -13330 -262144 -1
1 1;
#X obj 0 0 tgl 15 0 empty empty empty 0 -6 0 10 -45076 -262144 -262144
1 1;
#X obj 285 470 outlet;
#X obj 307 212 sel 0 1 2 3 4 5 6 7 8 9 10 11 12 13 14 15;
#X obj 21 -33 route 0 1 2 3 4 5 6 7 8 9 10 11 12 13 14 15;
#X obj 25 -131 r xlinie;
#X obj -6 92 r seqscan;
#X obj 45 130 spigot;
#X obj -22 -50 inlet;
#X obj -47 -131 r scanrate;
#X obj 85 -131 r onoff2;
#X obj 22 -90 pack f f;
#X connect 0 0 3 0;
#X connect 2 0 0 1;
#X connect 3 0 4 0;
#X connect 4 0 1 0;
#X connect 4 0 36 0;
#X connect 5 0 3 0;
#X connect 6 0 5 1;
#X connect 7 0 3 0;
#X connect 8 0 7 1;
#X connect 9 0 3 0;
#X connect 10 0 9 1;
#X connect 11 0 3 0;
#X connect 12 0 11 1;
#X connect 13 0 3 0;
#X connect 14 0 13 1;
#X connect 15 0 3 0;
#X connect 16 0 15 1;
#X connect 17 0 3 0;
#X connect 18 0 17 1;
#X connect 19 0 3 0;
#X connect 20 0 19 1;
#X connect 21 0 3 0;
#X connect 22 0 21 1;
#X connect 23 0 3 0;
#X connect 24 0 23 1;
#X connect 25 0 3 0;
#X connect 26 0 25 1;
#X connect 27 0 3 0;
#X connect 28 0 27 1;
#X connect 29 0 3 0;
#X connect 30 0 29 1;
#X connect 31 0 3 0;
#X connect 32 0 31 1;
#X connect 33 0 3 0;
#X connect 34 0 33 1;
#X connect 35 0 41 1;
#X connect 37 0 0 0;
#X connect 37 1 5 0;
#X connect 37 2 7 0;
#X connect 37 3 9 0;
#X connect 37 4 11 0;
#X connect 37 5 13 0;
#X connect 37 6 15 0;
#X connect 37 7 17 0;
#X connect 37 8 19 0;
#X connect 37 9 21 0;
#X connect 37 10 23 0;
#X connect 37 11 25 0;
#X connect 37 12 27 0;
#X connect 37 13 29 0;
#X connect 37 14 31 0;
#X connect 37 15 33 0;
#X connect 38 0 2 0;
#X connect 38 1 6 0;
#X connect 38 2 8 0;
#X connect 38 3 10 0;
#X connect 38 4 12 0;
#X connect 38 5 14 0;
#X connect 38 6 16 0;
#X connect 38 7 18 0;
#X connect 38 8 20 0;
#X connect 38 9 22 0;
#X connect 38 10 24 0;
#X connect 38 11 26 0;
#X connect 38 12 28 0;
#X connect 38 13 30 0;
#X connect 38 14 32 0;
#X connect 38 15 34 0;
#X connect 39 0 45 0;
#X connect 40 0 41 0;
#X connect 41 0 37 0;
#X connect 42 0 35 0;
#X connect 43 0 45 0;
#X connect 44 0 45 1;
#X connect 45 0 38 0;
#X coords 0 1 100 -1 278 15 1 0 0;
#X restore 25 98 graph;
#N canvas 243 82 1015 600 (subpatch) 0;
#X obj 286 255 i;
#X obj 263 0 bng 15 250 50 0 empty empty empty 0 -6 0 10 -203904 -1
-1;
#X obj 19 0 tgl 15 0 empty empty empty 0 -6 0 10 -33289 -262144 -262144
1 1;
#X floatatom 286 363 5 0 0 0 - - -;
#X obj 284 428 sel 1;
#X obj 326 255 i;
#X obj 34 0 tgl 15 0 empty empty empty 0 -6 0 10 -33289 -262144 -1
1 1;
#X obj 356 255 i;
#X obj 49 0 tgl 15 0 empty empty empty 0 -6 0 10 -33289 -262144 -1
1 1;
#X obj 389 255 i;
#X obj 64 0 tgl 15 0 empty empty empty 0 -6 0 10 -33289 -262144 -1
1 1;
#X obj 422 256 i;
#X obj 79 0 tgl 15 0 empty empty empty 0 -6 0 10 -13330 -262144 -1
1 1;
#X obj 451 255 i;
#X obj 94 0 tgl 15 0 empty empty empty 0 -6 0 10 -13330 -262144 -1
1 1;
#X obj 481 255 i;
#X obj 109 0 tgl 15 0 empty empty empty 0 -6 0 10 -13330 -262144 -1
1 1;
#X obj 514 255 i;
#X obj 124 0 tgl 15 0 empty empty empty 0 -6 0 10 -13330 -262144 -1
1 1;
#X obj 547 256 i;
#X obj 139 0 tgl 15 0 empty empty empty 0 -6 0 10 -33289 -262144 -1
1 1;
#X obj 583 255 i;
#X obj 154 0 tgl 15 0 empty empty empty 0 -6 0 10 -33289 -262144 -1
1 1;
#X obj 613 255 i;
#X obj 169 0 tgl 15 0 empty empty empty 0 -6 0 10 -33289 -262144 -1
1 1;
#X obj 646 255 i;
#X obj 184 0 tgl 15 0 empty empty empty 0 -6 0 10 -33289 -262144 -1
0 1;
#X obj 679 256 i;
#X obj 199 0 tgl 15 0 empty empty empty 0 -6 0 10 -13330 -262144 -1
0 1;
#X obj 708 255 i;
#X obj 214 0 tgl 15 0 empty empty empty 0 -6 0 10 -13330 -262144 -1
1 1;
#X obj 738 255 i;
#X obj 229 0 tgl 15 0 empty empty empty 0 -6 0 10 -13330 -262144 -1
1 1;
#X obj 771 255 i;
#X obj 244 0 tgl 15 0 empty empty empty 0 -6 0 10 -13330 -262144 -1
1 1;
#X obj 0 0 tgl 15 0 empty empty empty 0 -6 0 10 -45076 -262144 -262144
1 1;
#X obj 285 470 outlet;
#X obj 307 212 sel 0 1 2 3 4 5 6 7 8 9 10 11 12 13 14 15;
#X obj 21 -33 route 0 1 2 3 4 5 6 7 8 9 10 11 12 13 14 15;
#X obj 25 -131 r xlinie;
#X obj -2 124 r seqscan;
#X obj 59 164 spigot;
#X obj -22 -50 inlet;
#X obj -48 -131 r scanrate;
#X obj 87 -131 r onoff1;
#X obj 22 -90 pack f f;
#X connect 0 0 3 0;
#X connect 2 0 0 1;
#X connect 3 0 4 0;
#X connect 4 0 1 0;
#X connect 4 0 36 0;
#X connect 5 0 3 0;
#X connect 6 0 5 1;
#X connect 7 0 3 0;
#X connect 8 0 7 1;
#X connect 9 0 3 0;
#X connect 10 0 9 1;
#X connect 11 0 3 0;
#X connect 12 0 11 1;
#X connect 13 0 3 0;
#X connect 14 0 13 1;
#X connect 15 0 3 0;
#X connect 16 0 15 1;
#X connect 17 0 3 0;
#X connect 18 0 17 1;
#X connect 19 0 3 0;
#X connect 20 0 19 1;
#X connect 21 0 3 0;
#X connect 22 0 21 1;
#X connect 23 0 3 0;
#X connect 24 0 23 1;
#X connect 25 0 3 0;
#X connect 26 0 25 1;
#X connect 27 0 3 0;
#X connect 28 0 27 1;
#X connect 29 0 3 0;
#X connect 30 0 29 1;
#X connect 31 0 3 0;
#X connect 32 0 31 1;
#X connect 33 0 3 0;
#X connect 34 0 33 1;
#X connect 35 0 41 1;
#X connect 37 0 0 0;
#X connect 37 1 5 0;
#X connect 37 2 7 0;
#X connect 37 3 9 0;
#X connect 37 4 11 0;
#X connect 37 5 13 0;
#X connect 37 6 15 0;
#X connect 37 7 17 0;
#X connect 37 8 19 0;
#X connect 37 9 21 0;
#X connect 37 10 23 0;
#X connect 37 11 25 0;
#X connect 37 12 27 0;
#X connect 37 13 29 0;
#X connect 37 14 31 0;
#X connect 37 15 33 0;
#X connect 38 0 2 0;
#X connect 38 1 6 0;
#X connect 38 2 8 0;
#X connect 38 3 10 0;
#X connect 38 4 12 0;
#X connect 38 5 14 0;
#X connect 38 6 16 0;
#X connect 38 7 18 0;
#X connect 38 8 20 0;
#X connect 38 9 22 0;
#X connect 38 10 24 0;
#X connect 38 11 26 0;
#X connect 38 12 28 0;
#X connect 38 13 30 0;
#X connect 38 14 32 0;
#X connect 38 15 34 0;
#X connect 39 0 45 0;
#X connect 40 0 41 0;
#X connect 41 0 37 0;
#X connect 42 0 35 0;
#X connect 43 0 45 0;
#X connect 44 0 45 1;
#X connect 45 0 38 0;
#X coords 0 1 100 -1 278 15 1 0 0;
#X restore 25 114 graph;
#N canvas 253 141 1027 659 (subpatch) 0;
#X obj 286 255 i;
#X obj 263 0 bng 15 250 50 0 empty empty empty 0 -6 0 10 -203904 -1
-1;
#X obj 19 0 tgl 15 0 empty empty empty 0 -6 0 10 -33289 -262144 -262144
1 1;
#X floatatom 286 363 5 0 0 0 - - -;
#X obj 284 428 sel 1;
#X obj 326 255 i;
#X obj 34 0 tgl 15 0 empty empty empty 0 -6 0 10 -33289 -262144 -1
1 1;
#X obj 356 255 i;
#X obj 49 0 tgl 15 0 empty empty empty 0 -6 0 10 -33289 -262144 -1
1 1;
#X obj 389 255 i;
#X obj 64 0 tgl 15 0 empty empty empty 0 -6 0 10 -33289 -262144 -1
1 1;
#X obj 422 256 i;
#X obj 79 0 tgl 15 0 empty empty empty 0 -6 0 10 -13330 -262144 -1
1 1;
#X obj 451 255 i;
#X obj 94 0 tgl 15 0 empty empty empty 0 -6 0 10 -13330 -262144 -1
1 1;
#X obj 481 255 i;
#X obj 109 0 tgl 15 0 empty empty empty 0 -6 0 10 -13330 -262144 -1
1 1;
#X obj 514 255 i;
#X obj 124 0 tgl 15 0 empty empty empty 0 -6 0 10 -13330 -262144 -1
1 1;
#X obj 547 256 i;
#X obj 139 0 tgl 15 0 empty empty empty 0 -6 0 10 -33289 -262144 -1
1 1;
#X obj 583 255 i;
#X obj 154 0 tgl 15 0 empty empty empty 0 -6 0 10 -33289 -262144 -1
1 1;
#X obj 613 255 i;
#X obj 169 0 tgl 15 0 empty empty empty 0 -6 0 10 -33289 -262144 -1
1 1;
#X obj 646 255 i;
#X obj 184 0 tgl 15 0 empty empty empty 0 -6 0 10 -33289 -262144 -1
1 1;
#X obj 679 256 i;
#X obj 199 0 tgl 15 0 empty empty empty 0 -6 0 10 -13330 -262144 -1
1 1;
#X obj 708 255 i;
#X obj 214 0 tgl 15 0 empty empty empty 0 -6 0 10 -13330 -262144 -1
1 1;
#X obj 738 255 i;
#X obj 229 0 tgl 15 0 empty empty empty 0 -6 0 10 -13330 -262144 -1
0 1;
#X obj 771 255 i;
#X obj 244 0 tgl 15 0 empty empty empty 0 -6 0 10 -13330 -262144 -1
0 1;
#X obj 0 0 tgl 15 0 empty empty empty 0 -6 0 10 -45076 -262144 -262144
1 1;
#X obj 285 470 outlet;
#X obj 307 212 sel 0 1 2 3 4 5 6 7 8 9 10 11 12 13 14 15;
#X obj 21 -33 route 0 1 2 3 4 5 6 7 8 9 10 11 12 13 14 15;
#X obj 25 -131 r xlinie;
#X obj -37 77 r seqscan;
#X obj 18 116 spigot;
#X obj -22 -50 inlet;
#X obj -45 -131 r scanrate;
#X obj 83 -131 r onoff5;
#X obj 22 -90 pack f f;
#X connect 0 0 3 0;
#X connect 2 0 0 1;
#X connect 3 0 4 0;
#X connect 4 0 1 0;
#X connect 4 0 36 0;
#X connect 5 0 3 0;
#X connect 6 0 5 1;
#X connect 7 0 3 0;
#X connect 8 0 7 1;
#X connect 9 0 3 0;
#X connect 10 0 9 1;
#X connect 11 0 3 0;
#X connect 12 0 11 1;
#X connect 13 0 3 0;
#X connect 14 0 13 1;
#X connect 15 0 3 0;
#X connect 16 0 15 1;
#X connect 17 0 3 0;
#X connect 18 0 17 1;
#X connect 19 0 3 0;
#X connect 20 0 19 1;
#X connect 21 0 3 0;
#X connect 22 0 21 1;
#X connect 23 0 3 0;
#X connect 24 0 23 1;
#X connect 25 0 3 0;
#X connect 26 0 25 1;
#X connect 27 0 3 0;
#X connect 28 0 27 1;
#X connect 29 0 3 0;
#X connect 30 0 29 1;
#X connect 31 0 3 0;
#X connect 32 0 31 1;
#X connect 33 0 3 0;
#X connect 34 0 33 1;
#X connect 35 0 41 1;
#X connect 37 0 0 0;
#X connect 37 1 5 0;
#X connect 37 2 7 0;
#X connect 37 3 9 0;
#X connect 37 4 11 0;
#X connect 37 5 13 0;
#X connect 37 6 15 0;
#X connect 37 7 17 0;
#X connect 37 8 19 0;
#X connect 37 9 21 0;
#X connect 37 10 23 0;
#X connect 37 11 25 0;
#X connect 37 12 27 0;
#X connect 37 13 29 0;
#X connect 37 14 31 0;
#X connect 37 15 33 0;
#X connect 38 0 2 0;
#X connect 38 1 6 0;
#X connect 38 2 8 0;
#X connect 38 3 10 0;
#X connect 38 4 12 0;
#X connect 38 5 14 0;
#X connect 38 6 16 0;
#X connect 38 7 18 0;
#X connect 38 8 20 0;
#X connect 38 9 22 0;
#X connect 38 10 24 0;
#X connect 38 11 26 0;
#X connect 38 12 28 0;
#X connect 38 13 30 0;
#X connect 38 14 32 0;
#X connect 38 15 34 0;
#X connect 39 0 45 0;
#X connect 40 0 41 0;
#X connect 41 0 37 0;
#X connect 42 0 35 0;
#X connect 43 0 45 0;
#X connect 44 0 45 1;
#X connect 45 0 38 0;
#X coords 0 1 100 -1 278 15 1 0 0;
#X restore 25 50 graph;
#X obj 25 25 tgl 15 0 empty empty empty 17 7 0 10 -258113 -1 -1 1 1
;
#X text 44 24 ON/OFF 'EM ALL;
#N canvas 434 127 807 481 CONTROLS 0;
#X obj 465 119 gemwin;
#X obj 260 194 pix_texture;
#X obj 260 232 rectangle 5.33333 4;
#X obj 465 32 loadbang;
#X msg 480 89 destroy \, 0;
#X obj 27 163 bng 15 250 50 0 empty empty empty 17 7 0 10 -262144 -1
-1;
#X obj 87 205 s scanrate;
#N canvas 567 85 589 715 pixdata0 0;
#X obj 120 106 pix_data;
#X obj 142 137 unpack f f f;
#X msg 43 361 1;
#X msg 94 361 0;
#X obj 43 337 moses 0.5;
#X obj 121 50 inlet;
#X obj 163 50 inlet;
#X obj 63 416 s onoff0;
#X obj 239 251 inlet;
#X obj 209 50 r xpoint;
#X obj 336 32 inlet;
#X msg 215 87 0.292;
#X connect 0 1 1 0;
#X connect 1 0 4 0;
#X connect 2 0 7 0;
#X connect 3 0 7 0;
#X connect 4 0 2 0;
#X connect 4 1 3 0;
#X connect 5 0 0 0;
#X connect 6 0 0 1;
#X connect 8 0 4 1;
#X connect 9 0 0 2;
#X connect 10 0 11 0;
#X connect 11 0 0 3;
#X restore 130 396 pd pixdata0;
#N canvas 699 211 432 469 pixdata1 0;
#X obj 120 106 pix_data;
#X obj 142 137 unpack f f f;
#X msg 43 361 1;
#X msg 94 361 0;
#X obj 43 337 moses 0.5;
#X obj 121 50 inlet;
#X obj 163 50 inlet;
#X obj 252 292 inlet;
#X obj 63 416 s onoff1;
#X obj 209 50 r xpoint;
#X obj 336 32 inlet;
#X msg 224 86 0.375;
#X connect 0 1 1 0;
#X connect 1 0 4 0;
#X connect 2 0 8 0;
#X connect 3 0 8 0;
#X connect 4 0 2 0;
#X connect 4 1 3 0;
#X connect 5 0 0 0;
#X connect 6 0 0 1;
#X connect 7 0 4 1;
#X connect 9 0 0 2;
#X connect 10 0 11 0;
#X connect 11 0 0 3;
#X restore 130 373 pd pixdata1;
#N canvas 566 238 436 467 pixdata2 0;
#X obj 120 106 pix_data;
#X obj 142 137 unpack f f f;
#X msg 43 361 1;
#X msg 94 361 0;
#X obj 43 337 moses 0.5;
#X obj 121 50 inlet;
#X obj 163 50 inlet;
#X obj 239 251 inlet;
#X obj 63 416 s onoff2;
#X obj 209 50 r xpoint;
#X obj 336 32 inlet;
#X msg 228 90 0.458;
#X connect 0 1 1 0;
#X connect 1 0 4 0;
#X connect 2 0 8 0;
#X connect 3 0 8 0;
#X connect 4 0 2 0;
#X connect 4 1 3 0;
#X connect 5 0 0 0;
#X connect 6 0 0 1;
#X connect 7 0 4 1;
#X connect 9 0 0 2;
#X connect 10 0 11 0;
#X connect 11 0 0 3;
#X restore 130 349 pd pixdata2;
#N canvas 501 195 444 459 pixdata3 0;
#X obj 120 106 pix_data;
#X obj 142 137 unpack f f f;
#X msg 43 361 1;
#X msg 94 361 0;
#X obj 43 337 moses 0.5;
#X obj 121 50 inlet;
#X obj 163 50 inlet;
#X obj 239 251 inlet;
#X obj 63 416 s onoff3;
#X obj 209 50 r xpoint;
#X obj 336 32 inlet;
#X msg 239 78 0.542;
#X connect 0 1 1 0;
#X connect 1 0 4 0;
#X connect 2 0 8 0;
#X connect 3 0 8 0;
#X connect 4 0 2 0;
#X connect 4 1 3 0;
#X connect 5 0 0 0;
#X connect 6 0 0 1;
#X connect 7 0 4 1;
#X connect 9 0 0 2;
#X connect 10 0 11 0;
#X connect 11 0 0 3;
#X restore 130 324 pd pixdata3;
#N canvas 499 161 430 455 pixdata4 0;
#X obj 120 106 pix_data;
#X obj 142 137 unpack f f f;
#X msg 43 361 1;
#X msg 94 361 0;
#X obj 43 337 moses 0.5;
#X obj 121 50 inlet;
#X obj 163 50 inlet;
#X obj 239 251 inlet;
#X obj 63 416 s onoff4;
#X obj 209 50 r xpoint;
#X obj 336 32 inlet;
#X msg 219 83 0.625;
#X connect 0 1 1 0;
#X connect 1 0 4 0;
#X connect 2 0 8 0;
#X connect 3 0 8 0;
#X connect 4 0 2 0;
#X connect 4 1 3 0;
#X connect 5 0 0 0;
#X connect 6 0 0 1;
#X connect 7 0 4 1;
#X connect 9 0 0 2;
#X connect 10 0 11 0;
#X connect 11 0 0 3;
#X restore 129 301 pd pixdata4;
#N canvas 38 160 459 502 pixdata5 0;
#X obj 120 106 pix_data;
#X obj 142 137 unpack f f f;
#X msg 43 361 1;
#X msg 94 361 0;
#X obj 43 337 moses 0.5;
#X obj 121 50 inlet;
#X obj 163 50 inlet;
#X obj 251 287 inlet;
#X obj 43 408 s onoff5;
#X obj 209 50 r xpoint;
#X text 101 409 sends to sequencer;
#X obj 336 32 inlet;
#X msg 256 89 0.70834;
#X connect 0 1 1 0;
#X connect 1 0 4 0;
#X connect 2 0 8 0;
#X connect 3 0 8 0;
#X connect 4 0 2 0;
#X connect 4 1 3 0;
#X connect 5 0 0 0;
#X connect 6 0 0 1;
#X connect 7 0 4 1;
#X connect 9 0 0 2;
#X connect 11 0 12 0;
#X connect 12 0 0 3;
#X restore 129 278 pd pixdata5;
#N canvas 135 245 326 363 scanlinie 0;
#X obj 37 54 gemhead;
#X obj 37 266 translateXYZ;
#X obj 36 330 rectangle 0.02 4;
#X floatatom 59 219 5 0 0 0 - - -;
#X obj 59 195 line;
#X floatatom 59 124 5 0 0 0 - - -;
#X msg 59 171 -5.31 \, 5.35 \$1;
#X obj 59 147 * 16;
#X text 99 219 POSITION;
#X obj 203 94 tgl 15 0 empty empty empty 17 7 0 10 -262144 -1 -1 1
1;
#X obj 186 5 r bpm;
#X obj 198 292 select 0;
#X obj 198 316 bng 15 250 50 0 empty empty empty 17 7 0 10 -262144
-1 -1;
#X obj 197 175 f;
#X obj 226 175 + 1;
#X obj 197 199 mod 16;
#X floatatom 197 223 5 0 0 0 - - -;
#X obj 203 145 bng 15 250 50 0 empty empty empty 17 7 0 10 -262144
-1 -1;
#X obj 252 255 s seqscan;
#X obj 203 116 metro 120;
#X obj 36 296 colorRGB 1 0 0;
#X obj 203 70 loadbang;
#X obj 186 28 expr 60 / $f1 * 1000;
#X floatatom 155 61 5 0 0 0 - - -;
#X connect 0 0 1 0;
#X connect 1 0 20 0;
#X connect 3 0 1 1;
#X connect 4 0 3 0;
#X connect 5 0 7 0;
#X connect 6 0 4 0;
#X connect 7 0 6 0;
#X connect 9 0 19 0;
#X connect 10 0 22 0;
#X connect 11 0 12 0;
#X connect 12 0 5 0;
#X connect 13 0 14 0;
#X connect 13 0 15 0;
#X connect 14 0 13 1;
#X connect 15 0 16 0;
#X connect 16 0 11 0;
#X connect 16 0 18 0;
#X connect 17 0 13 0;
#X connect 19 0 17 0;
#X connect 20 0 2 0;
#X connect 21 0 9 0;
#X connect 22 0 23 0;
#X connect 23 0 19 1;
#X connect 23 0 5 0;
#X restore 463 377 pd scanlinie;
#X obj 260 86 pix_video;
#X obj 281 282 hsl 128 15 0 1 0 0 empty empty empty -2 -8 0 10 -204786
-1 -1 0 1;
#X floatatom 277 306 5 0 0 0 - - -;
#X text 311 281 THRESHOLD;
#N canvas 462 309 712 294 alphatextures 0;
#X obj 46 35 gemhead;
#X obj 46 111 colorRGB 1 0 1 0;
#X obj 46 78 alpha;
#X obj 46 205 rectangle 1.32 2;
#X obj 185 35 gemhead;
#X obj 185 78 alpha;
#X obj 185 111 colorRGB 0 1 1 0;
#X obj 185 205 rectangle 1.34 2;
#X obj 185 178 translateXYZ -1.35 0 0;
#X obj 373 35 gemhead;
#X obj 373 111 colorRGB 1 0 1 0;
#X obj 373 78 alpha;
#X obj 526 35 gemhead;
#X obj 526 78 alpha;
#X obj 526 111 colorRGB 0 1 1 0;
#X obj 46 178 translateXYZ -4 0 0;
#X floatatom 325 0 5 0 0 0 - - -;
#X obj 373 178 translateXYZ 1.35 0 0;
#X obj 373 205 rectangle 1.34 2;
#X obj 526 205 rectangle 1.34 2;
#X obj 526 178 translateXYZ 4.05 0 0;
#X obj 325 -49 loadbang;
#X msg 325 -25 0.13;
#X connect 0 0 2 0;
#X connect 1 0 15 0;
#X connect 2 0 1 0;
#X connect 4 0 5 0;
#X connect 5 0 6 0;
#X connect 6 0 8 0;
#X connect 8 0 7 0;
#X connect 9 0 11 0;
#X connect 10 0 17 0;
#X connect 11 0 10 0;
#X connect 12 0 13 0;
#X connect 13 0 14 0;
#X connect 14 0 20 0;
#X connect 15 0 3 0;
#X connect 16 0 6 4;
#X connect 16 0 10 4;
#X connect 16 0 14 4;
#X connect 16 0 1 4;
#X connect 17 0 18 0;
#X connect 20 0 19 0;
#X connect 21 0 22 0;
#X connect 22 0 16 0;
#X restore 462 452 pd alphatextures;
#N canvas 329 289 472 294 gridmash 0;
#X msg 94 215 draw line;
#X obj 23 138 rotateXYZ 0 0 90;
#X msg 38 214 grid 15;
#X text 199 60 GRIDMASH;
#X msg 274 213 grid 7;
#X msg 325 213 draw line;
#X obj 255 245 mesh_square;
#X msg 396 224 2;
#X obj 255 152 scaleXYZ 4 1 20;
#X obj 200 77 loadbang;
#X obj 23 187 color 0.5 0.5 1;
#X obj 255 180 color 1 1 0;
#X obj 23 162 scaleXYZ 0.42 1 1;
#X msg 158 224 4.72;
#X obj 23 247 mesh_square 5.33 4;
#X obj 23 110 gemhead 90;
#X obj 255 120 gemhead 80;
#X connect 0 0 14 0;
#X connect 1 0 12 0;
#X connect 2 0 14 0;
#X connect 4 0 6 0;
#X connect 5 0 6 0;
#X connect 7 0 6 1;
#X connect 8 0 11 0;
#X connect 9 0 0 0;
#X connect 9 0 2 0;
#X connect 9 0 7 0;
#X connect 9 0 5 0;
#X connect 9 0 4 0;
#X connect 9 0 13 0;
#X connect 10 0 14 0;
#X connect 11 0 6 0;
#X connect 12 0 10 0;
#X connect 13 0 14 1;
#X connect 15 0 1 0;
#X connect 16 0 8 0;
#X restore 462 428 pd gridmash;
#N canvas 609 75 355 577 scanfeld 0;
#X obj 9 120 r scanrate;
#X obj 9 234 f;
#X obj 36 234 + 1;
#X obj 83 355 s xlinie;
#X obj 9 261 mod 16;
#X obj 81 289 - 1;
#X obj 82 310 mod 16;
#X floatatom 83 332 5 0 0 0 - - -;
#X text 79 375 sends to sequencer;
#X obj 9 454 s xpoint;
#X text 9 470 sends x-coordinates to pixdatas;
#X obj 9 302 * 0.0625;
#X floatatom 9 399 5 0 0 0 - - -;
#X obj 9 332 + 0.03125;
#X text 1 6 one y-achsis of 6 fields is scanned at a time \, going
from left to right.;
#X connect 0 0 1 0;
#X connect 1 0 2 0;
#X connect 1 0 4 0;
#X connect 2 0 1 1;
#X connect 4 0 5 0;
#X connect 4 0 11 0;
#X connect 5 0 6 0;
#X connect 6 0 7 0;
#X connect 7 0 3 0;
#X connect 11 0 13 0;
#X connect 12 0 9 0;
#X connect 13 0 12 0;
#X restore 462 403 pd scanfeld;
#X text 553 427 the grid;
#X text 571 451 the transparent rectangles;
#X text 551 402 coordinates of scanner (+ the cyan dot);
#X text 553 375 red line \, indicating BPM \, beat position;
#X msg 465 63 dimen 200 150 \, create \, 1;
#X obj 260 23 gemhead 20;
#X obj 27 21 gemhead 10;
#N canvas 587 138 499 441 flip 0;
#X obj 45 128 rotateXYZ;
#X obj 45 285 translateXYZ;
#X text 76 -50 flip upside down;
#X text 167 -4 flip left right;
#X obj 45 311 outlet;
#X obj 45 7 inlet;
#X obj 116 56 f;
#X msg 253 14 bang;
#X obj 116 82 mod 2;
#X obj 143 56 + 1;
#X obj 116 108 * 180;
#X obj 62 56 f;
#X msg 142 -31 bang;
#X obj 62 82 mod 2;
#X obj 89 56 + 1;
#X obj 62 108 * 180;
#X obj 282 40 sel 1;
#X obj 349 40 sel 1;
#X msg 190 262 0;
#X obj 323 141 expr $f1 + $f2;
#X floatatom 323 172 5 0 0 0 - - -;
#X obj 343 117 t b;
#X msg 282 76 5;
#X msg 313 76 10;
#X msg 349 76 -3;
#X msg 380 76 -8;
#X obj 323 197 sel -3 2 7;
#X obj 78 -31 r up/down;
#X obj 170 14 r left/right;
#X msg 91 262 0.0001;
#X msg 134 262 -0.0001;
#X text 411 68 i guess this part is stupid \, but it works;
#X text 96 157 seriously: wtf is this shit? why do i need this??????
why does rotateXYZ change the order oflayers???;
#X connect 0 0 1 0;
#X connect 1 0 4 0;
#X connect 5 0 0 0;
#X connect 6 0 8 0;
#X connect 6 0 9 0;
#X connect 7 0 6 0;
#X connect 8 0 10 0;
#X connect 8 0 17 0;
#X connect 9 0 6 1;
#X connect 10 0 0 2;
#X connect 11 0 13 0;
#X connect 11 0 14 0;
#X connect 12 0 11 0;
#X connect 13 0 15 0;
#X connect 13 0 16 0;
#X connect 14 0 11 1;
#X connect 15 0 0 1;
#X connect 16 0 22 0;
#X connect 16 1 23 0;
#X connect 17 0 24 0;
#X connect 17 1 25 0;
#X connect 18 0 1 3;
#X connect 19 0 20 0;
#X connect 20 0 26 0;
#X connect 21 0 19 0;
#X connect 22 0 19 0;
#X connect 23 0 19 0;
#X connect 24 0 19 1;
#X connect 24 0 21 0;
#X connect 25 0 19 1;
#X connect 25 0 21 0;
#X connect 26 0 29 0;
#X connect 26 1 30 0;
#X connect 26 2 29 0;
#X connect 27 0 11 0;
#X connect 28 0 6 0;
#X connect 29 0 1 3;
#X connect 30 0 1 3;
#X restore 260 53 pd flip;
#X text 314 54 flipper;
#X obj 260 147 pix_contrast;
#X obj 294 123 nbx 5 14 -1e+37 1e+37 0 1 empty empty empty 0 -8 0 10
-203904 -1 -1 100 256;
#X text 352 122 Kontrast;
#X connect 1 0 2 0;
#X connect 2 0 7 1;
#X connect 2 0 8 1;
#X connect 2 0 9 1;
#X connect 2 0 10 1;
#X connect 2 0 11 1;
#X connect 2 0 12 1;
#X connect 3 0 25 0;
#X connect 3 0 12 3;
#X connect 3 0 11 3;
#X connect 3 0 10 3;
#X connect 3 0 9 3;
#X connect 3 0 8 3;
#X connect 3 0 7 3;
#X connect 3 0 31 0;
#X connect 4 0 0 0;
#X connect 5 0 6 0;
#X connect 5 0 7 0;
#X connect 5 0 12 0;
#X connect 5 0 11 0;
#X connect 5 0 10 0;
#X connect 5 0 9 0;
#X connect 5 0 8 0;
#X connect 14 0 30 0;
#X connect 15 0 16 0;
#X connect 16 0 7 2;
#X connect 16 0 9 2;
#X connect 16 0 10 2;
#X connect 16 0 11 2;
#X connect 16 0 12 2;
#X connect 16 0 8 2;
#X connect 25 0 0 0;
#X connect 26 0 28 0;
#X connect 27 0 5 0;
#X connect 28 0 14 0;
#X connect 30 0 1 0;
#X connect 31 0 30 1;
#X restore 309 144 pd CONTROLS;
#N canvas 198 204 236 204 (subpatch) 0;
#X msg 5 94 \; pd dsp 1;
#X msg 77 96 \; pd dsp 0;
#X obj 33 48 sel 1;
#X obj 0 0 tgl 15 0 empty empty empty 17 7 0 10 -262144 -1 -1 1 1;
#X text 16 -1 Audio On/Off;
#X obj 0 -35 loadbang;
#X connect 2 0 0 0;
#X connect 2 1 1 0;
#X connect 3 0 2 0;
#X connect 5 0 3 0;
#X coords 0 1 100 -1 92 15 1 0 0;
#X restore 308 51 graph;
#N canvas 324 251 423 262 (subpatch) 0;
#X obj 93 111 s bpm;
#X obj 3 0 hsl 128 14 0 200 0 1 empty empty empty -2 -8 0 10 -162280
-1 -1 8600 1;
#X text 189 -1 BPM;
#X obj 135 0 nbx 5 14 0 1000 0 0 empty empty empty 0 -8 0 10 -260735
-1 -1 135 256;
#X obj 90 40 i;
#X connect 1 0 4 0;
#X connect 3 0 0 0;
#X connect 4 0 3 0;
#X coords 0 1 100 -1 213 14 1 0 0;
#X restore 152 26 graph;
#N canvas 69 234 222 120 (subpatch) 0;
#X obj 0 0 bng 15 250 50 0 empty empty empty 17 7 0 10 -262144 -1 -1
;
#X obj 45 0 bng 15 250 50 0 empty empty empty 17 7 0 10 -262144 -1
-1;
#X text 16 0 flip;
#X obj 99 36 s up/down;
#X obj 6 35 s left/right;
#X connect 0 0 4 0;
#X connect 1 0 3 0;
#X coords 0 1 100 -1 60 15 1 0 0;
#X restore 309 70 graph;
#X connect 0 0 1 0;
#X connect 1 0 2 0;
#X connect 2 0 3 0;
#X connect 3 0 4 1;
#X connect 4 0 5 0;
#X connect 4 0 5 1;
#X connect 6 0 4 0;
#X connect 8 0 6 0;
#X connect 10 0 11 0;
#X connect 11 0 12 0;
#X connect 12 0 13 0;
#X connect 13 0 14 1;
#X connect 14 0 15 0;
#X connect 14 0 15 1;
#X connect 16 0 14 0;
#X connect 18 0 16 0;
#X connect 20 0 21 0;
#X connect 21 0 22 0;
#X connect 22 0 23 0;
#X connect 23 0 24 1;
#X connect 24 0 25 0;
#X connect 24 0 25 1;
#X connect 27 0 58 0;
#X connect 29 0 30 0;
#X connect 30 0 31 0;
#X connect 31 0 32 0;
#X connect 32 0 33 1;
#X connect 33 0 34 0;
#X connect 33 0 34 1;
#X connect 36 0 59 0;
#X connect 38 0 39 0;
#X connect 39 0 40 0;
#X connect 40 0 41 0;
#X connect 41 0 42 1;
#X connect 42 0 43 0;
#X connect 42 0 43 1;
#X connect 44 0 42 0;
#X connect 46 0 44 0;
#X connect 48 0 49 0;
#X connect 49 0 50 0;
#X connect 50 0 51 0;
#X connect 51 0 52 1;
#X connect 52 0 53 0;
#X connect 52 0 53 1;
#X connect 54 0 52 0;
#X connect 56 0 54 0;
#X connect 58 0 24 0;
#X connect 59 0 33 0;
#X connect 60 0 8 0;
#X connect 61 0 1 0;
#X connect 62 0 18 0;
#X connect 63 0 10 0;
#X connect 64 0 46 0;
#X connect 65 0 38 0;
#X connect 66 0 56 0;
#X connect 67 0 48 0;
#X connect 68 0 27 0;
#X connect 69 0 20 0;
#X connect 70 0 36 0;
#X connect 71 0 29 0;
#X connect 72 0 73 0;
#X connect 73 0 71 0;
#X connect 73 0 69 0;
#X connect 73 0 68 0;
#X connect 73 0 70 0;
#X connect 73 0 67 0;
#X connect 73 0 65 0;
#X connect 73 0 66 0;
#X connect 73 0 64 0;
#X connect 73 0 63 0;
#X connect 73 0 61 0;
#X connect 73 0 62 0;
#X connect 73 0 60 0;
#X connect 75 0 61 0;
#X connect 76 0 69 0;
#X connect 77 0 67 0;
#X connect 78 0 65 0;
#X connect 79 0 63 0;
#X connect 80 0 71 0;
#X connect 81 0 80 0;
#X connect 81 0 76 0;
#X connect 81 0 77 0;
#X connect 81 0 78 0;
#X connect 81 0 79 0;
#X connect 81 0 75 0;
