#N canvas 744 270 406 496 10;
#X msg 178 159 Hello world!;
#X text 186 209 <-- connection \, aka "cord";
#X text 122 259 inlet-->;
#X text 123 149 inlet-->;
#X text 115 169 outlet-->;
#X obj 178 265 print;
#X text 222 265 <-- object box;
#X text 52 305 Now look in the Pd window to see the result.;
#X text 263 158 <-- message box;
#X text 44 103 Click on the box with "Hello world!" in it:;
#X obj 148 449 print;
#X obj 13 15 cnv 15 380 60 empty empty empty 20 12 0 14 -233017 -66577
0;
#X text 20 21 In Pd \, programming is done with boxes which are connected
together. The boxes have "inlets" and "outlets" \, where they are connected.
;
#X text 190 448 <--prints to the Pd window.;
#X obj 13 365 cnv 15 380 60 empty empty empty 20 12 0 14 -233017 -66577
0;
#X text 20 374 Whenever you see the [print] box \, that means that
stuff will be printed to the Pd window.;
#X connect 0 0 5 0;
