#N canvas 294 217 436 545 10;
#X obj 38 161 float;
#X text 21 134 These are all objects which store data:;
#X obj 106 161 symbol;
#X obj 184 161 list;
#X text 23 218 With most objects \, you can read the name of the object
in the object box:;
#X obj 26 260 moses;
#X obj 102 260 select;
#X obj 186 260 route;
#X obj 261 260 trigger;
#X obj 37 418 bng 15 250 50 0 empty empty empty 0 -6 0 8 -262144 -1
-1;
#X text 25 389 [bng];
#X obj 118 415 vsl 15 80 0 127 0 0 empty empty empty 0 -8 0 8 -262144
-1 -1 0 1;
#X text 95 389 [vslider];
#X text 237 391 [hslider];
#X obj 207 413 hsl 128 15 0 127 0 0 empty empty empty -2 -6 0 8 -262144
-1 -1 0 1;
#X obj 380 413 tgl 15 0 empty empty empty 0 -6 0 8 -262144 -1 -1 0
1;
#X text 369 388 [tgl];
#X obj 18 20 cnv 15 400 40 empty empty Objects 20 17 0 24 -228856 -66577
0;
#X obj 18 70 cnv 15 400 50 empty empty empty 20 17 0 24 -228856 -66577
0;
#X text 28 73 The fundamental building block of a Pd program is the
object. Each object is itself like a tiny program that does a very
specific thing.;
#X obj 18 320 cnv 15 400 50 empty empty empty 20 17 0 24 -228856 -66577
0;
#X text 31 325 GUI objects convert themselves into a GUI element \,
usually some kind of control. In the process \, they often hide the
text name of the object:;
