#N canvas 0 0 441 427 10;
#X obj 18 20 cnv 15 400 40 empty empty Messages 20 17 0 24 -228856
-66577 0;
#X msg 224 168 say hello;
#N canvas 10 40 620 460 myObject 0;
#X obj 70 24 inlet;
#X obj 68 243 outlet;
#X obj 76 86 route say;
#X obj 167 125 bang;
#X obj 57 130 symbol;
#X msg 167 152 symbol ?#$%!@$^!;
#X connect 0 0 2 0;
#X connect 2 0 4 0;
#X connect 2 1 3 0;
#X connect 3 0 5 0;
#X connect 4 0 1 0;
#X connect 5 0 1 0;
#X restore 224 256 pd myObject;
#X symbolatom 224 314 10 0 0 0 - - -;
#X obj 52 259 + 1;
#X msg 52 168 1;
#X floatatom 52 317 5 0 0 0 - - -;
#X text 103 171 <-- messages -->;
#X text 107 260 <-- objects -->;
#X msg 240 203 do as I say!;
#X text 48 138 data;
#X text 221 136 commands;
#X text 32 362 All communication within Pd is in the form of messages
\, including when the user is controlling the program.;
#X msg 63 199 2;
#X obj 18 70 cnv 15 400 50 empty empty empty 20 17 0 24 -228856 -66577
0;
#X text 32 75 Objects respond to messages received on their inlets
\, and output messages on their outlets. These messages can be anything
from data to commands.;
#X connect 1 0 2 0;
#X connect 2 0 3 0;
#X connect 4 0 6 0;
#X connect 5 0 4 0;
#X connect 9 0 2 0;
#X connect 13 0 4 0;
