#N canvas 233 343 544 401 10;
#X obj 18 20 cnv 15 500 50 empty empty EXERCISE-make_your_first_patch
20 17 0 24 -262131 -66577 0;
#X text 166 235 3- make a new symbol box;
#X text 166 275 4- connect the message box to the object box;
#X text 166 315 5- connect the object box to the symbol box;
#X obj 18 80 cnv 15 500 30 empty empty empty 20 17 0 24 -262131 -66577
0;
#X text 34 81 Its time to make your first patch. Follow the instructions
on the right:;
#X text 166 159 1- make a message box \, click in it \, type: servus
;
#X text 166 196 2- make a new object box \, click in it \, type: symbol
;
#X text 165 353 6- click the message box \, and voila!;
