#N canvas 919 58 692 702 10;
#X obj 1 -3 cnv 15 690 700 empty main_canvas Pd_Language.Browser 20
25 1 41 -66577 -262144 0;
#X obj 20 57 cnv 15 210 630 empty empty empty 20 12 0 14 -228856 -33289
0;
#X obj 240 57 cnv 15 210 630 empty empty empty 20 12 0 14 -191407 -66577
0;
#X obj 460 57 cnv 15 210 100 empty empty empty 20 12 0 14 -162280 -66577
0;
#N canvas 411 191 450 300 sub-browser 0;
#X obj 105 104 tgl 15 0 empty empty 1.Hello_World 23 7 0 10 -262144
-1 -1 0 0.5;
#X obj 150 206 s \$0-tglSelection;
#X obj 105 150 select 0;
#X obj 105 203 t b;
#X obj 105 251 s close;
#X connect 0 0 2 0;
#X connect 2 0 3 0;
#X connect 2 1 1 0;
#X connect 3 0 4 0;
#X coords 0 -1 1 1 185 23 2 100 100;
#X restore 33 74 pd sub-browser;
#N canvas 367 58 450 300 sub-browser 0;
#X obj 105 104 tgl 15 0 empty empty 2.Basic_Elements 23 7 0 10 -262144
-1 -1 0 1;
#X obj 160 216 s \$0-tglSelection;
#X obj 115 160 select 0;
#X obj 115 213 t b;
#X obj 115 261 s close;
#X connect 0 0 2 0;
#X connect 2 0 3 0;
#X connect 2 1 1 0;
#X connect 3 0 4 0;
#X coords 0 -1 1 1 185 23 2 100 100;
#X restore 33 104 pd sub-browser;
#N canvas 361 208 450 300 sub-browser 0;
#X obj 105 104 tgl 15 0 empty empty 3.Getting_Help 23 7 0 10 -262144
-1 -1 0 2;
#X obj 170 226 s \$0-tglSelection;
#X obj 125 170 select 0;
#X obj 125 223 t b;
#X obj 125 271 s close;
#X connect 0 0 2 0;
#X connect 2 0 3 0;
#X connect 2 1 1 0;
#X connect 3 0 4 0;
#X coords 0 -1 1 1 185 23 2 100 100;
#X restore 33 134 pd sub-browser;
#N canvas 0 0 450 300 sub-browser 0;
#X obj 105 104 tgl 15 0 empty empty 4.Edit_Mode 23 7 0 10 -262144 -1
-1 0 3;
#X obj 153 205 s \$0-tglSelection;
#X obj 108 149 select 0;
#X obj 108 202 t b;
#X obj 108 250 s close;
#X connect 0 0 2 0;
#X connect 2 0 3 0;
#X connect 2 1 1 0;
#X connect 3 0 4 0;
#X coords 0 -1 1 1 185 23 2 100 100;
#X restore 33 164 pd sub-browser;
#N canvas 0 0 450 300 sub-browser 0;
#X obj 105 104 tgl 15 0 empty empty 5.Objects 23 7 0 10 -262144 -1
-1 0 4;
#X obj 157 205 s \$0-tglSelection;
#X obj 112 149 select 0;
#X obj 112 202 t b;
#X obj 112 250 s close;
#X connect 0 0 2 0;
#X connect 2 0 3 0;
#X connect 2 1 1 0;
#X connect 3 0 4 0;
#X coords 0 -1 1 1 185 23 2 100 100;
#X restore 33 194 pd sub-browser;
#N canvas 180 153 450 300 sub-browser 0;
#X obj 105 104 tgl 15 0 empty empty 6.Connections 23 7 0 10 -262144
-1 -1 0 5;
#X obj 151 199 s \$0-tglSelection;
#X obj 106 143 select 0;
#X obj 106 196 t b;
#X obj 106 244 s close;
#X connect 0 0 2 0;
#X connect 2 0 3 0;
#X connect 2 1 1 0;
#X connect 3 0 4 0;
#X coords 0 -1 1 1 185 23 2 100 100;
#X restore 33 224 pd sub-browser;
#N canvas 445 137 450 300 sub-browser 0;
#X obj 105 104 tgl 15 0 empty empty 7.Messages 23 7 0 10 -262144 -1
-1 0 6;
#X obj 145 199 s \$0-tglSelection;
#X obj 100 143 select 0;
#X obj 100 196 t b;
#X obj 100 244 s close;
#X connect 0 0 2 0;
#X connect 2 0 3 0;
#X connect 2 1 1 0;
#X connect 3 0 4 0;
#X coords 0 -1 1 1 185 23 2 100 100;
#X restore 33 254 pd sub-browser;
#N canvas 423 196 450 300 sub-browser 0;
#X obj 101 101 cnv 15 183 21 empty empty empty 20 12 0 14 -262130 -66577
0;
#X obj 107 104 tgl 15 0 empty empty 8.Make_your_first_Patch 23 7 0
10 -262144 -1 -1 0 7;
#X obj 151 200 s \$0-tglSelection;
#X obj 106 144 select 0;
#X obj 106 197 t b;
#X obj 106 245 s close;
#X connect 1 0 3 0;
#X connect 3 0 4 0;
#X connect 3 1 2 0;
#X connect 4 0 5 0;
#X coords 0 -1 1 1 185 23 2 100 100;
#X restore 33 284 pd sub-browser;
#N canvas 172 74 450 300 sub-browser 0;
#X obj 105 104 tgl 15 0 empty empty 9.Bang 23 7 0 10 -262144 -1 -1
0 8;
#X obj 152 200 s \$0-tglSelection;
#X obj 107 144 select 0;
#X obj 107 197 t b;
#X obj 107 245 s close;
#X connect 0 0 2 0;
#X connect 2 0 3 0;
#X connect 2 1 1 0;
#X connect 3 0 4 0;
#X coords 0 -1 1 1 185 23 2 100 100;
#X restore 33 314 pd sub-browser;
#N canvas 0 0 450 300 sub-browser 0;
#X obj 105 104 tgl 15 0 empty empty 10.Event_driven_Process 23 7 0
10 -262144 -1 -1 0 10;
#X obj 151 197 s \$0-tglSelection;
#X obj 106 141 select 0;
#X obj 106 194 t b;
#X obj 106 242 s close;
#X connect 0 0 2 0;
#X connect 2 0 3 0;
#X connect 2 1 1 0;
#X connect 3 0 4 0;
#X coords 0 -1 1 1 185 23 2 100 100;
#X restore 33 344 pd sub-browser;
#N canvas 0 0 450 300 sub-browser 0;
#X obj 105 104 tgl 15 0 empty empty 11.Counters 23 7 0 10 -262144 -1
-1 0 11;
#X obj 152 198 s \$0-tglSelection;
#X obj 107 142 select 0;
#X obj 107 195 t b;
#X obj 107 243 s close;
#X connect 0 0 2 0;
#X connect 2 0 3 0;
#X connect 2 1 1 0;
#X connect 3 0 4 0;
#X coords 0 -1 1 1 185 23 2 100 100;
#X restore 33 374 pd sub-browser;
#N canvas 485 125 450 300 sub-browser 0;
#X obj 105 104 tgl 15 0 empty empty 12.Hot_and_Cold_Inlets 23 7 0 10
-262144 -1 -1 0 12;
#X obj 155 209 s \$0-tglSelection;
#X obj 110 153 select 0;
#X obj 110 206 t b;
#X obj 110 254 s close;
#X connect 0 0 2 0;
#X connect 2 0 3 0;
#X connect 2 1 1 0;
#X connect 3 0 4 0;
#X coords 0 -1 1 1 185 23 2 100 100;
#X restore 33 404 pd sub-browser;
#N canvas 0 0 450 300 sub-browser 0;
#X obj 105 104 tgl 15 0 empty empty 13.Building_Messages 23 7 0 10
-262144 -1 -1 0 13;
#X obj 150 197 s \$0-tglSelection;
#X obj 105 141 select 0;
#X obj 105 194 t b;
#X obj 105 242 s close;
#X connect 0 0 2 0;
#X connect 2 0 3 0;
#X connect 2 1 1 0;
#X connect 3 0 4 0;
#X coords 0 -1 1 1 185 23 2 100 100;
#X restore 33 434 pd sub-browser;
#N canvas 0 0 450 300 sub-browser 0;
#X obj 105 104 tgl 15 0 empty empty 14.Right_to_Left_Order 23 7 0 10
-262144 -1 -1 0 14;
#X obj 155 207 s \$0-tglSelection;
#X obj 110 151 select 0;
#X obj 110 204 t b;
#X obj 110 252 s close;
#X connect 0 0 2 0;
#X connect 2 0 3 0;
#X connect 2 1 1 0;
#X connect 3 0 4 0;
#X coords 0 -1 1 1 185 23 2 100 100;
#X restore 33 464 pd sub-browser;
#N canvas 0 0 450 300 sub-browser 0;
#X obj 105 104 tgl 15 0 empty empty 15.Ordering_Messages 23 7 0 10
-262144 -1 -1 0 15;
#X obj 155 204 s \$0-tglSelection;
#X obj 110 148 select 0;
#X obj 110 201 t b;
#X obj 110 249 s close;
#X connect 0 0 2 0;
#X connect 2 0 3 0;
#X connect 2 1 1 0;
#X connect 3 0 4 0;
#X coords 0 -1 1 1 185 23 2 100 100;
#X restore 33 494 pd sub-browser;
#N canvas 0 0 450 300 sub-browser 0;
#X obj 105 104 tgl 15 0 empty empty 16.Inlets_and_Outlets 23 7 0 10
-262144 -1 -1 0 16;
#X obj 155 209 s \$0-tglSelection;
#X obj 110 153 select 0;
#X obj 110 206 t b;
#X obj 110 254 s close;
#X connect 0 0 2 0;
#X connect 2 0 3 0;
#X connect 2 1 1 0;
#X connect 3 0 4 0;
#X coords 0 -1 1 1 185 23 2 100 100;
#X restore 33 524 pd sub-browser;
#N canvas 0 0 450 300 sub-browser 0;
#X obj 105 104 tgl 15 0 empty empty 17.Storage_Objects 23 7 0 10 -262144
-1 -1 0 17;
#X obj 165 219 s \$0-tglSelection;
#X obj 120 163 select 0;
#X obj 120 216 t b;
#X obj 120 264 s close;
#X connect 0 0 2 0;
#X connect 2 0 3 0;
#X connect 2 1 1 0;
#X connect 3 0 4 0;
#X coords 0 -1 1 1 185 23 2 100 100;
#X restore 33 554 pd sub-browser;
#N canvas 0 0 450 300 sub-browser 0;
#X obj 105 104 tgl 15 0 empty empty 18.Atoms 23 7 0 10 -262144 -1 -1
0 18;
#X obj 162 206 s \$0-tglSelection;
#X obj 117 150 select 0;
#X obj 117 203 t b;
#X obj 117 251 s close;
#X connect 0 0 2 0;
#X connect 2 0 3 0;
#X connect 2 1 1 0;
#X connect 3 0 4 0;
#X coords 0 -1 1 1 185 23 2 100 100;
#X restore 33 584 pd sub-browser;
#N canvas 0 0 450 300 sub-browser 0;
#X obj 105 104 tgl 15 0 empty empty 19.Atomic_Messages 23 7 0 10 -262144
-1 -1 0 19;
#X obj 161 202 s \$0-tglSelection;
#X obj 116 146 select 0;
#X obj 116 199 t b;
#X obj 116 247 s close;
#X connect 0 0 2 0;
#X connect 2 0 3 0;
#X connect 2 1 1 0;
#X connect 3 0 4 0;
#X coords 0 -1 1 1 185 23 2 100 100;
#X restore 33 614 pd sub-browser;
#N canvas 181 57 450 300 sub-browser 0;
#X obj 105 104 tgl 15 0 empty empty 20.Selectors 23 7 0 10 -262144
-1 -1 0 20;
#X obj 160 208 s \$0-tglSelection;
#X obj 115 152 select 0;
#X obj 115 205 t b;
#X obj 115 253 s close;
#X connect 0 0 2 0;
#X connect 2 0 3 0;
#X connect 2 1 1 0;
#X connect 3 0 4 0;
#X coords 0 -1 1 1 185 23 2 100 100;
#X restore 33 644 pd sub-browser;
#N canvas 0 0 450 300 sub-browser 0;
#X obj 105 104 tgl 15 0 empty empty 21.Subpatches 23 7 0 10 -262144
-1 -1 0 21;
#X obj 148 200 s \$0-tglSelection;
#X obj 103 144 select 0;
#X obj 103 197 t b;
#X obj 103 245 s close;
#X connect 0 0 2 0;
#X connect 2 0 3 0;
#X connect 2 1 1 0;
#X connect 3 0 4 0;
#X coords 0 -1 1 1 185 23 2 100 100;
#X restore 253 74 pd sub-browser;
#N canvas 0 0 450 300 sub-browser 0;
#X obj 105 104 tgl 15 0 empty empty 22.Outlet_Order 23 7 0 10 -262144
-1 -1 0 22;
#X obj 153 197 s \$0-tglSelection;
#X obj 108 141 select 0;
#X obj 108 194 t b;
#X obj 108 242 s close;
#X connect 0 0 2 0;
#X connect 2 0 3 0;
#X connect 2 1 1 0;
#X connect 3 0 4 0;
#X coords 0 -1 1 1 185 23 2 100 100;
#X restore 253 104 pd sub-browser;
#N canvas 361 208 450 300 sub-browser 0;
#X obj 105 104 tgl 15 0 empty empty 23.All_just_Data 23 7 0 10 -262144
-1 -1 0 23;
#X obj 159 208 s \$0-tglSelection;
#X obj 114 152 select 0;
#X obj 114 205 t b;
#X obj 114 253 s close;
#X connect 0 0 2 0;
#X connect 2 0 3 0;
#X connect 2 1 1 0;
#X connect 3 0 4 0;
#X coords 0 -1 1 1 185 23 2 100 100;
#X restore 253 134 pd sub-browser;
#N canvas 266 307 450 298 sub-browser 0;
#X obj 105 104 tgl 15 0 empty empty 24.Creation_Arguments 23 7 0 10
-262144 -1 -1 0 24;
#X obj 147 198 s \$0-tglSelection;
#X obj 102 142 select 0;
#X obj 102 195 t b;
#X obj 102 243 s close;
#X connect 0 0 2 0;
#X connect 2 0 3 0;
#X connect 2 1 1 0;
#X connect 3 0 4 0;
#X coords 0 -1 1 1 185 23 2 100 100;
#X restore 253 164 pd sub-browser;
#N canvas 0 0 450 300 sub-browser 0;
#X obj 105 104 tgl 15 0 empty empty 25.Turning_on_and_off 23 7 0 10
-262144 -1 -1 0 25;
#X obj 154 203 s \$0-tglSelection;
#X obj 109 147 select 0;
#X obj 109 200 t b;
#X obj 109 248 s close;
#X connect 0 0 2 0;
#X connect 2 0 3 0;
#X connect 2 1 1 0;
#X connect 3 0 4 0;
#X coords 0 -1 1 1 185 23 2 100 100;
#X restore 253 194 pd sub-browser;
#N canvas 180 153 450 300 sub-browser 0;
#X obj 105 104 tgl 15 0 empty empty 26.Properties 23 7 0 10 -262144
-1 -1 0 26;
#X obj 156 207 s \$0-tglSelection;
#X obj 111 151 select 0;
#X obj 111 204 t b;
#X obj 111 252 s close;
#X connect 0 0 2 0;
#X connect 2 0 3 0;
#X connect 2 1 1 0;
#X connect 3 0 4 0;
#X coords 0 -1 1 1 185 23 2 100 100;
#X restore 253 224 pd sub-browser;
#N canvas 445 137 450 300 sub-browser 0;
#X obj 105 104 tgl 15 0 empty empty 27.Sliders 23 7 0 10 -262144 -1
-1 0 27;
#X obj 153 205 s \$0-tglSelection;
#X obj 108 149 select 0;
#X obj 108 202 t b;
#X obj 108 250 s close;
#X connect 0 0 2 0;
#X connect 2 0 3 0;
#X connect 2 1 1 0;
#X connect 3 0 4 0;
#X coords 0 -1 1 1 185 23 2 100 100;
#X restore 253 254 pd sub-browser;
#N canvas 423 196 450 300 sub-browser 0;
#X obj 105 104 tgl 15 0 empty empty 28.GUI_Objects 23 7 0 10 -262144
-1 -1 0 28;
#X obj 155 207 s \$0-tglSelection;
#X obj 110 151 select 0;
#X obj 110 204 t b;
#X obj 110 252 s close;
#X connect 0 0 2 0;
#X connect 2 0 3 0;
#X connect 2 1 1 0;
#X connect 3 0 4 0;
#X coords 0 -1 1 1 185 23 2 100 100;
#X restore 253 284 pd sub-browser;
#N canvas 172 74 450 300 sub-browser 0;
#X obj 105 104 tgl 15 0 empty empty 29.GUIs 23 7 0 10 -262144 -1 -1
0 29;
#X obj 146 207 s \$0-tglSelection;
#X obj 101 151 select 0;
#X obj 101 204 t b;
#X obj 101 252 s close;
#X connect 0 0 2 0;
#X connect 2 0 3 0;
#X connect 2 1 1 0;
#X connect 3 0 4 0;
#X coords 0 -1 1 1 185 23 2 100 100;
#X restore 253 314 pd sub-browser;
#N canvas 0 0 460 308 sub-browser 0;
#X obj 105 104 tgl 15 0 empty empty 30.Nervous_GUIs 23 7 0 10 -262144
-1 -1 0 30;
#X obj 151 201 s \$0-tglSelection;
#X obj 106 145 select 0;
#X obj 106 198 t b;
#X obj 106 246 s close;
#X connect 0 0 2 0;
#X connect 2 0 3 0;
#X connect 2 1 1 0;
#X connect 3 0 4 0;
#X coords 0 -1 1 1 185 23 2 100 100;
#X restore 253 344 pd sub-browser;
#N canvas 0 0 450 300 sub-browser 0;
#X obj 105 104 tgl 15 0 empty empty 31.Selecting_Events 23 7 0 10 -262144
-1 -1 0 31;
#X obj 161 204 s \$0-tglSelection;
#X obj 116 148 select 0;
#X obj 116 201 t b;
#X obj 116 249 s close;
#X connect 0 0 2 0;
#X connect 2 0 3 0;
#X connect 2 1 1 0;
#X connect 3 0 4 0;
#X coords 0 -1 1 1 185 23 2 100 100;
#X restore 253 374 pd sub-browser;
#N canvas 0 0 450 300 sub-browser 0;
#X obj 105 104 tgl 15 0 empty empty 32.Comparing_Numbers 23 7 0 10
-262144 -1 -1 0 32;
#X obj 165 216 s \$0-tglSelection;
#X obj 120 160 select 0;
#X obj 120 213 t b;
#X obj 120 261 s close;
#X connect 0 0 2 0;
#X connect 2 0 3 0;
#X connect 2 1 1 0;
#X connect 3 0 4 0;
#X coords 0 -1 1 1 185 23 2 100 100;
#X restore 253 404 pd sub-browser;
#N canvas 0 0 450 300 sub-browser 0;
#X obj 105 104 tgl 15 0 empty empty 33.Math 23 7 0 10 -262144 -1 -1
0 33;
#X obj 162 210 s \$0-tglSelection;
#X obj 117 154 select 0;
#X obj 117 207 t b;
#X obj 117 255 s close;
#X connect 0 0 2 0;
#X connect 2 0 3 0;
#X connect 2 1 1 0;
#X connect 3 0 4 0;
#X coords 0 -1 1 1 185 23 2 100 100;
#X restore 253 434 pd sub-browser;
#N canvas 0 0 450 300 sub-browser 0;
#X obj 105 104 tgl 15 0 empty empty 34.Init_to_zero 23 7 0 10 -262144
-1 -1 0 34;
#X obj 158 203 s \$0-tglSelection;
#X obj 113 147 select 0;
#X obj 113 200 t b;
#X obj 113 248 s close;
#X connect 0 0 2 0;
#X connect 2 0 3 0;
#X connect 2 1 1 0;
#X connect 3 0 4 0;
#X coords 0 -1 1 1 185 23 2 100 100;
#X restore 253 464 pd sub-browser;
#N canvas 0 0 450 300 sub-browser 0;
#X obj 105 104 tgl 15 0 empty empty 35.Math_Expr 23 7 0 10 -262144
-1 -1 0 35;
#X obj 158 205 s \$0-tglSelection;
#X obj 113 149 select 0;
#X obj 113 202 t b;
#X obj 113 250 s close;
#X connect 0 0 2 0;
#X connect 2 0 3 0;
#X connect 2 1 1 0;
#X connect 3 0 4 0;
#X coords 0 -1 1 1 185 23 2 100 100;
#X restore 253 494 pd sub-browser;
#N canvas 861 122 450 300 sub-browser 0;
#X obj 101 101 cnv 15 183 21 empty empty empty 20 12 0 14 -262130 -66577
0;
#X obj 105 104 tgl 15 0 empty empty 36.Help_Americans 23 7 0 10 -262144
-1 -1 0 36;
#X obj 151 209 s \$0-tglSelection;
#X obj 106 153 select 0;
#X obj 106 206 t b;
#X obj 106 254 s close;
#X connect 1 0 3 0;
#X connect 3 0 4 0;
#X connect 3 1 2 0;
#X connect 4 0 5 0;
#X coords 0 -1 1 1 185 23 2 100 100;
#X restore 253 524 pd sub-browser;
#N canvas 0 0 450 300 sub-browser 0;
#X obj 105 104 tgl 15 0 empty empty 37.Building_Lists 23 7 0 10 -262144
-1 -1 0 37;
#X obj 163 203 s \$0-tglSelection;
#X obj 118 147 select 0;
#X obj 118 200 t b;
#X obj 118 248 s close;
#X connect 0 0 2 0;
#X connect 2 0 3 0;
#X connect 2 1 1 0;
#X connect 3 0 4 0;
#X coords 0 -1 1 1 185 23 2 100 100;
#X restore 253 554 pd sub-browser;
#N canvas 0 0 450 300 sub-browser 0;
#X obj 105 104 tgl 15 0 empty empty 38.Using_Lists 23 7 0 10 -262144
-1 -1 0 38;
#X obj 163 201 s \$0-tglSelection;
#X obj 118 145 select 0;
#X obj 118 198 t b;
#X obj 118 246 s close;
#X connect 0 0 2 0;
#X connect 2 0 3 0;
#X connect 2 1 1 0;
#X connect 3 0 4 0;
#X coords 0 -1 1 1 185 23 2 100 100;
#X restore 253 584 pd sub-browser;
#N canvas 0 0 450 300 sub-browser 0;
#X obj 105 104 tgl 15 0 empty empty 39.Sorting_Msg_by_Type 23 7 0 10
-262144 -1 -1 0 39;
#X obj 150 203 s \$0-tglSelection;
#X obj 105 147 select 0;
#X obj 105 200 t b;
#X obj 105 248 s close;
#X connect 0 0 2 0;
#X connect 2 0 3 0;
#X connect 2 1 1 0;
#X connect 3 0 4 0;
#X coords 0 -1 1 1 185 23 2 100 100;
#X restore 253 614 pd sub-browser;
#N canvas 181 57 450 300 sub-browser 0;
#X obj 105 104 tgl 15 0 empty empty 40.Trigger_Conversion 23 7 0 10
-262144 -1 -1 0 40;
#X obj 149 202 s \$0-tglSelection;
#X obj 104 146 select 0;
#X obj 104 199 t b;
#X obj 104 247 s close;
#X connect 0 0 2 0;
#X connect 2 0 3 0;
#X connect 2 1 1 0;
#X connect 3 0 4 0;
#X coords 0 -1 1 1 185 23 2 100 100;
#X restore 253 644 pd sub-browser;
#N canvas 0 0 450 300 sub-browser 0;
#X obj 105 104 tgl 15 0 empty empty 41.Grabbing_Keystrokes 23 7 0 10
-262144 -1 -1 0 41;
#X obj 156 205 s \$0-tglSelection;
#X obj 111 149 select 0;
#X obj 111 202 t b;
#X obj 111 250 s close;
#X connect 0 0 2 0;
#X connect 2 0 3 0;
#X connect 2 1 1 0;
#X connect 3 0 4 0;
#X coords 0 -1 1 1 185 23 2 100 100;
#X restore 473 74 pd sub-browser;
#N canvas 0 0 450 300 sub-browser 0;
#X obj 105 104 tgl 15 0 empty empty 42.Multiple_Messages 23 7 0 10
-262144 -1 -1 0 42;
#X obj 148 191 s \$0-tglSelection;
#X obj 103 135 select 0;
#X obj 103 188 t b;
#X obj 103 236 s close;
#X connect 0 0 2 0;
#X connect 2 0 3 0;
#X connect 2 1 1 0;
#X connect 3 0 4 0;
#X coords 0 -1 1 1 185 23 2 100 100;
#X restore 473 104 pd sub-browser;
#X obj 460 187 cnv 15 210 120 empty empty empty 20 12 0 14 -128992
-225280 0;
#X obj 468 217 cnv 15 190 60 empty empty empty 20 12 0 14 -233017 -66577
0;
#X text 475 221 THIS IS A COMMENT ON A CANVAS;
#X obj 465 369 grid grid1 200 0 199 200 0 199 0 1 1 10 10 528 426;
#X obj 465 370 cnv 15 200 200 empty empty empty 20 12 0 14 -1 -66577
0;
#X obj 465 570 cnv 15 200 20 empty empty empty 20 12 0 14 -1 -66577
0;
#X obj 465 573 nbx 5 14 -1e+37 1e+37 0 0 \$0-x_value empty empty 0
-8 0 10 -1 -262144 -1 62 256;
#X obj 610 573 nbx 5 14 -1e+37 1e+37 0 0 \$0-y_value empty empty 0
-8 0 10 -1 -262144 -1 142 256;
#X text 471 190 THIS IS A CANVAS;
#N canvas 821 212 613 498 code 0;
#X obj 178 61 getdir;
#X obj 178 132 folder_list;
#X obj 195 173 mapping/tolist;
#N canvas 103 333 616 365 os 0;
#X obj 137 17 inlet;
#X obj 131 315 outlet;
#X obj 278 80 zexy/operating_system;
#X obj 278 101 select windows;
#X obj 371 121 bang;
#X obj 137 58 trigger anything bang;
#X obj 297 260 makefilename %s/[0-9]*.pd;
#X msg 278 122 1;
#X obj 111 261 makefilename %s/*.pd;
#X obj 111 237 spigot;
#X obj 297 237 spigot;
#X msg 371 141 0;
#X msg 335 177 \$1 1;
#X obj 334 197 -;
#X obj 334 217 abs;
#X connect 0 0 5 0;
#X connect 2 0 3 0;
#X connect 3 0 7 0;
#X connect 3 1 4 0;
#X connect 4 0 11 0;
#X connect 5 0 9 0;
#X connect 5 0 10 0;
#X connect 5 1 2 0;
#X connect 6 0 1 0;
#X connect 7 0 9 1;
#X connect 7 0 12 0;
#X connect 8 0 1 0;
#X connect 9 0 8 0;
#X connect 10 0 6 0;
#X connect 11 0 9 1;
#X connect 11 0 12 0;
#X connect 12 0 13 0;
#X connect 13 0 14 0;
#X connect 14 0 10 1;
#X restore 178 91 pd os glob;
#X obj 192 288 split_path;
#X obj 195 237 list;
#X obj 192 345 pack symbol symbol;
#X msg 192 377 \; pd open \$2 \$1;
#X floatatom 298 213 5 0 0 0 - - -;
#X obj 242 211 bng 15 250 50 0 empty empty empty 17 7 0 10 -262144
-1 -1;
#X obj 195 257 list-abs/list-idx;
#X obj 177 -19 loadbang;
#X obj 179 7 t b b;
#X obj 412 177 t b f;
#X obj 412 146 r \$0-tglSelection;
#X msg 398 412 \; \$1 menuclose 1;
#X obj 397 347 split_path;
#X obj 397 296 list;
#X obj 397 316 list-abs/list-idx;
#X obj 398 380 makefilename pd-%s;
#X obj 397 243 r close;
#X connect 0 0 3 0;
#X connect 1 0 2 0;
#X connect 2 0 5 1;
#X connect 2 0 17 1;
#X connect 3 0 1 0;
#X connect 4 0 6 0;
#X connect 4 1 6 1;
#X connect 5 0 10 0;
#X connect 6 0 7 0;
#X connect 8 0 10 1;
#X connect 8 0 18 1;
#X connect 9 0 5 0;
#X connect 10 0 4 0;
#X connect 11 0 12 0;
#X connect 12 0 2 1;
#X connect 12 1 0 0;
#X connect 13 0 9 0;
#X connect 13 1 8 0;
#X connect 14 0 13 0;
#X connect 16 1 19 0;
#X connect 17 0 18 0;
#X connect 18 0 16 0;
#X connect 19 0 15 0;
#X connect 20 0 17 0;
#X restore 576 26 pd code;
#N canvas 746 203 863 598 color-interface 0;
#X floatatom 97 52 0 0 0 0 - - -;
#X floatatom 302 54 0 0 0 0 - - -;
#X obj 97 198 pack 0 0 0;
#X floatatom 97 142 5 0 0 0 - - -;
#X floatatom 160 142 5 0 0 0 - - -;
#X floatatom 249 142 5 0 0 0 - - -;
#X obj 97 20 r \$0-x_value;
#X obj 302 19 r \$0-y_value;
#X msg 97 230 \; main_canvas color \$1 \$2 \$3;
#X connect 0 0 3 0;
#X connect 1 0 5 0;
#X connect 2 0 8 0;
#X connect 3 0 2 0;
#X connect 4 0 2 1;
#X connect 5 0 2 2;
#X connect 6 0 0 0;
#X connect 7 0 1 0;
#X restore 576 5 pd color-interface;
#X connect 49 0 52 0;
#X connect 49 1 53 0;
