#N canvas 0 0 444 500 10;
#X obj 20 20 cnv 15 400 40 empty empty Event_driven_Processing 20 17
0 24 -228856 -66577 0;
#X obj 44 373 tgl 20 0 empty empty empty 0 -6 0 8 -24198 -1 -1 0 1
;
#X obj 44 421 float;
#X obj 101 421 + 1;
#X floatatom 44 446 5 0 0 0 - - -;
#X obj 44 467 bng 15 250 50 0 empty empty empty 0 -6 0 8 -262144 -1
-1;
#X obj 44 397 metro 1000;
#X obj 291 378 bng 20 250 50 0 empty empty empty 0 -6 0 8 -24198 -1
-1;
#X obj 291 414 float;
#X obj 348 414 + 1;
#X floatatom 291 439 5 0 0 0 - - -;
#X obj 291 460 bng 15 250 50 0 empty empty empty 0 -6 0 8 -262144 -1
-1;
#X obj 19 153 cnv 15 80 30 empty empty empty 20 12 0 14 -225271 -66577
0;
#X obj 182 153 cnv 15 80 30 empty empty empty 20 12 0 14 -225271 -66577
0;
#X obj 310 153 cnv 15 80 30 empty empty empty 20 12 0 14 -225271 -66577
0;
#X obj 42 191 + 1;
#X floatatom 42 217 5 0 0 0 - - -;
#X msg 42 159 1;
#X msg 197 159 convert;
#X obj 197 192 symbol;
#X symbolatom 197 220 10 0 0 0 - - -;
#X obj 42 244 bng 15 250 50 0 empty empty empty 0 -6 0 8 -262144 -1
-1;
#X obj 197 247 bng 15 250 50 0 empty empty empty 0 -6 0 8 -262144 -1
-1;
#X obj 331 191 float;
#X obj 388 191 + 1;
#X floatatom 331 219 5 0 0 0 - - -;
#X obj 331 244 bng 15 250 50 0 empty empty empty 0 -6 0 8 -262144 -1
-1;
#X obj 183 425 delay 1000;
#X msg 331 159 bang;
#X text 28 294 Pd is always ready to process messages \, you don't
need to tell it to run. You can keep things moving by sending a stream
of events:;
#X obj 18 70 cnv 15 400 50 empty empty empty 20 17 0 24 -228856 -66577
0;
#X text 34 70 Message processing is driven by events \, nothing happens
if there no events. There is nothing happening in the patches below
until you click on the messages (the bangs at the bottom illustrate
that):;
#X connect 1 0 6 0;
#X connect 2 0 3 0;
#X connect 2 0 4 0;
#X connect 3 0 2 1;
#X connect 4 0 5 0;
#X connect 6 0 2 0;
#X connect 7 0 8 0;
#X connect 8 0 9 0;
#X connect 8 0 10 0;
#X connect 9 0 8 1;
#X connect 10 0 11 0;
#X connect 11 0 27 0;
#X connect 15 0 16 0;
#X connect 16 0 21 0;
#X connect 17 0 15 0;
#X connect 18 0 19 0;
#X connect 19 0 20 0;
#X connect 20 0 22 0;
#X connect 23 0 24 0;
#X connect 23 0 25 0;
#X connect 24 0 23 1;
#X connect 25 0 26 0;
#X connect 27 0 8 0;
#X connect 28 0 23 0;
