#N canvas 348 111 444 648 10;
#X obj 110 394 bng 25 250 50 0 empty empty empty -2 -8 1 10 -24198
-1 -1;
#X obj 110 434 trigger bang bang bang;
#X msg 326 473 1;
#X msg 218 473 2;
#X msg 110 473 3;
#X obj 18 20 cnv 15 400 40 empty empty Right_to_left_order 20 17 0
24 -228856 -66577 0;
#X text 148 393 <-- click here \,;
#X text 89 600 then check the Pd window to see the order;
#X text 33 127 The [trigger] object is used to enforce execution order.
If you need things to run in a certain sequence \, then use a [trigger].
;
#X obj 18 70 cnv 15 400 50 empty empty empty 20 17 0 24 -228856 -66577
0;
#X text 32 78 In Pd \, you read a patch from right to left \, from
top to bottom. Objects also output from right to left;
#X obj 89 202 bng 25 250 50 0 empty empty empty -2 -8 1 10 -258113
-1 -1;
#X msg 305 246 1;
#X msg 197 246 2;
#X msg 89 246 3;
#X text 127 201 <-- click here \,;
#X obj 197 305 print WRONG ORDER;
#X text 267 188 <-- THIS IS WRONG!!;
#X obj 218 549 print RIGHT ORDER;
#X connect 0 0 1 0;
#X connect 1 0 4 0;
#X connect 1 1 3 0;
#X connect 1 2 2 0;
#X connect 2 0 18 0;
#X connect 3 0 18 0;
#X connect 4 0 18 0;
#X connect 11 0 14 0;
#X connect 11 0 13 0;
#X connect 11 0 12 0;
#X connect 12 0 16 0;
#X connect 13 0 16 0;
#X connect 14 0 16 0;
