#N canvas 341 191 438 573 10;
#N canvas 10 40 620 460 object 0;
#X obj 174 99 inlet;
#X obj 174 206 outlet;
#X text 14 39 this object does nothing but pass data thru;
#X connect 0 0 1 0;
#X restore 292 185 pd object;
#N canvas 768 210 628 468 another 0;
#X obj 16 94 inlet;
#X obj 471 382 outlet;
#X obj 16 386 print;
#X msg 16 354 hi from inside [pd another object]!;
#X obj 16 182 trigger bang anything;
#X text 9 28 This object first passes the data thru \, then says hi
in the Pd window.;
#X connect 0 0 4 0;
#X connect 3 0 2 0;
#X connect 4 0 3 0;
#X connect 4 1 1 0;
#X restore 292 231 pd another object;
#X obj 22 23 cnv 15 400 40 empty empty Inlets_and_outlets 20 17 0 24
-228856 -66577 0;
#X text 24 86 When making your own objects \, you can make your own
inlets and outlets \, whether in a subpatch or an abstraction.;
#X msg 260 139 bang;
#X obj 263 280 bng 25 250 50 0 empty empty empty 0 -6 0 8 -262144 -1
-1;
#X obj 24 129 cnv 15 220 180 empty empty empty 20 12 0 14 -233017 -66577
0;
#X obj 37 152 inlet;
#X obj 37 258 outlet;
#X text 92 152 take in data;
#X text 54 202 do some stuff here;
#X text 107 257 output data;
#X msg 318 138 what's in here?;
#X obj 300 278 print;
#N canvas 200 235 644 484 look 0;
#X obj 20 34 inlet;
#X obj 334 33 inlet;
#X obj 528 35 inlet;
#X obj 20 120 trigger bang anything;
#X obj 224 404 outlet;
#X obj 224 266 mapping/tolist;
#X connect 0 0 3 0;
#X connect 1 0 5 0;
#X connect 2 0 5 0;
#X connect 3 0 5 1;
#X connect 3 1 5 0;
#X connect 5 0 4 0;
#X restore 101 487 pd look inside me;
#X obj 101 528 pddp/print_long;
#X msg 101 438 smokin!;
#X msg 183 438 are;
#X msg 265 438 you;
#X obj 22 354 cnv 15 400 50 empty empty empty 20 17 0 24 -228856 -66577
0;
#X text 31 358 The first inlet should be the hot inlet \, even in your
own patches. There are times when you need to make other inlets hot
\, but in general \, its a good rule to stick with.;
#X connect 0 0 1 0;
#X connect 1 0 5 0;
#X connect 1 0 13 0;
#X connect 4 0 0 0;
#X connect 7 0 8 0;
#X connect 12 0 0 0;
#X connect 14 0 15 0;
#X connect 16 0 14 0;
#X connect 17 0 14 1;
#X connect 18 0 14 2;
