#N canvas 0 0 441 477 10;
#X obj 18 -13 cnv 15 400 40 empty empty Selectors 20 17 0 24 -228856
-66577 0;
#N canvas 315 19 620 460 object 0;
#X obj 79 36 inlet;
#X obj 86 270 outlet;
#X obj 308 267 outlet;
#X obj 71 131 route output-left output-right;
#X connect 0 0 3 0;
#X connect 3 0 1 0;
#X connect 3 1 2 0;
#X restore 61 234 pd object;
#X floatatom 61 287 5 0 0 0 - - -;
#X floatatom 146 287 5 0 0 0 - - -;
#X msg 93 188 output-right 309;
#X msg 61 138 output-left 8675;
#X text 32 339 Here's the technical definition:;
#X text 176 136 <-- "output-left" is the selector;
#X text 210 188 <-- "output-right" is the selector;
#X text 32 370 The selector is a symbolic atom \, which is a non-numeric
string with no white space \, semicolons \, or commas. In the case
of messages whose first element is a numeric atom \, the "float" selector
is implied.;
#X obj 18 40 cnv 15 400 50 empty empty empty 20 17 0 24 -228856 -66577
0;
#X text 33 40 Every message has a selector. The selector is the first
element in the message. It tells the object which receives that message
what to do with it. A selector is basically like a command or a function.
;
#X connect 1 0 2 0;
#X connect 1 1 3 0;
#X connect 4 0 1 0;
#X connect 5 0 1 0;
