#N canvas 329 292 449 502 10;
#X obj 20 20 cnv 15 400 40 empty empty Subpatches 20 17 0 24 -228856
-66577 0;
#N canvas 531 104 620 439 what's 0;
#X obj 140 91 loadbang;
#X obj 139 149 float;
#X obj 198 149 + 1;
#X floatatom 139 221 5 0 0 0 - - -;
#X obj 30 149 delay 1000;
#X text 39 39 just counting away in here...;
#X connect 0 0 1 0;
#X connect 1 0 2 0;
#X connect 1 0 3 0;
#X connect 1 0 4 0;
#X connect 2 0 1 1;
#X connect 4 0 1 0;
#X restore 96 163 pd what's in here?;
#X text 172 191 ^-- right-click here and select "Open";
#X obj 20 70 cnv 15 400 50 empty empty empty 20 17 0 24 -228856 -66577
0;
#X text 31 70 Encapsulation is a key concept in Pd programming. Each
object is an idea that is bundled up into an easy-to-use package. You
should make encapsulated your ideas. Subpatches are the easiest way
to do this.;
#X obj 20 260 cnv 15 400 50 empty empty empty 20 17 0 24 -228856 -66577
0;
#X text 32 263 To make a subpatch \, create an object that started
with the word "pd" \, then type anything after that to identify it.
Try making one below:;
#X obj 19 415 cnv 15 400 40 empty empty empty 20 17 0 24 -261234 -66577
0;
#X text 31 420 A subpatch is part of the same file \, its just a way
of organizing the logic of a program.;
