#N canvas 203 146 633 759 10;
#X declare -lib cyclone -lib unauthorized;
#X obj 430 43 import cyclone unauthorized;
#X obj 21 67 cnv 15 600 650 empty empty empty 20 12 0 14 -262131 -66577
0;
#X obj 21 358 cnv 15 400 100 empty empty empty 20 12 0 14 -261696 -66577
0;
#X obj 21 67 cnv 15 400 300 empty empty empty 20 12 0 14 -241657 -66577
0;
#X obj 40 120 bng 15 250 50 0 \$1 \$1 empty 20 8 0 8 -262144 -1 -1
;
#X obj 40 152 tgl 15 1.04858e+006 empty \$2 empty 20 8 0 8 -262144
-1 -1 0 4;
#X obj 44 198 vsl 15 128 0 127 0 1.04858e+006 empty \$3 empty 20 8
0 8 -262144 -1 -1 400 1;
#X obj 201 328 hsl 128 15 0 127 0 0 empty empty empty 20 8 0 8 -262144
-1 -1 0 1;
#X obj 211 299 hdl 15 1 2.6624e+006 8 \$5 \$5 empty 20 8 192 8 -262144
-1 -1 0;
#X obj 264 137 vu 15 120 \$6 empty 35 8 0 8 -66577 -1 1 0;
#X obj 121 119 cnv 15 100 60 empty empty [canvas] 20 12 0 14 -233017
-66577 1.04858e+006;
#X obj 136 199 vdl 15 1 4.79232e+006 8 \$9 \$9 empty 20 8 192 8 -262144
-1 -1 0;
#X obj 351 126 nbx 5 14 -1e+037 1e+037 0 0 \$5 \$5 empty 45 7 0 10
-262144 -1 -1 4 256;
#X text 27 76 Pd comes with a standard \, built-in set of GUI elements
\, which you can select from the "Put" menu.;
#X text 27 366 There are also some OS-native GUI elements available
;
#X obj 59 414 button OK;
#X obj 157 418 popup 124 25 #ffffff popup option;
#X obj 343 414 ticker ;
#X obj 334 539 envgen 200 140 1 0  ;
#X obj 501 464 knob 32 32 0 127 0 0 empty empty empty 0 -8 0 8 -262144
-1 -1 0 1;
#X text 495 438 [knob];
#X text 326 391 [ticker];
#X text 400 515 [envgen];
#X text 459 100 [cyclone/Scope~];
#X text 50 390 [button];
#X text 144 392 [popup];
#X text 260 117 [vu];
#X text 56 119 [bng];
#X text 56 151 [tgl];
#X text 31 330 [vslider];
#X text 335 298 [hradio];
#X text 335 328 [hslider];
#X text 117 327 [vradio];
#X obj 451 122 Scope~ 130 130 256 3 128 -1 1 0 0 0 0 102 255 51 135
135 135 0;
#X text 347 108 [nbx];
#X obj 471 309 gcanvas 80 80;
#X text 482 284 [gcanvas];
#X obj 61 482 grid grid1 200 0 199 200 0 199 1 1 1 10 10 122 596;
#X text 81 463 [unauthorized/grid];
#X floatatom 471 397 5 0 0 0 - - -;
#X floatatom 525 399 5 0 0 0 - - -;
#X obj 20 20 cnv 15 400 40 empty empty GUI_objects 20 17 0 24 -228856
-66577 0;
#X floatatom 254 690 5 0 0 0 - - -;
#X floatatom 61 689 5 0 0 0 - - -;
#X floatatom 501 502 5 0 0 0 - - -;
#X text 432 77 And various others:;
#X connect 19 0 44 0;
#X connect 35 0 39 0;
#X connect 35 1 40 0;
#X connect 37 0 43 0;
#X connect 37 1 42 0;
