#N canvas 0 0 426 400 10;
#X obj 10 20 cnv 15 400 40 empty empty Selecting_events 20 17 0 24
-228856 -66577 0;
#X floatatom 173 114 5 0 0 0 - - -;
#X obj 173 172 bng 15 250 50 0 empty empty empty 0 -6 0 8 -262144 -1
-1;
#X obj 203 173 bng 15 250 50 0 empty empty empty 0 -6 0 8 -262144 -1
-1;
#X obj 173 147 select 2 3 4 5 6 10;
#X obj 234 173 bng 15 250 50 0 empty empty empty 0 -6 0 8 -262144 -1
-1;
#X obj 265 173 bng 15 250 50 0 empty empty empty 0 -6 0 8 -262144 -1
-1;
#X obj 296 173 bng 15 250 50 0 empty empty empty 0 -6 0 8 -262144 -1
-1;
#X obj 327 173 bng 15 250 50 0 empty empty empty 0 -6 0 8 -262144 -1
-1;
#X floatatom 358 173 5 0 0 0 - - -;
#X obj 166 338 print NO_match;
#X obj 37 339 bng 15 250 50 0 empty empty empty 0 -6 0 8 -262144 -1
-1;
#X obj 69 339 bng 15 250 50 0 empty empty empty 0 -6 0 8 -262144 -1
-1;
#X obj 101 339 bng 15 250 50 0 empty empty empty 0 -6 0 8 -262144 -1
-1;
#X obj 133 339 bng 15 250 50 0 empty empty empty 0 -6 0 8 -262144 -1
-1;
#X msg 37 101 symbol dog;
#X msg 45 130 symbol cat;
#X msg 53 158 symbol foo;
#X msg 60 187 symbol earth;
#X msg 69 218 symbol 400;
#X obj 37 313 select dog cat foo 400;
#X msg 65 259 400;
#X text 117 275 FIRST CREATION ARGUMENT IS A SYMBOL;
#X connect 1 0 4 0;
#X connect 4 0 2 0;
#X connect 4 1 3 0;
#X connect 4 2 5 0;
#X connect 4 3 6 0;
#X connect 4 4 7 0;
#X connect 4 5 8 0;
#X connect 4 6 9 0;
#X connect 15 0 20 0;
#X connect 16 0 20 0;
#X connect 17 0 20 0;
#X connect 18 0 20 0;
#X connect 19 0 20 0;
#X connect 20 0 11 0;
#X connect 20 1 12 0;
#X connect 20 2 13 0;
#X connect 20 3 14 0;
#X connect 20 4 10 0;
#X connect 21 0 20 0;
