#N canvas 0 0 922 604 10;
#X obj 60 286 +;
#X floatatom 60 212 0 0 0 0 - - -;
#X floatatom 60 307 0 0 0 0 - - -;
#X floatatom 75 235 0 0 0 0 - - -;
#X msg 92 262 bang;
#X text 126 262 Bang outputs sum;
#X text 98 211 Numbers in left inlet add and output sum;
#X text 115 234 Numbers in right inlet only change the inlet's value
;
#X text 36 152 The example below performs basic addition with two numbers:
i.e. a + b = c;
#X text 41 361 The example below incorporates a creation argument:
i.e. a + 42 = b;
#X floatatom 61 398 0 0 0 0 - - -;
#X floatatom 61 441 0 0 0 0 - - -;
#X obj 61 420 + 42;
#N canvas 38 134 641 245 basic_examples 0;
#X obj 44 129 +;
#X obj 113 129 -;
#X obj 179 129 *;
#X obj 244 129 /;
#X obj 316 129 pow;
#X obj 394 129 max;
#X obj 482 129 min;
#X floatatom 44 32 5 0 0 0 - - -;
#X floatatom 44 150 0 0 0 0 - - -;
#X floatatom 113 149 0 0 0 0 - - -;
#X floatatom 179 149 0 0 0 0 - - -;
#X floatatom 244 149 0 0 0 0 - - -;
#X floatatom 316 149 0 0 0 0 - - -;
#X floatatom 394 150 0 0 0 0 - - -;
#X floatatom 482 149 0 0 0 0 - - -;
#X floatatom 495 32 5 0 0 0 - - -;
#X msg 360 32 bang;
#X connect 0 0 8 0;
#X connect 1 0 9 0;
#X connect 2 0 10 0;
#X connect 3 0 11 0;
#X connect 4 0 12 0;
#X connect 5 0 13 0;
#X connect 6 0 14 0;
#X connect 7 0 0 0;
#X connect 7 0 1 0;
#X connect 7 0 2 0;
#X connect 7 0 3 0;
#X connect 7 0 4 0;
#X connect 7 0 5 0;
#X connect 7 0 6 0;
#X connect 15 0 6 1;
#X connect 15 0 5 1;
#X connect 15 0 4 1;
#X connect 15 0 3 1;
#X connect 15 0 2 1;
#X connect 15 0 1 1;
#X connect 15 0 0 1;
#X connect 16 0 0 0;
#X connect 16 0 1 0;
#X connect 16 0 2 0;
#X connect 16 0 3 0;
#X connect 16 0 4 0;
#X connect 16 0 5 0;
#X connect 16 0 6 0;
#X restore 47 555 pd basic_examples;
#X text 46 489 However \, [pow] \, [max] \, and [min] objects may need
some explanation.;
#N canvas 0 22 456 306 understanding_POW 0;
#X text 12 25 [POW];
#X obj 17 66 pow 2;
#X floatatom 17 86 2 0 0 0 - - -;
#X msg 17 46 2;
#X text 61 115 - it is important to note that [pow] only works with
NON-negative mantissas. That is to say that negative floating point
fractions will be ignored.;
#X obj 18 153 pow 2;
#X floatatom 18 173 2 0 0 0 - - -;
#X msg 13 111 -2;
#X msg 24 132 -1.5;
#X text 65 202 - however \, [pow] is capable of computing negative
exponents!;
#X floatatom 19 201 0 0 0 0 - - -;
#X obj 19 221 pow -2;
#X floatatom 19 242 0 0 0 0 - - -;
#X text 57 39 - this object is used to exponentiate a number. The object
returns the value at the left inlet to the power of the right inlet
where the left inlet is the base and the right inlet is the exponent.
For example: 2 to the power of 2 = 4 (i.e. 2 Squared);
#X connect 1 0 2 0;
#X connect 3 0 1 0;
#X connect 5 0 6 0;
#X connect 7 0 5 0;
#X connect 8 0 5 0;
#X connect 10 0 11 0;
#X connect 11 0 12 0;
#X restore 48 525 pd understanding_POW;
#N canvas 0 22 478 345 understanding_MAX_and_MIN 0;
#X text 34 9 [MAX];
#X obj 32 51 max 10;
#X floatatom 32 29 5 0 0 0 - - -;
#X floatatom 32 76 5 0 0 0 - - -;
#X text 87 26 - [max] returns the greater of the two numbers passed
to its inlets. For example \, if the creation argument (or right inlet)
is equal to 10 \, and you send 9 to the left inlet then the object
will return 10 If you pass it an 11 \, then object returns 11;
#X floatatom 33 116 5 0 0 0 - - -;
#X floatatom 33 163 5 0 0 0 - - -;
#X text 35 96 [MIN];
#X text 88 113 - [min] returns the lesser of the two numbers passed
to its inlets. For example \, if the creation argument (or right inlet)
is equal to 10 \, and you send 9 to the left inlet then the object
will return 9 If you pass it an 11 \, then object returns 10;
#X obj 33 138 min 10;
#X text 32 185 - It is important to note that [max] and [min] output
a number with every number or "bang" that is sent to the left inlet.
;
#X floatatom 35 234 5 0 0 0 - - -;
#X floatatom 35 282 5 0 0 0 - - -;
#X obj 35 256 min 10;
#X obj 76 281 bng 15 50 10 0 empty empty empty 0 -6 0 8 -262144 -1
-1;
#X text 80 232 Move this number box above 10;
#X connect 1 0 3 0;
#X connect 2 0 1 0;
#X connect 5 0 9 0;
#X connect 9 0 6 0;
#X connect 11 0 13 0;
#X connect 13 0 12 0;
#X connect 13 0 14 0;
#X restore 190 525 pd understanding_MAX_and_MIN;
#X msg 565 74 bang;
#X obj 565 139 random 10;
#X obj 627 138 random 10;
#X obj 689 137 random 10;
#X text 593 158 a;
#X text 655 159 b;
#X text 718 159 c;
#X text 596 224 d;
#X floatatom 565 224 0 0 0 0 - - -;
#X obj 565 95 t b b b;
#X obj 565 181 +;
#X obj 565 202 +;
#X floatatom 565 159 0 0 0 0 - - -;
#X floatatom 627 159 0 0 0 0 - - -;
#X floatatom 689 159 0 0 0 0 - - -;
#N canvas 181 122 454 304 related_objects_from_other_libraries 0;
#X obj 37 25 vector+;
#X obj 37 45 vector-;
#X obj 37 65 vector*;
#X obj 85 25 vector/;
#X obj 85 45 rgb2hsv;
#X obj 85 65 hsv2rgb;
#X obj 133 25 abs~;
#X obj 133 45 db2v;
#X obj 133 65 v2db;
#X obj 163 25 avg~;
#X obj 164 45 tavg~;
#X obj 164 65 pdf~;
#X obj 201 24 <~;
#X obj 201 45 ==~;
#X obj 201 67 >~;
#X obj 228 25 &&~;
#X obj 228 46 ||~;
#X obj 228 67 matrix~;
#X obj 280 25 mavg;
#X obj 280 46 mean;
#X obj 280 68 divide;
#X obj 323 27 divmod;
#X obj 324 47 minus;
#X obj 324 67 plus;
#X text 29 104 These objects are offered in Pd only if you have downloaded
and properly installed the appropriate library. These objects may or
may not exist in a single library.;
#X text 28 153 The best places to find information about Pd's libraries
is:;
#X text 25 175 www.puredata.org and click on "Downloads" then "Software"
;
#X text 27 190 or;
#X text 27 205 iem.kug.ac.at/pdb/;
#X obj 370 27 q8_rsqrt~;
#X obj 370 51 q8_sqrt~;
#X restore 628 556 pd related_objects_from_other_libraries;
#X obj 29 28 cnv 15 400 40 empty empty Math 20 17 0 24 -228856 -66577
0;
#X obj 30 80 cnv 15 400 50 empty empty empty 20 17 0 24 -228856 -66577
0;
#X text 38 101 Pd's arithmetic objects include:;
#X obj 239 102 +;
#X obj 264 102 -;
#X obj 290 102 *;
#X obj 316 102 /;
#X obj 342 102 pow;
#X obj 367 102 max;
#X obj 393 102 min;
#X text 38 81 ARITHMETIC;
#X obj 489 28 cnv 15 400 30 empty empty empty 20 17 0 24 -228856 -66577
0;
#X text 499 34 THE SUM OF MANY NUMBERS;
#X obj 490 270 cnv 15 400 30 empty empty empty 20 17 0 24 -228856 -66577
0;
#X text 501 277 RELATED OBJECTS;
#X obj 490 309 cnv 15 400 30 empty empty empty 20 17 0 24 -228856 -66577
0;
#X obj 628 315 +~;
#X obj 657 315 -~;
#X obj 686 315 *~;
#X obj 714 315 /~;
#X obj 742 315 max~;
#X obj 772 315 min~;
#X text 555 316 Audio Math;
#X obj 491 343 cnv 15 400 30 empty empty empty 20 17 0 24 -228856 -66577
0;
#X obj 491 377 cnv 15 400 30 empty empty empty 20 17 0 24 -228856 -66577
0;
#X obj 491 411 cnv 15 400 30 empty empty empty 20 17 0 24 -228856 -66577
0;
#X obj 491 446 cnv 15 400 30 empty empty empty 20 17 0 24 -228856 -66577
0;
#X obj 627 349 ==;
#X obj 685 349 >;
#X obj 741 349 <;
#X obj 713 349 >=;
#X obj 771 348 <=;
#X obj 657 349 !=;
#X text 522 350 Relational Tests;
#X text 514 381 Logical Operators;
#X obj 628 382 &;
#X obj 657 382 |;
#X obj 685 382 &&;
#X obj 713 382 ||;
#X obj 741 382 <<;
#X obj 771 382 >>;
#X obj 629 418 mtof;
#X obj 660 418 ftom;
#X obj 691 418 powtodb;
#X obj 741 418 rmstodb;
#X obj 791 418 dbtopow;
#X obj 841 418 dbtorms;
#X text 551 453 Higher Math;
#X obj 798 349 mod;
#X obj 825 349 div;
#X obj 629 452 sin;
#X obj 655 452 cos;
#X obj 682 452 tan;
#X obj 709 452 atan;
#X obj 799 382 %;
#X obj 742 452 pow;
#X text 494 418 Acoustic Unit Convers.;
#X obj 491 473 cnv 15 400 30 empty empty empty 20 17 0 24 -228856 -66577
0;
#X obj 491 508 cnv 15 400 30 empty empty empty 20 17 0 24 -228856 -66577
0;
#X obj 630 514 trigger;
#X obj 684 514 expr;
#X obj 628 478 atan2;
#X obj 720 514 random;
#X obj 666 478 sqrt;
#X obj 697 478 log;
#X obj 723 478 exp;
#X obj 749 478 abs;
#X text 584 514 Other;
#X obj 767 514 f;
#X obj 795 514 int;
#X connect 0 0 2 0;
#X connect 1 0 0 0;
#X connect 3 0 0 1;
#X connect 4 0 0 0;
#X connect 10 0 12 0;
#X connect 12 0 11 0;
#X connect 17 0 26 0;
#X connect 18 0 29 0;
#X connect 19 0 30 0;
#X connect 20 0 31 0;
#X connect 26 0 18 0;
#X connect 26 1 19 0;
#X connect 26 2 20 0;
#X connect 27 0 28 0;
#X connect 28 0 25 0;
#X connect 29 0 27 0;
#X connect 30 0 27 1;
#X connect 31 0 28 1;
