#N canvas 467 243 439 343 10;
#X text 29 80 float values are automatically initialized to 0 in Pd.
;
#X obj 251 213 +;
#X obj 134 205 *;
#X obj 39 178 float;
#X obj 349 178 trigger f;
#X obj 197 110 bng 15 250 50 0 empty empty reset 0 -6 0 8 -262144 -1
-1;
#X obj 251 253 prepend set;
#X obj 134 253 prepend set;
#X obj 39 252 prepend set;
#X obj 349 252 prepend set;
#X msg 251 190 bang;
#X msg 134 181 bang;
#X msg 39 141 bang;
#X msg 349 141 bang;
#X obj 20 23 cnv 15 400 40 empty empty init_to_0 20 17 0 24 -228856
-66577 0;
#X msg 39 278 0;
#X msg 134 279 0;
#X msg 251 279 0;
#X msg 349 278 0;
#X connect 1 0 6 0;
#X connect 2 0 7 0;
#X connect 3 0 8 0;
#X connect 4 0 9 0;
#X connect 5 0 6 0;
#X connect 5 0 7 0;
#X connect 5 0 8 0;
#X connect 5 0 9 0;
#X connect 6 0 17 0;
#X connect 7 0 16 0;
#X connect 8 0 15 0;
#X connect 9 0 18 0;
#X connect 10 0 1 0;
#X connect 11 0 2 0;
#X connect 12 0 3 0;
#X connect 13 0 4 0;
