#N canvas 0 0 451 370 10;
#X obj 20 20 cnv 15 400 40 empty empty Using_lists 20 17 0 24 -228856
-66577 0;
#X msg 55 97 300 240 1;
#X floatatom 55 171 5 0 0 0 - - -;
#X floatatom 125 171 5 0 0 0 - - -;
#X floatatom 196 171 5 0 0 0 - - -;
#X obj 55 132 unpack float float float;
#X msg 56 249 1 1;
#X obj 56 276 +;
#X floatatom 56 306 5 0 0 0 - - -;
#X text 134 95 <-- this is a list;
#X text 93 248 <-- this is a list;
#X connect 1 0 5 0;
#X connect 5 0 2 0;
#X connect 5 1 3 0;
#X connect 5 2 4 0;
#X connect 6 0 7 0;
#X connect 7 0 8 0;
