#N canvas 610 305 519 349 10;
#X declare -lib cyclone;
#X obj -115 20 import cyclone;
#X obj -172 249 *~;
#X obj -155 222 tgl 15 0 empty empty empty 0 -6 0 8 -24198 -1 -1 0
1;
#X obj -172 191 osc~ 500;
#X obj -184 293 dac~;
#X msg -176 147 250;
#X msg -141 148 500;
#X msg -208 147 125;
#X obj 24 12 pddp/dsp;
#X obj -399 10 cnv 15 400 40 empty empty Audio_data 20 17 0 24 -228856
-66577 0;
#X text -333 270 audio (thick cord) -->;
#X text -359 169 messages (thin cord) -->;
#X obj -399 60 cnv 15 400 40 empty empty empty 20 17 0 24 -228856 -66577
0;
#X text -388 65 For audio \, pd has a specific data type. Audio objects
all have a trailing tilde ("~"). Audio chords are thick.;
#X connect 1 0 4 0;
#X connect 1 0 4 1;
#X connect 2 0 1 1;
#X connect 3 0 1 0;
#X connect 5 0 3 0;
#X connect 6 0 3 0;
#X connect 7 0 3 0;
