#N canvas 490 22 579 433 10;
#X declare -lib rradical;
#X obj 447 45 import rradical;
#X obj 445 14 pddp/dsp;
#X obj 11 8 cnv 15 400 40 empty empty Reverb 20 17 0 24 -228856 -66577
0;
#X obj 120 352 ezdac~;
#X obj 147 289 rev1~;
#X msg 178 264 bang;
#X text 218 264 to reset;
#X obj 165 213 hsl 150 20 0 100 0 0 empty empty decay(0-100) 8 10 1
12 -262144 -1 -1 0 1;
#X floatatom 175 242 5 0 0 0 - - -;
#X obj 61 80 cnv 15 150 90 empty empty empty 20 17 0 24 -228856 -66577
0;
#X obj 67 134 readsf~;
#X obj 97 93 bng 15 250 50 0 empty empty empty 0 -6 0 8 -24198 -1 -1
;
#X obj 138 134 bng 15 250 50 0 empty empty empty 0 -6 0 8 -262144 -1
-1;
#X msg 66 111 0;
#X obj 66 93 bng 15 250 50 0 empty empty empty 0 -6 0 8 -258699 -1
-1;
#X msg 97 111 open voice.wav \, 1;
#X text 224 111 <-- sample loop player;
#X connect 4 0 3 0;
#X connect 4 0 3 1;
#X connect 5 0 4 2;
#X connect 7 0 4 1;
#X connect 7 0 8 0;
#X connect 10 0 4 0;
#X connect 10 1 12 0;
#X connect 11 0 15 0;
#X connect 12 0 15 0;
#X connect 13 0 10 0;
#X connect 14 0 13 0;
#X connect 15 0 10 0;
