#N canvas 554 285 608 520 10;
#X declare -lib rradical -lib creb;
#X obj 436 10 pddp/dsp;
#X obj 10 7 cnv 15 400 40 empty empty Feedback_delay_network 20 17
0 24 -228856 -66577 0;
#X obj 276 418 ezdac~;
#X obj 25 150 noise~;
#X obj 25 209 *~;
#X obj 41 190 tgl 15 0 empty empty empty 0 -6 0 8 -24198 -1 -1 0 1
;
#X obj 275 386 fdn~ 64 40000;
#X obj 55 231 +~;
#X obj 100 190 readsf~;
#X obj 130 149 bng 15 250 50 0 empty empty empty 0 -6 0 8 -24198 -1
-1;
#X msg 384 310 exponential 32 10 5000;
#X msg 387 197 linear 8 75 100;
#X msg 387 174 linear 32 50 2175;
#X msg 386 357 exponential 8 50 175;
#X msg 384 334 exponential 64 1000 10;
#X obj 171 190 bng 15 250 50 0 empty empty empty 0 -6 0 8 -262144 -1
-1;
#X msg 99 167 0;
#X obj 99 149 bng 15 250 50 0 empty empty empty 0 -6 0 8 -258699 -1
-1;
#X msg 233 308 reset;
#X obj 436 42 import rradical creb;
#X text 331 149 try clicking different parameters sets:;
#X msg 387 221 linear 32 100 105;
#X msg 386 244 linear 64 10 15;
#X obj 25 170 lop~ 1000;
#X msg 386 265 linear 8 1 5;
#X msg 386 285 linear 64 4 5;
#X msg 130 167 open voice.wav \, 1;
#X obj 10 57 cnv 15 400 40 empty empty empty 20 17 0 24 -228856 -66577
0;
#X text 24 55 Feedback delay networks were originally introduced to
Pd for creating reverberation. But they also have a lot of possibilities
when you abuse them:;
#X obj 24 353 cnv 15 180 40 empty empty empty 20 12 0 14 -261234 -66577
0;
#X text 30 364 WATCH OUT! THIS GETS LOUD!;
#X connect 3 0 23 0;
#X connect 4 0 7 0;
#X connect 5 0 4 1;
#X connect 6 0 2 0;
#X connect 6 1 2 1;
#X connect 7 0 6 0;
#X connect 8 0 7 1;
#X connect 8 1 15 0;
#X connect 9 0 26 0;
#X connect 10 0 6 0;
#X connect 11 0 6 0;
#X connect 12 0 6 0;
#X connect 13 0 6 0;
#X connect 14 0 6 0;
#X connect 15 0 26 0;
#X connect 16 0 8 0;
#X connect 17 0 16 0;
#X connect 18 0 6 0;
#X connect 21 0 6 0;
#X connect 22 0 6 0;
#X connect 23 0 4 0;
#X connect 24 0 6 0;
#X connect 25 0 6 0;
#X connect 26 0 8 0;
