#N canvas 578 132 581 663 10;
#X obj 43 229 +~;
#X obj 43 161 +~;
#X obj 198 156 +~;
#X obj 198 103 osc~ 440;
#X obj 43 108 osc~ 330;
#X obj 64 132 osc~ 330.2;
#X obj 219 126 osc~ 440.33;
#X obj 353 153 +~;
#X obj 354 103 osc~ 587;
#X obj 375 126 osc~ 587.25;
#X obj 44 198 +~;
#X obj 31 11 cnv 15 400 40 empty empty Beating 20 17 0 24 -228856 -66577
0;
#X text 55 60 Beating between closely tuned sinusoids;
#X obj 43 264 ezdac~;
#X obj 31 358 cnv 15 400 100 empty empty empty 20 17 0 24 -228856 -66577
0;
#X text 49 360 In each of the three pairs of oscillators above \, the
two frequencies are within 1/3 Hz or closer (for example \, the leftmost
ones are close to 330 Hz but separated by 1/5 Hz.) The result is a
gradual change in amplitude as the phases of the two slip against each
other. This is called beating. More complex beating pattenrs may be
made by using three or more oscillators. Also their amplitudes need
not be equal (as they are here).;
#X obj 31 468 cnv 15 400 80 empty empty empty 20 17 0 24 -228856 -66577
0;
#X text 50 477 They are all summed using "+~" boxes. They could have
been summed in any order ("+~" is commutative for practical purposes)
but here they are added in pairs to emphasize the relationships between
them.;
#X obj 445 14 pddp/dsp;
#X connect 0 0 13 0;
#X connect 0 0 13 1;
#X connect 1 0 10 0;
#X connect 2 0 10 1;
#X connect 3 0 2 0;
#X connect 4 0 1 0;
#X connect 5 0 1 1;
#X connect 6 0 2 1;
#X connect 7 0 0 1;
#X connect 8 0 7 0;
#X connect 9 0 7 1;
#X connect 10 0 0 0;
