#N canvas 0 22 688 546 10;
#X obj 89 46 noise~;
#X obj 174 322 dac~;
#X obj 191 264 *~ 0.05;
#X obj 439 24 pddp/dsp;
#X obj 260 102 hip~;
#X text 342 163 low pass;
#X text 337 103 high pass;
#X obj 263 77 hsl 128 15 1000 20000 0 0 empty empty empty -2 -8 0 10
-262144 -1 -1 12700 1;
#X obj 262 140 hsl 128 15 20 440 0 0 empty empty empty -2 -8 0 10 -262144
-1 -1 4100 1;
#X obj 300 188 hsl 128 15 20 1080 0 0 empty empty empty -2 -8 0 10
-262144 -1 -1 10500 1;
#X obj 397 251 vsl 15 128 0 1 0 0 empty empty [volume] 0 -9 0 10 -262144
-1 -1 12700 1;
#X obj 260 162 lop~ 200;
#X obj 262 232 bp~ 200 100;
#X obj 308 210 hsl 128 15 50 1080 0 0 empty empty empty -2 -8 0 10
-262144 -1 -1 12700 1;
#X floatatom 494 187 5 0 0 0 freq - -;
#X floatatom 496 211 5 0 0 0 bandwith - -;
#X connect 0 0 12 0;
#X connect 2 0 1 0;
#X connect 2 0 1 1;
#X connect 4 0 2 0;
#X connect 7 0 4 1;
#X connect 8 0 11 1;
#X connect 9 0 12 1;
#X connect 9 0 14 0;
#X connect 10 0 2 1;
#X connect 11 0 2 0;
#X connect 12 0 2 0;
#X connect 13 0 12 2;
#X connect 13 0 15 0;
