#N canvas 660 26 623 573 10;
#X msg 38 44 create;
#X obj 184 133 pix_film;
#X msg 194 66 gemhead 2;
#X msg 269 67 open \$1;
#X obj 265 16 openpanel;
#X obj 269 -17 bng 15 250 50 0 empty empty empty 17 7 0 10 -262144
-1 -1;
#X obj 241 198 pix_mix 0;
#X msg 127 65 auto \$1;
#X obj 126 22 tgl 15 0 empty empty empty 17 7 0 10 -262144 -1 -1 1
1;
#X obj 244 242 pix_texture;
#X obj 425 133 pix_film;
#X msg 510 67 open \$1;
#X obj 506 16 openpanel;
#X obj 510 -17 bng 15 250 50 0 empty empty empty 17 7 0 10 -262144
-1 -1;
#X msg 368 65 auto \$1;
#X obj 367 22 tgl 15 0 empty empty empty 17 7 0 10 -262144 -1 -1 0
1;
#X msg 435 66 gemhead 3;
#X obj 265 132 hsl 128 15 0.01 1 0 0 empty empty empty -2 -8 0 10 -262144
-1 -1 0 1;
#X msg 22 6 destroy;
#X obj 7 95 tgl 15 0 empty empty empty 17 7 0 10 -262144 -1 -1 1 1
;
#X floatatom 351 285 5 0 0 0 - - -;
#X floatatom 350 233 5 0 0 0 - - -;
#X obj 248 301 rectangle;
#X obj 41 136 gemwin;
#X msg 62 106 dimen 320 240;
#X connect 0 0 23 0;
#X connect 1 0 6 0;
#X connect 2 0 1 0;
#X connect 3 0 1 0;
#X connect 4 0 3 0;
#X connect 5 0 4 0;
#X connect 6 0 9 0;
#X connect 7 0 1 0;
#X connect 8 0 7 0;
#X connect 9 0 22 0;
#X connect 10 0 6 1;
#X connect 11 0 10 0;
#X connect 12 0 11 0;
#X connect 13 0 12 0;
#X connect 14 0 10 0;
#X connect 15 0 14 0;
#X connect 16 0 10 0;
#X connect 17 0 6 2;
#X connect 18 0 23 0;
#X connect 19 0 23 0;
#X connect 20 0 22 2;
#X connect 21 0 22 1;
#X connect 24 0 23 0;
