#N canvas 308 287 609 399 10;
#X obj 261 -13 cnv 15 240 301 empty empty patterns 180 290 0 10 -99865
-262144 0;
#X obj 288 -9 cnv 15 126 48 empty empty empty 20 12 0 14 -125535 -66577
0;
#X obj 288 141 cnv 15 126 48 empty empty empty 20 12 0 14 -125535 -66577
0;
#X obj 288 275 hsl 128 12 1 100 0 0 \$0-randomRecAmp \$0-randomRecAmpr
empty -2 -6 0 8 -257985 -262144 -1 5800 0;
#X obj 417 7 bng 12 250 50 0 \$0-clearTab1 \$0-clearTab1r empty 0 -6
0 8 -202265 -262144 -1;
#X obj 417 57 bng 12 250 50 0 \$0-clearTab2 \$0-clearTab2r empty 0
-6 0 8 -202265 -262144 -1;
#X obj 417 107 bng 12 250 50 0 \$0-clearTab3 \$0-clearTab3r empty 0
-6 0 8 -202265 -262144 -1;
#X obj 417 157 bng 12 250 50 0 \$0-clearTab4 \$0-clearTab4r empty 0
-6 0 8 -202265 -262144 -1;
#X obj 417 40 tgl 15 0 \$0-recTab2 \$0-recTab2r empty 0 -6 0 8 -137951
-262144 -1 0 1;
#X obj 417 -10 tgl 15 0 \$0-recTab1 \$0-recTab1r empty 0 -6 0 8 -137951
-262144 -1 0 1;
#X obj 417 90 tgl 15 0 \$0-recTab3 \$0-recTab3r empty 0 -6 0 8 -137951
-262144 -1 0 1;
#X obj 417 140 tgl 15 0 \$0-recTab4 \$0-recTab4r empty 0 -6 0 8 -137951
-262144 -1 0 1;
#X obj 417 71 bng 12 250 50 0 \$0-rndTab2 \$0-rndTab2r empty 0 -6 0
8 -104304 -262144 -1;
#X obj 417 21 bng 12 250 50 0 \$0-rndTab1 \$0-rndTab1r empty 0 -6 0
8 -104304 -262144 -1;
#X obj 417 121 bng 12 250 50 0 \$0-rndTab3 \$0-rndTab3r empty 0 -6
0 8 -104304 -262144 -1;
#X obj 417 171 bng 12 250 50 0 \$0-rndTab4 \$0-rndTab4r empty 0 -6
0 8 -104304 -262144 -1;
#X obj 431 21 bng 12 250 50 0 \$0-rnd2Tab1 \$0-rnd2Tab1r empty 0 -6
0 8 -158261 -262144 -1;
#X obj 431 71 bng 12 250 50 0 \$0-rnd2Tab2 \$0-rnd2Tab2r empty 0 -6
0 8 -158261 -262144 -1;
#X obj 431 121 bng 12 250 50 0 \$0-rnd2Tab3 \$0-rnd2Tab3r empty 0 -6
0 8 -158261 -262144 -1;
#X obj 431 171 bng 12 250 50 0 \$0-rnd2Tab4 \$0-rnd2Tab4r empty 0 -6
0 8 -158261 -262144 -1;
#X obj 431 7 bng 12 250 50 0 \$0-clear2Tab1 \$0-clear2Tab1r empty 0
-6 0 8 -223720 -262144 -1;
#X obj 431 57 bng 12 250 50 0 \$0-clear2Tab2 \$0-clear2Tab2r empty
0 -6 0 8 -223720 -262144 -1;
#X obj 431 107 bng 12 250 50 0 \$0-clear2Tab3 \$0-clear2Tab3r empty
0 -6 0 8 -223720 -262144 -1;
#X obj 431 157 bng 12 250 50 0 \$0-clear2Tab4 \$0-clear2Tab4r empty
0 -6 0 8 -223720 -262144 -1;
#X obj 285 257 hradio 13 1 0 4 \$0-seekwMaxPreset \$0-seekwMaxPresetr
empty 0 -6 0 8 -99865 -262144 -1 2;
#X obj 339 257 nbx 5 13 1 64 0 0 \$0-seekwMaxDisp \$0-seekwMaxDispr
empty 0 -7 1 7 -99865 -262144 -1 32 256;
#X obj 288 141 cnv 2 62 48 empty \$0-tabRegion4r empty 20 12 0 14 -204210
-66577 0;
#X obj 288 -9 cnv 2 62 48 empty \$0-tabRegion1r empty 20 12 0 14 -204210
-66577 0;
#X obj 288 41 cnv 15 126 48 empty empty empty 20 12 0 14 -125535 -66577
0;
#X obj 288 91 cnv 15 126 48 empty empty empty 20 12 0 14 -125535 -66577
0;
#X obj 288 41 cnv 2 62 48 empty \$0-tabRegion2r empty 20 12 0 14 -204210
-66577 0;
#X obj 288 91 cnv 2 62 48 empty \$0-tabRegion3r empty 20 12 0 14 -204210
-66577 0;
#X obj 288 249 hsl 128 8 1 64 0 0 \$0-seekwDisp \$0-seekwDispr empty
-2 -6 0 8 -141393 -262144 -1 0 0;
#X obj 264 249 tgl 21 0 \$0-showSeekw \$0-showSeekwr empty 0 -6 0 8
-149764 -262144 -1 0 1;
#N canvas 0 22 454 304 (subpatch) 0;
#X array \$0-1 64 float 3;
#A 0 0.34 0.15 0.12 0.34 0.42 0.45 0.38 0.4 0.19 0.18 0.15 0.16 0.24
0.37 0.02 0.03 0.43 0.14 0.36 0.4 0.16 0.16 0.43 0.41 0.39 0.32 0.21
0.31 0.23 0.03 0.41 0.22 0.36 0.36 0.11 0.21 0.01 0.32 0.02 0.01 0.44
0.35 0.17 0.41 0.1 0.38 0.35 0.22 0.34 0.17 0.09 0.01 0.15 0.12 0.06
0.42 0.03 0.19 0.2 0.38 0.39 0.28 0.19 0.02;
#X coords 0 1.1 63 -0.1 128 50 1;
#X restore 287 -10 graph;
#N canvas 0 22 454 304 (subpatch) 0;
#X array \$0-2 64 float 3;
#A 0 0.09 0.26 0.04 0.18 0 0.28 0.33 0.19 0.09 0.41 0.01 0.06 0.06
0.08 0.45 0.23 0.45 0.1 0.23 0.36 0.03 0.24 0.11 0.3 0.21 0.02 0.33
0.24 0.15 0.44 0.1 0.36 0.26 0.18 0.39 0.43 0.1 0.04 0.2 0.45 0.43
0.13 0.26 0.24 0.22 0.14 0.27 0.01 0.1 0.16 0.23 0.07 0.29 0.12 0.03
0.38 0.32 0.1 0.33 0.29 0.25 0.2 0.25 0.43;
#X coords 0 1.1 63 -0.1 128 50 1;
#X restore 287 40 graph;
#N canvas 0 22 450 300 (subpatch) 0;
#X array \$0-3 64 float 3;
#A 0 0.3 0.05 0.08 0.4 0.23 0.39 0.03 0.44 0.22 0.34 0.24 0.02 0.12
0.2 0.41 0.06 0.24 0.35 0.35 0.27 0.18 0.25 0.32 0.29 0.42 0.16 0.15
0.16 0.26 0.08 0.19 0.05 0.37 0.11 0.29 0.3 0.19 0.3 0.35 0.18 0.02
0.11 0.24 0.31 0.36 0.05 0.31 0.44 0.23 0.29 0.4 0.03 0.21 0.43 0.35
0.19 0.32 0.36 0.44 0.14 0.25 0.12 0.42 0.04;
#X coords 0 1.1 63 -0.1 128 50 1;
#X restore 287 90 graph;
#N canvas 0 22 450 300 (subpatch) 0;
#X array \$0-4 64 float 3;
#A 0 0.42 0.09 0.37 0.3 0.1 0.37 0.31 0.35 0.45 0.03 0.24 0.36 0.07
0.22 0.08 0.29 0.43 0.43 0.35 0.44 0.1 0.29 0.38 0.17 0.05 0.33 0.08
0.34 0.18 0.01 0.4 0.15 0.44 0.4 0.15 0.07 0.19 0.32 0.09 0.03 0.21
0.41 0.17 0.06 0.2 0.21 0.45 0.35 0.35 0.37 0.16 0.01 0.2 0.19 0.01
0.36 0.25 0.31 0.35 0.02 0.34 0.22 0.21 0.05;
#X coords 0 1.1 63 -0.1 128 50 1;
#X restore 287 140 graph;
#X obj 115 -13 cnv 15 40 301 empty empty mix 2 4 0 10 -128992 -262144
0;
#X obj 120 24 vsl 14 90 0 1 0 0 \$0-bddLvl \$0-bddLvlr b1 3 5 1 9 -163777
-1 -1 0 0;
#X obj 120 136 vsl 14 90 0 0.4 0 0 \$0-3Lvl \$0-3Lvlr sn 2 5 1 7 -163777
-1 -1 0 0;
#X obj 137 136 vsl 14 90 0 0.5 0 0 \$0-1Lvl \$0-1Lvlr hh 2 5 1 7 -163777
-1 -1 0 0;
#X obj 137 24 vsl 14 90 0 3 0 0 \$0-bdLvl \$0-bdLvlr b2 3 5 1 9 -163777
-1 -1 0 0;
#X obj 120 117 tgl 14 0 \$0-bddOn \$0-bddOnr empty 0 -6 0 8 -63694
-262144 -1 1 1;
#X obj 137 229 tgl 14 0 \$0-hhOn \$0-hhOnr empty 0 -6 0 8 -63694 -262144
-1 1 1;
#X obj 120 229 tgl 14 0 \$0-snOn \$0-snOnr empty 0 -6 0 8 -63694 -262144
-1 1 1;
#X obj 137 117 tgl 14 0 \$0-bd2On \$0-bd2Onr empty 0 -6 0 8 -63694
-262144 -1 1 1;
#X obj 288 240 hsl 128 9 1 64 0 0 \$0-seekStepSlider \$0-seekStepSliderr
empty -2 -6 0 8 -260097 -262144 -1 0 0;
#X obj 434 -10 hradio 10 1 0 6 \$0-tab1Store \$0-tab1Storer empty 0
-6 0 10 -187295 -1 -1 0;
#X obj 474 2 bng 12 250 50 0 \$0-tab1Load \$0-tab1Loadr empty 0 -6
0 10 -146007 -262144 -1;
#X obj 460 2 bng 12 250 50 0 \$0-tab1Save \$0-tab1Saver empty 0 -6
0 10 -181652 -262144 -1;
#X obj 434 40 hradio 10 1 0 6 \$0-tab2Store \$0-tab2Storer empty 0
-6 0 10 -187295 -1 -1 0;
#X obj 474 52 bng 12 250 50 0 \$0-tab2Load \$0-tab2Loadr empty 0 -6
0 10 -146007 -262144 -1;
#X obj 460 52 bng 12 250 50 0 \$0-tab2Save \$0-tab2Saver empty 0 -6
0 10 -181652 -262144 -1;
#X obj 434 90 hradio 10 1 0 6 \$0-tab3Store \$0-tab3Storer empty 0
-6 0 10 -187295 -1 -1 0;
#X obj 474 102 bng 12 250 50 0 \$0-tab3Load \$0-tab3Loadr empty 0 -6
0 10 -146007 -262144 -1;
#X obj 460 102 bng 12 250 50 0 \$0-tab3Save \$0-tab3Saver empty 0 -6
0 10 -181652 -262144 -1;
#X obj 434 140 hradio 10 1 0 6 \$0-tab4Store \$0-tab4Storer empty 0
-6 0 10 -187295 -1 -1 0;
#X obj 474 152 bng 12 250 50 0 \$0-tab4Load \$0-tab4Loadr empty 0 -6
0 10 -146007 -262144 -1;
#X obj 460 152 bng 12 250 50 0 \$0-tab4Save \$0-tab4Saver empty 0 -6
0 10 -181652 -262144 -1;
#X obj 486 2 tgl 8 0 \$0-tab1AL \$0-tab1ALr empty 0 -6 0 10 -84755
-262144 -1 1 1;
#X obj 486 52 tgl 8 0 \$0-tab2AL \$0-tab2ALr empty 0 -6 0 10 -84755
-262144 -1 1 1;
#X obj 486 102 tgl 8 0 \$0-tab3AL \$0-tab3ALr empty 0 -6 0 10 -84755
-262144 -1 1 1;
#X obj 486 152 tgl 8 0 \$0-tab4AL \$0-tab4ALr empty 0 -6 0 10 -84755
-262144 -1 1 1;
#X obj 445 21 bng 12 250 50 0 \$0-tab1Left \$0-tab1Leftr < 3 7 1 9
-112268 -1 -262144;
#X obj 457 21 bng 12 250 50 0 \$0-tab1Right \$0-tab1Rightr > 5 7 1
9 -112268 -1 -262144;
#X obj 445 71 bng 12 250 50 0 \$0-tab2Left \$0-tab2Leftr < 3 7 1 9
-112268 -1 -262144;
#X obj 457 71 bng 12 250 50 0 \$0-tab2Right \$0-tab2Rightr > 5 7 1
9 -112268 -1 -262144;
#X obj 445 121 bng 12 250 50 0 \$0-tab3Left \$0-tab3Leftr < 3 7 1 9
-112268 -1 -262144;
#X obj 457 121 bng 12 250 50 0 \$0-tab3Right \$0-tab3Rightr > 5 7 1
9 -112268 -1 -262144;
#X obj 445 171 bng 12 250 50 0 \$0-tab4Left \$0-tab4Leftr < 3 7 1 9
-112268 -1 -262144;
#X obj 457 171 bng 12 250 50 0 \$0-tab4Right \$0-tab4Rightr > 5 7 1
9 -112268 -1 -262144;
#X obj 443 244 bng 14 250 50 0 \$0-allLeft \$0-allLeftr < 3 7 1 9 -112268
-1 -262144;
#X obj 457 244 bng 14 250 50 0 \$0-allRight \$0-allRightr > 5 7 1 9
-112268 -1 -262144;
#X obj 375 257 bng 13 250 50 0 \$0-seekwMin \$0-seekwMinr - 4 6 1 9
-112268 -1 -262144;
#X obj 389 257 bng 13 250 50 0 \$0-seekwPlus \$0-seekwPlusr + 4 8 1
9 -112268 -1 -262144;
#X obj 137 243 tgl 14 0 \$0-hh2FM \$0-hh2FMr empty 0 -6 0 8 -75699
-262144 -1 0 1;
#X obj 120 243 tgl 14 0 \$0-sn2FM \$0-sn2FMr empty 0 -6 0 8 -75699
-262144 -1 0 1;
#X obj 158 -13 cnv 10 100 134 empty empty verb 3 8 0 9 -33289 -262144
0;
#X obj 161 42 tgl 15 0 \$0-bypassPlug3 \$0-bypassPlug3r empty 0 -6
1 7 -117128 -262144 -1 0 1;
#X obj 181 -5 vsl 14 100 0 1 0 0 \$0-mixPlug3 \$0-mixPlug3r empty 0
-8 1 6 -167309 -262144 -262144 0 0;
#X obj 161 6 bng 15 250 50 0 \$0-openPlug3 \$0-openPlug3r empty 0 -6
0 8 -63481 -262144 -1;
#X obj 161 24 tgl 15 0 \$0-editPlug3 \$0-editPlug3r empty 0 -6 0 8
-260818 -262144 -1 0 1;
#X obj 195 -5 vsl 14 100 0 0.2 0 0 \$0-presetsPlug3 \$0-presetsPlug3r
empty 0 -8 0 8 -143491 -262144 -1 0 0;
#X obj 264 232 bng 15 250 50 0 \$0-resetSeek \$0-resetSeekr empty 0
-6 0 10 -258113 -262144 -1;
#X obj 264 215 tgl 15 0 \$0-runSeekw \$0-runSeekwr empty 0 -6 0 10
-48075 -262144 -1 1 1;
#X obj 288 191 cnv 15 126 48 empty empty empty 20 12 0 14 -125535 -66577
0;
#X obj 417 207 bng 12 250 50 0 \$0-clearTab5 \$0-clearTab5r empty 0
-6 0 8 -202265 -262144 -1;
#X obj 417 190 tgl 15 0 \$0-recTab5 \$0-recTab5r empty 0 -6 0 8 -137951
-262144 -1 0 1;
#X obj 417 221 bng 12 250 50 0 \$0-rndTab5 \$0-rndTab5r empty 0 -6
0 8 -104304 -262144 -1;
#X obj 431 221 bng 12 250 50 0 \$0-rnd2Tab5 \$0-rnd2Tab5r empty 0 -6
0 8 -158261 -262144 -1;
#X obj 431 207 bng 12 250 50 0 \$0-clear2Tab5 \$0-clear2Tab5r empty
0 -6 0 8 -223720 -262144 -1;
#X obj 288 191 cnv 2 62 48 empty \$0-tabRegion5r empty 20 12 0 14 -204210
-66577 0;
#N canvas 0 22 450 300 (subpatch) 0;
#X array \$0-5 64 float 3;
#A 0 0.9 0.44 0.36 0.34 0.16 0.44 0.43 0.46 0.48 0.46 0.27 0.41 0.28
0.4 0.55 0.37 0.43 0.45 0.1 0.29 0.18 0.21 0.5 0.03 0.18 0.47 0.19
0.15 0.08 0.46 0.34 0.12 0.26 0.25 0.23 0.42 0.09 0.62 0.58 0.09 0.28
0.21 0.2 0.16 0.55 0.65 0.6 0.5 0.59 0.45 0.07 0 0.39 0.07 0.23 0.01
0.58 0.46 0.12 0.54 0.07 0.23 0.11 0.39;
#X coords 0 1.1 63 -0.1 128 50 1;
#X restore 287 190 graph;
#X obj 434 190 hradio 10 1 0 6 \$0-tab5Store \$0-tab5Storer empty 0
-6 0 10 -187295 -1 -1 0;
#X obj 474 202 bng 12 250 50 0 \$0-tab5Load \$0-tab5Loadr empty 0 -6
0 10 -146007 -262144 -1;
#X obj 460 202 bng 12 250 50 0 \$0-tab5Save \$0-tab5Saver empty 0 -6
0 10 -181652 -262144 -1;
#X obj 486 202 tgl 8 0 \$0-tab5AL \$0-tab5ALr empty 0 -6 0 10 -84755
-262144 -1 0 1;
#X obj 445 221 bng 12 250 50 0 \$0-tab5Left \$0-tab5Leftr < 3 7 1 9
-112268 -1 -262144;
#X obj 457 221 bng 12 250 50 0 \$0-tab5Right \$0-tab5Rightr > 5 7 1
9 -112268 -1 -262144;
#X obj 211 100 tgl 15 0 \$0-verbFollow \$0-verbFollowr folw 17 8 0
10 -105111 -262144 -262144 1 1;
#X obj 211 -5 vsl 14 100 0 1 0 0 \$0-revDecay \$0-revDecayr dc 1 6
0 10 -262144 -1 -1 0 0;
#X obj 225 -5 vsl 14 100 0 1 0 0 \$0-revDamp \$0-revDampr dm 1 6 0
10 -224695 -1 -33289 0 0;
#X obj 239 -5 vsl 14 100 0 1 0 0 \$0-revTranspose \$0-revTransposer
tr 1 6 0 10 -170602 -1 -1 0 0;
#X obj 158 124 cnv 10 100 164 empty empty woodfire 3 8 0 10 -33289
-262144 0;
#X obj 168 148 vsl 14 100 1 5 0 0 \$0-amount1 \$0-amount1r empty 0
-8 0 10 -193488 -262144 -1 0 0;
#X obj 198 148 vsl 14 100 0 1 0 0 \$0-woodLvl \$0-woodLvlr empty 0
-8 0 10 -100825 -262144 -1 9900 0;
#X obj 182 148 vsl 14 100 1 20 0 0 \$0-amount2 \$0-amount2r empty 0
-8 0 10 -193488 -262144 -1 0 0;
#X obj 214 146 tgl 15 0 \$0-onOff \$0-onOffr empty 0 -6 0 10 -128992
-262144 -1 1 1;
#X obj 2 -13 cnv 15 110 301 empty empty main 2 4 0 10 -162280 -262144
0;
#N canvas 343 36 903 952 guts 0;
#N canvas 157 154 475 505 bd 0;
#X obj 205 463 outlet~ bd;
#X obj 52 28 r \$0-seekBang;
#X obj 52 101 sel 0;
#X obj 52 58 t f f;
#X obj 52 122 f;
#X obj 146 48 + 1;
#X obj 52 80 mod;
#N canvas 0 22 470 320 selTable 0;
#X obj 72 191 outlet tableMessage;
#X obj 72 85 + 1;
#X obj 72 121 makefilename \$0-%d;
#X msg 72 153 set \$1;
#X obj 72 51 r \$0-bd1Tab;
#X connect 1 0 2 0;
#X connect 2 0 3 0;
#X connect 3 0 0 0;
#X connect 4 0 1 0;
#X restore 158 117 pd selTable;
#X obj 52 145 tabread \$0-1;
#X obj 52 248 t b f;
#X obj 146 29 r \$0-bd1Gate;
#X obj 52 188 != 0;
#X obj 52 208 sel 1;
#X obj 52 228 f;
#X obj 52 166 t f f;
#N canvas 0 22 448 529 kickDrum 0;
#X obj 97 334 line~;
#X obj 97 103 t b b;
#X obj 96 366 *~;
#X obj 258 210 *~ 0.6;
#X obj 313 162 osc~ 100;
#X obj 258 163 osc~ 50;
#X obj 258 235 lop~ 250;
#X obj 258 260 lop~ 250;
#X obj 313 140 * 2;
#X obj 97 159 del 10;
#X obj 97 227 f;
#X msg 97 252 0 \$1;
#X obj 259 284 *~ 0.8;
#X obj 96 398 tanh~;
#X msg 132 290 1 1;
#X obj 95 433 compressor~;
#X obj 158 403 r \$0-kickComp;
#X obj 112 197 r \$0-kickEnvR;
#X obj 258 94 r \$0-kickPitch;
#X obj 130 129 r \$0-kickEnvH;
#X obj 97 74 inlet bang;
#X obj 95 471 outlet~;
#X obj 310 362 r \$0-bddOn;
#X obj 310 402 switch~;
#X connect 0 0 2 0;
#X connect 1 0 9 0;
#X connect 1 1 14 0;
#X connect 2 0 13 0;
#X connect 3 0 6 0;
#X connect 4 0 3 0;
#X connect 5 0 3 0;
#X connect 6 0 7 0;
#X connect 7 0 12 0;
#X connect 8 0 4 0;
#X connect 9 0 10 0;
#X connect 10 0 11 0;
#X connect 11 0 0 0;
#X connect 12 0 2 1;
#X connect 13 0 15 0;
#X connect 14 0 0 0;
#X connect 15 0 21 0;
#X connect 16 0 15 1;
#X connect 17 0 10 1;
#X connect 18 0 5 0;
#X connect 18 0 8 0;
#X connect 19 0 9 1;
#X connect 20 0 1 0;
#X connect 22 0 23 0;
#X restore 220 340 pd kickDrum;
#X obj 205 384 *~;
#X obj 206 425 *~;
#X obj 246 383 r \$0-bddLvl;
#X connect 1 0 3 0;
#X connect 2 0 4 0;
#X connect 3 0 6 0;
#X connect 3 1 4 1;
#X connect 4 0 8 0;
#X connect 5 0 6 1;
#X connect 6 0 2 0;
#X connect 7 0 8 0;
#X connect 8 0 14 0;
#X connect 9 0 15 0;
#X connect 9 1 16 0;
#X connect 10 0 5 0;
#X connect 11 0 12 0;
#X connect 12 0 13 0;
#X connect 13 0 9 0;
#X connect 14 0 11 0;
#X connect 14 1 13 1;
#X connect 15 0 16 1;
#X connect 16 0 17 0;
#X connect 17 0 0 0;
#X connect 18 0 17 1;
#X restore 95 58 pd bd;
#N canvas 0 22 692 698 sn 0;
#X obj 261 469 *~;
#X obj 234 494 *~;
#N canvas 267 187 522 689 env 0;
#X obj 130 467 outlet~;
#X obj 131 424 line~;
#X obj 150 234 r \$0-3H;
#X msg 131 306 1 \, 0 \$1;
#X obj 131 276 f;
#X obj 258 276 del;
#X obj 312 217 r \$0-snLvl2;
#X obj 334 242 r \$0-snH2;
#X obj 131 61 inlet tableValue;
#X obj 131 106 > 0;
#X obj 131 148 sel 1;
#X obj 258 310 f;
#X obj 318 306 f;
#X msg 302 367 0 \$1;
#X connect 1 0 0 0;
#X connect 2 0 4 1;
#X connect 2 0 5 1;
#X connect 3 0 1 0;
#X connect 4 0 3 0;
#X connect 5 0 11 0;
#X connect 5 0 12 0;
#X connect 6 0 11 1;
#X connect 7 0 12 1;
#X connect 8 0 9 0;
#X connect 9 0 10 0;
#X connect 10 0 4 0;
#X connect 10 0 5 0;
#X connect 11 0 1 0;
#X connect 12 0 13 0;
#X connect 13 0 1 0;
#X restore 235 350 pd env;
#N canvas 787 192 519 730 sn 0;
#X obj 151 588 outlet~;
#X obj 153 272 bp~ 100 10;
#X obj 216 310 bp~ 100 10;
#X obj 154 43 noise~;
#X obj 190 81 r \$0-snBPFreq;
#X obj 228 153 r \$0-snBPQ;
#X obj 361 125 osc~;
#X obj 362 178 *~;
#X obj 401 125 phasor~;
#X obj 401 83 * 2;
#X obj 42 271 hip~ 100;
#X obj 42 247 hip~ 100;
#X obj 361 41 r \$0-snPitch;
#X obj 152 407 lop~;
#X obj 152 435 lop~;
#X obj 170 481 cos~;
#X obj 354 391 - 500;
#X obj 354 416 / 4500;
#X obj 354 440 - 1;
#X obj 354 464 * -1;
#X obj 354 489 + 1;
#X obj 151 543 *~;
#X obj 354 340 r \$0-sdLop;
#X connect 1 0 2 0;
#X connect 1 0 13 0;
#X connect 2 0 13 0;
#X connect 3 0 1 0;
#X connect 3 0 11 0;
#X connect 4 0 1 1;
#X connect 4 0 2 1;
#X connect 5 0 1 2;
#X connect 5 0 2 2;
#X connect 6 0 7 0;
#X connect 7 0 1 0;
#X connect 7 0 11 0;
#X connect 8 0 7 1;
#X connect 9 0 8 0;
#X connect 10 0 13 0;
#X connect 11 0 10 0;
#X connect 12 0 6 0;
#X connect 12 0 9 0;
#X connect 12 0 11 1;
#X connect 12 0 10 1;
#X connect 13 0 14 0;
#X connect 14 0 15 0;
#X connect 14 0 21 0;
#X connect 15 0 21 0;
#X connect 16 0 17 0;
#X connect 17 0 18 0;
#X connect 18 0 19 0;
#X connect 19 0 20 0;
#X connect 20 0 21 1;
#X connect 21 0 0 0;
#X connect 22 0 16 0;
#X connect 22 0 13 1;
#X connect 22 0 14 1;
#X restore 280 379 pd sn;
#X obj 280 436 r \$0-3Lvl;
#X obj 233 618 outlet~ sn;
#X obj 52 28 r \$0-seekBang;
#X obj 52 116 sel 0;
#X obj 52 58 t f f;
#X obj 52 145 f;
#X obj 158 97 + 1;
#X obj 52 89 mod;
#X obj 52 172 tabread \$0-3;
#X obj 158 66 r \$0-snGate;
#X obj 126 361 f;
#X obj 52 269 > 0;
#X obj 52 298 sel 1;
#X obj 261 412 *~;
#N canvas 0 22 458 308 selTable 0;
#X obj 72 191 outlet tableMessage;
#X obj 72 85 + 1;
#X obj 72 121 makefilename \$0-%d;
#X msg 72 153 set \$1;
#X obj 72 51 r \$0-snTab;
#X connect 1 0 2 0;
#X connect 2 0 3 0;
#X connect 3 0 0 0;
#X connect 4 0 1 0;
#X restore 268 67 pd selTable;
#X obj 444 177 switch~;
#X obj 520 103 t b f;
#X obj 444 138 ||;
#X obj 444 61 r \$0-snOn;
#X obj 520 61 r \$0-sn2FM;
#X obj 233 557 *~;
#X obj 322 564 *~;
#X obj 252 527 r \$0-snOn;
#X obj 341 534 r \$0-sn2FM;
#X obj 321 618 outlet~ snFM;
#X obj 129 283 s \$0-snareLvl;
#X obj 52 237 t f f;
#X connect 0 0 1 1;
#X connect 1 0 24 0;
#X connect 1 0 25 0;
#X connect 2 0 1 0;
#X connect 3 0 17 1;
#X connect 4 0 0 1;
#X connect 6 0 8 0;
#X connect 7 0 9 0;
#X connect 8 0 11 0;
#X connect 8 1 9 1;
#X connect 9 0 12 0;
#X connect 10 0 11 1;
#X connect 11 0 7 0;
#X connect 12 0 2 0;
#X connect 12 0 30 0;
#X connect 13 0 10 0;
#X connect 14 0 17 0;
#X connect 15 0 16 0;
#X connect 16 0 14 0;
#X connect 17 0 0 0;
#X connect 18 0 12 0;
#X connect 20 0 21 0;
#X connect 20 1 21 1;
#X connect 21 0 19 0;
#X connect 22 0 21 0;
#X connect 23 0 20 0;
#X connect 24 0 5 0;
#X connect 25 0 28 0;
#X connect 26 0 24 1;
#X connect 27 0 25 1;
#X connect 30 0 15 0;
#X connect 30 1 14 1;
#X connect 30 1 29 0;
#X restore 246 58 pd sn;
#X obj 96 183 /~ 0.5;
#N canvas 0 22 617 313 clearTables 0;
#X obj 46 62 r \$0-clearTab1;
#X obj 46 100 pack \$0;
#X msg 46 132 \; \$1-1 const 0 \;;
#X obj 166 100 pack \$0;
#X msg 166 132 \; \$1-2 const 0 \;;
#X obj 166 62 r \$0-clearTab2;
#X obj 286 100 pack \$0;
#X obj 406 100 pack \$0;
#X obj 286 62 r \$0-clearTab3;
#X obj 406 62 r \$0-clearTab4;
#X msg 406 132 \; \$1-4 const 0 \;;
#X msg 286 132 \; \$1-3 const 0 \;;
#X obj 407 210 pack \$0;
#X obj 407 172 r \$0-clearTab5;
#X msg 407 242 \; \$1-5 const 0 \;;
#X connect 0 0 1 0;
#X connect 1 0 2 0;
#X connect 3 0 4 0;
#X connect 5 0 3 0;
#X connect 6 0 11 0;
#X connect 7 0 10 0;
#X connect 8 0 6 0;
#X connect 9 0 7 0;
#X connect 12 0 14 0;
#X connect 13 0 12 0;
#X restore 443 137 pd clearTables;
#N canvas 0 22 826 892 randomTables 0;
#X obj 97 176 pack \$0;
#X obj 217 176 pack \$0;
#X obj 337 176 pack \$0;
#X obj 457 176 pack \$0;
#X obj 46 62 r \$0-rndTab1;
#X obj 166 62 r \$0-rndTab2;
#X msg 97 208 set \$1-1;
#X msg 217 208 set \$1-2;
#X msg 337 208 set \$1-3;
#X msg 457 208 set \$1-4;
#X obj 46 101 t b b;
#X obj 166 101 t b b;
#X obj 286 101 t b b;
#X obj 406 101 t b b;
#X obj 107 407 until;
#X obj 107 333 t b b;
#X obj 107 466 f;
#X msg 126 437 0;
#X obj 107 504 + 1;
#X obj 443 603 tabwrite;
#X obj 239 494 t b f;
#X obj 286 62 r \$0-rndTab3;
#X obj 406 62 r \$0-rndTab4;
#X obj 239 571 / 100;
#X obj 299 494 r \$0-randomRecAmp;
#X obj 239 541 random;
#X msg 107 370 64;
#X obj 107 547 sel 64;
#X obj 557 175 pack \$0;
#X obj 506 100 t b b;
#X obj 506 60 r \$0-rndTab5;
#X msg 557 207 set \$1-5;
#X connect 0 0 6 0;
#X connect 1 0 7 0;
#X connect 2 0 8 0;
#X connect 3 0 9 0;
#X connect 4 0 10 0;
#X connect 5 0 11 0;
#X connect 6 0 19 0;
#X connect 7 0 19 0;
#X connect 8 0 19 0;
#X connect 9 0 19 0;
#X connect 10 0 15 0;
#X connect 10 1 0 0;
#X connect 11 0 15 0;
#X connect 11 1 1 0;
#X connect 12 0 15 0;
#X connect 12 1 2 0;
#X connect 13 0 15 0;
#X connect 13 1 3 0;
#X connect 14 0 16 0;
#X connect 15 0 26 0;
#X connect 15 1 17 0;
#X connect 16 0 18 0;
#X connect 16 0 20 0;
#X connect 17 0 16 1;
#X connect 18 0 27 0;
#X connect 20 0 25 0;
#X connect 20 1 19 1;
#X connect 21 0 12 0;
#X connect 22 0 13 0;
#X connect 23 0 19 0;
#X connect 24 0 25 1;
#X connect 25 0 23 0;
#X connect 26 0 14 0;
#X connect 27 1 16 1;
#X connect 28 0 31 0;
#X connect 29 0 15 0;
#X connect 29 1 28 0;
#X connect 30 0 29 0;
#X connect 31 0 19 0;
#X restore 443 209 pd randomTables;
#N canvas 0 22 848 826 recTables 0;
#X obj 97 176 pack \$0;
#X obj 217 176 pack \$0;
#X obj 337 176 pack \$0;
#X obj 457 176 pack \$0;
#X msg 97 208 set \$1-1;
#X msg 217 208 set \$1-2;
#X msg 337 208 set \$1-3;
#X msg 457 208 set \$1-4;
#X obj 46 122 t b b;
#X obj 166 122 t b b;
#X obj 286 122 t b b;
#X obj 406 122 t b b;
#X obj 443 603 tabwrite;
#X obj 46 62 r \$0-recTab1;
#X obj 166 62 r \$0-recTab2;
#X obj 286 62 r \$0-recTab3;
#X obj 406 61 r \$0-recTab4;
#X obj 46 93 sel 1;
#X obj 166 92 sel 1;
#X obj 286 92 sel 1;
#X obj 406 91 sel 1;
#X obj 84 342 key;
#X obj 84 380 spigot;
#X obj 84 415 sel 32;
#X obj 502 472 r \$0-seekwVal;
#X obj 594 586 random;
#X msg 341 555 0.9;
#X obj 594 625 / 100;
#X obj 594 556 t b;
#X obj 637 556 r \$0-randomRecAmp;
#X obj 586 177 pack \$0;
#X obj 535 123 t b b;
#X obj 535 92 sel 1;
#X obj 535 62 r \$0-recTab5;
#X msg 586 209 set \$1-5;
#X connect 0 0 4 0;
#X connect 1 0 5 0;
#X connect 2 0 6 0;
#X connect 3 0 7 0;
#X connect 4 0 12 0;
#X connect 5 0 12 0;
#X connect 6 0 12 0;
#X connect 7 0 12 0;
#X connect 8 1 0 0;
#X connect 9 1 1 0;
#X connect 10 1 2 0;
#X connect 11 1 3 0;
#X connect 13 0 17 0;
#X connect 13 0 22 1;
#X connect 14 0 18 0;
#X connect 14 0 22 1;
#X connect 15 0 19 0;
#X connect 15 0 22 1;
#X connect 16 0 20 0;
#X connect 16 0 22 1;
#X connect 17 0 8 0;
#X connect 18 0 9 0;
#X connect 19 0 10 0;
#X connect 20 0 11 0;
#X connect 21 0 22 0;
#X connect 22 0 23 0;
#X connect 23 0 26 0;
#X connect 23 1 28 0;
#X connect 24 0 12 1;
#X connect 25 0 27 0;
#X connect 26 0 12 0;
#X connect 27 0 12 0;
#X connect 28 0 25 0;
#X connect 29 0 25 1;
#X connect 30 0 34 0;
#X connect 31 1 30 0;
#X connect 32 0 31 0;
#X connect 33 0 32 0;
#X connect 33 0 22 1;
#X connect 34 0 12 0;
#X restore 443 184 pd recTables;
#N canvas 0 22 826 892 randomTables2 0;
#X obj 88 217 pack \$0;
#X obj 217 217 pack \$0;
#X obj 373 217 pack \$0;
#X obj 531 217 pack \$0;
#X msg 88 249 set \$1-1;
#X msg 217 249 set \$1-2;
#X msg 373 249 set \$1-3;
#X msg 531 249 set \$1-4;
#X obj 27 181 t b b;
#X obj 166 181 t b b;
#X obj 322 181 t b b;
#X obj 480 181 t b b;
#X obj 107 407 until;
#X obj 107 333 t b b;
#X obj 107 466 f;
#X msg 126 437 0;
#X obj 107 504 + 1;
#X obj 588 822 tabwrite;
#X obj 384 713 t b f;
#X obj 384 790 / 100;
#X obj 444 713 r \$0-randomRecAmp;
#X obj 384 760 random;
#X obj 27 62 r \$0-rnd2Tab1;
#X obj 192 589 tabread;
#X obj 258 688 f;
#X obj 242 534 t f f;
#X obj 192 650 sel 0;
#X obj 480 62 r \$0-rnd2Tab4;
#X obj 322 62 r \$0-rnd2Tab3;
#X obj 165 62 r \$0-rnd2Tab2;
#X obj 192 621 == 0.9;
#X obj 107 547 sel 64;
#X msg 107 370 64;
#X obj 661 217 pack \$0;
#X obj 610 181 t b b;
#X obj 610 62 r \$0-rnd2Tab5;
#X msg 661 249 set \$1-5;
#X connect 0 0 4 0;
#X connect 1 0 5 0;
#X connect 2 0 6 0;
#X connect 3 0 7 0;
#X connect 4 0 17 0;
#X connect 4 0 23 0;
#X connect 5 0 17 0;
#X connect 5 0 23 0;
#X connect 6 0 17 0;
#X connect 6 0 23 0;
#X connect 7 0 17 0;
#X connect 7 0 23 0;
#X connect 8 0 13 0;
#X connect 8 1 0 0;
#X connect 9 0 13 0;
#X connect 9 1 1 0;
#X connect 10 0 13 0;
#X connect 10 1 2 0;
#X connect 11 0 13 0;
#X connect 11 1 3 0;
#X connect 12 0 14 0;
#X connect 13 0 32 0;
#X connect 13 1 15 0;
#X connect 14 0 16 0;
#X connect 14 0 25 0;
#X connect 15 0 14 1;
#X connect 16 0 31 0;
#X connect 18 0 21 0;
#X connect 18 1 17 1;
#X connect 19 0 17 0;
#X connect 20 0 21 1;
#X connect 21 0 19 0;
#X connect 22 0 8 0;
#X connect 23 0 30 0;
#X connect 24 0 18 0;
#X connect 25 0 23 0;
#X connect 25 1 24 1;
#X connect 26 0 24 0;
#X connect 27 0 11 0;
#X connect 28 0 10 0;
#X connect 29 0 9 0;
#X connect 30 0 26 0;
#X connect 31 1 14 1;
#X connect 32 0 12 0;
#X connect 33 0 36 0;
#X connect 34 0 13 0;
#X connect 34 1 33 0;
#X connect 35 0 34 0;
#X connect 36 0 23 0;
#X connect 36 0 17 0;
#X restore 443 231 pd randomTables2;
#N canvas 0 22 822 888 clearTables2 0;
#X obj 97 176 pack \$0;
#X obj 224 176 pack \$0;
#X obj 351 176 pack \$0;
#X obj 477 176 pack \$0;
#X msg 97 208 set \$1-1;
#X msg 224 208 set \$1-2;
#X msg 351 208 set \$1-3;
#X msg 477 208 set \$1-4;
#X obj 46 101 t b b;
#X obj 173 101 t b b;
#X obj 300 101 t b b;
#X obj 426 101 t b b;
#X obj 107 407 until;
#X obj 107 333 t b b;
#X obj 107 466 f;
#X msg 126 437 0;
#X obj 107 504 + 1;
#X obj 588 822 tabwrite;
#X obj 384 713 t b f;
#X obj 192 589 tabread;
#X obj 258 693 f;
#X obj 242 534 t f f;
#X obj 192 622 < 0.9;
#X obj 192 655 sel 1;
#X msg 384 749 0;
#X obj 46 62 r \$0-clear2Tab1;
#X obj 173 62 r \$0-clear2Tab2;
#X obj 300 62 r \$0-clear2Tab3;
#X obj 426 62 r \$0-clear2Tab4;
#X msg 107 370 64;
#X obj 107 547 sel 64;
#X obj 592 176 pack \$0;
#X obj 541 101 t b b;
#X obj 541 62 r \$0-clear2Tab5;
#X msg 592 208 set \$1-5;
#X connect 0 0 4 0;
#X connect 1 0 5 0;
#X connect 2 0 6 0;
#X connect 3 0 7 0;
#X connect 4 0 17 0;
#X connect 4 0 19 0;
#X connect 5 0 17 0;
#X connect 5 0 19 0;
#X connect 6 0 17 0;
#X connect 6 0 19 0;
#X connect 7 0 17 0;
#X connect 7 0 19 0;
#X connect 8 0 13 0;
#X connect 8 1 0 0;
#X connect 9 0 13 0;
#X connect 9 1 1 0;
#X connect 10 0 13 0;
#X connect 10 1 2 0;
#X connect 11 0 13 0;
#X connect 11 1 3 0;
#X connect 12 0 14 0;
#X connect 13 0 29 0;
#X connect 13 1 15 0;
#X connect 14 0 16 0;
#X connect 14 0 21 0;
#X connect 15 0 14 1;
#X connect 16 0 30 0;
#X connect 18 0 24 0;
#X connect 18 1 17 1;
#X connect 19 0 22 0;
#X connect 20 0 18 0;
#X connect 21 0 19 0;
#X connect 21 1 20 1;
#X connect 22 0 23 0;
#X connect 23 0 20 0;
#X connect 24 0 17 0;
#X connect 25 0 8 0;
#X connect 26 0 9 0;
#X connect 27 0 10 0;
#X connect 28 0 11 0;
#X connect 29 0 12 0;
#X connect 30 1 14 1;
#X connect 31 0 34 0;
#X connect 32 0 13 0;
#X connect 32 1 31 0;
#X connect 33 0 32 0;
#X connect 34 0 19 0;
#X connect 34 0 17 0;
#X restore 443 159 pd clearTables2;
#N canvas 0 22 490 340 seekwenzer 0;
#X obj 64 194 s \$0-MT;
#N canvas 478 142 757 431 seekwenzer 0;
#X obj 117 26 inlet;
#X obj 117 138 f;
#X obj 117 254 + 1;
#X msg 132 103 0;
#X obj 132 78 loadbang;
#X obj 49 325 s \$0-seekBang;
#X obj 15 357 s \$0-seekwVal;
#X obj 321 361 s \$0-seekwDispr;
#X obj 578 36 r \$0-seekwMaxPreset;
#X obj 578 62 sel 0 1 2 3;
#X obj 578 146 s \$0-seekwMaxDispr;
#X msg 578 104 8;
#X msg 617 104 16;
#X msg 655 104 32;
#X msg 692 104 64;
#N canvas 0 22 652 535 seekwRegionDisplay 0;
#X obj 199 61 r \$0-seekwMaxDisp;
#X obj 199 171 pack f \$0;
#X obj 199 126 - 2;
#X msg 217 344 \; \$2-tabRegion4r vis_size \$1 48;
#X msg 248 221 \; \$2-tabRegion1r vis_size \$1 48;
#X msg 236 261 \; \$2-tabRegion2r vis_size \$1 48;
#X msg 227 301 \; \$2-tabRegion3r vis_size \$1 48;
#X obj 199 91 * 2;
#X msg 203 392 \; \$2-tabRegion5r vis_size \$1 48;
#X connect 0 0 7 0;
#X connect 1 0 4 0;
#X connect 1 0 3 0;
#X connect 1 0 6 0;
#X connect 1 0 5 0;
#X connect 1 0 8 0;
#X connect 2 0 1 0;
#X connect 7 0 2 0;
#X restore 564 198 pd seekwRegionDisplay;
#X obj 287 114 r \$0-seekwMaxDisp;
#X obj 321 334 spigot;
#X obj 360 302 r \$0-showSeekw;
#X obj 262 153 t b;
#X obj 117 287 sel 16;
#X obj 262 197 f 16;
#X obj 564 237 r \$0-seekStepSlider;
#X obj 564 269 int;
#X obj 564 306 s \$0-seekwMaxDispr;
#X obj 218 77 r \$0-resetSeek;
#X obj 156 174 r \$0-runSeekw;
#X obj 117 208 spigot;
#X connect 0 0 1 0;
#X connect 1 0 5 0;
#X connect 1 0 6 0;
#X connect 1 0 27 0;
#X connect 2 0 17 0;
#X connect 2 0 20 0;
#X connect 3 0 1 1;
#X connect 3 0 19 0;
#X connect 4 0 3 0;
#X connect 8 0 9 0;
#X connect 9 0 11 0;
#X connect 9 1 12 0;
#X connect 9 2 13 0;
#X connect 9 3 14 0;
#X connect 11 0 10 0;
#X connect 12 0 10 0;
#X connect 13 0 10 0;
#X connect 14 0 10 0;
#X connect 16 0 21 1;
#X connect 17 0 7 0;
#X connect 18 0 17 1;
#X connect 19 0 21 0;
#X connect 20 0 3 0;
#X connect 20 1 1 1;
#X connect 21 0 20 1;
#X connect 22 0 23 0;
#X connect 23 0 24 0;
#X connect 25 0 3 0;
#X connect 26 0 27 1;
#X connect 27 0 2 0;
#X restore 148 195 pd seekwenzer;
#X obj 148 154 metro;
#X obj 148 89 r \$0-runMetro;
#X obj 175 120 r \$0-tempo;
#X connect 2 0 0 0;
#X connect 2 0 1 0;
#X connect 3 0 2 0;
#X connect 4 0 2 1;
#X restore 444 107 pd seekwenzer;
#N canvas 186 71 840 849 init 0;
#X obj 58 38 loadbang;
#X msg 58 516 0;
#X obj 58 544 s \$0-clockPresetsr;
#X msg 98 487 0.5;
#X obj 98 514 s \$0-mainLvlr;
#X msg 143 460 0;
#X obj 143 488 s \$0-delSepr;
#X obj 181 460 s \$0-getMasterTempor;
#X msg 207 197 0;
#X msg 253 167 1;
#X msg 294 138 2;
#X obj 253 195 s \$0-hhTabr;
#X obj 294 166 s \$0-snTabr;
#X obj 210 345 s \$0-seekwMaxPresetr;
#X obj 210 286 del 50;
#X msg 336 251 20;
#X obj 336 279 s \$0-masterHipr;
#X msg 401 521 1;
#X obj 401 549 s \$0-dryLvl;
#X msg 433 493 1;
#X obj 433 521 s \$0-dryOn;
#X msg 210 317 2;
#X msg 530 276 1;
#X obj 530 381 s \$0-tab1ALr;
#X obj 541 355 s \$0-tab2ALr;
#X obj 550 330 s \$0-tab3ALr;
#X obj 561 304 s \$0-tab4ALr;
#X obj 530 118 t b b;
#X msg 562 143 0;
#X obj 593 171 s \$0-tab4Storer;
#X obj 582 197 s \$0-tab3Storer;
#X obj 573 222 s \$0-tab2Storer;
#X obj 562 248 s \$0-tab1Storer;
#X msg 575 506 0;
#X msg 541 534 1;
#X msg 607 478 0;
#X msg 639 450 0;
#X obj 541 562 s \$0-dryLvlr;
#X obj 575 534 s \$0-dryOnr;
#X obj 607 506 s \$0-fmLvlr;
#X obj 639 478 s \$0-fmOnr;
#X msg 298 605 1;
#X obj 298 633 s \$0-fm2Amtr;
#X obj 416 692 s \$0-mixPlug3r;
#X msg 139 618 1;
#X obj 139 646 s \$0-runSeekwr;
#X msg 328 111 3;
#X obj 328 139 s \$0-bdTabr;
#X obj 207 225 s \$0-bd1Tabr;
#X obj 183 728 s \$0-prePostr;
#X msg 308 738 1;
#X obj 308 766 s \$0-verbFollowr;
#X msg 442 52 125;
#X obj 443 83 s \$0-tempor;
#X msg 466 735 1;
#X obj 466 763 s \$0-dryOnr;
#X msg 541 692 1;
#X obj 541 720 s \$0-bddOnr;
#X msg 578 667 1;
#X obj 578 695 s \$0-bd2Onr;
#X msg 655 695 1;
#X msg 692 670 1;
#X obj 655 723 s \$0-snOnr;
#X obj 692 698 s \$0-hhOnr;
#X obj 432 792 s \$0-onOffr;
#X msg 416 664 0;
#X msg 432 764 1;
#X obj 558 802 s \$0-amount1r;
#X msg 558 774 2.5;
#X connect 0 0 1 0;
#X connect 0 0 5 0;
#X connect 0 0 7 0;
#X connect 0 0 8 0;
#X connect 0 0 9 0;
#X connect 0 0 10 0;
#X connect 0 0 3 0;
#X connect 0 0 14 0;
#X connect 0 0 15 0;
#X connect 0 0 17 0;
#X connect 0 0 19 0;
#X connect 0 0 27 0;
#X connect 0 0 36 0;
#X connect 0 0 35 0;
#X connect 0 0 33 0;
#X connect 0 0 34 0;
#X connect 0 0 41 0;
#X connect 0 0 65 0;
#X connect 0 0 44 0;
#X connect 0 0 46 0;
#X connect 0 0 49 0;
#X connect 0 0 50 0;
#X connect 0 0 52 0;
#X connect 0 0 54 0;
#X connect 0 0 66 0;
#X connect 0 0 56 0;
#X connect 0 0 58 0;
#X connect 0 0 60 0;
#X connect 0 0 61 0;
#X connect 0 0 68 0;
#X connect 1 0 2 0;
#X connect 3 0 4 0;
#X connect 5 0 6 0;
#X connect 8 0 48 0;
#X connect 9 0 11 0;
#X connect 10 0 12 0;
#X connect 14 0 21 0;
#X connect 15 0 16 0;
#X connect 17 0 18 0;
#X connect 19 0 20 0;
#X connect 21 0 13 0;
#X connect 22 0 23 0;
#X connect 22 0 24 0;
#X connect 22 0 25 0;
#X connect 22 0 26 0;
#X connect 27 0 22 0;
#X connect 27 1 28 0;
#X connect 28 0 29 0;
#X connect 28 0 30 0;
#X connect 28 0 31 0;
#X connect 28 0 32 0;
#X connect 33 0 38 0;
#X connect 34 0 37 0;
#X connect 35 0 39 0;
#X connect 36 0 40 0;
#X connect 41 0 42 0;
#X connect 44 0 45 0;
#X connect 46 0 47 0;
#X connect 50 0 51 0;
#X connect 52 0 53 0;
#X connect 54 0 55 0;
#X connect 56 0 57 0;
#X connect 58 0 59 0;
#X connect 60 0 62 0;
#X connect 61 0 63 0;
#X connect 65 0 43 0;
#X connect 66 0 64 0;
#X connect 68 0 67 0;
#X restore 446 49 pd init;
#N canvas 0 22 573 662 hh 0;
#X obj 357 459 *~;
#X obj 330 484 *~;
#X obj 357 399 *~;
#N canvas 509 92 745 840 hh 0;
#X obj 322 667 outlet~;
#X obj 205 344 bp~ 100 10;
#X obj 340 416 bp~ 100 10;
#X obj 206 175 noise~;
#X obj 377 118 r \$0-MT;
#X obj 377 250 + 1000;
#X obj 475 223 random 900;
#X obj 475 251 / 100;
#X obj 475 278 + 3;
#X obj 377 169 spigot;
#X obj 442 118 r \$0-1rnd;
#X obj 377 224 random 9000;
#X obj 242 216 r \$0-hhBPFreq;
#X obj 280 245 r \$0-hhBPQ;
#X obj 322 480 hip~;
#X obj 322 506 hip~;
#X obj 322 534 hip~;
#X obj 438 435 r \$0-hhHipFreq;
#X obj 341 569 tanh~;
#X obj 438 526 - 5;
#X obj 438 578 + 1;
#X obj 322 622 *~;
#X text 507 502 compensate hp amplitude;
#X obj 438 551 / 5000;
#X connect 1 0 2 0;
#X connect 1 0 14 0;
#X connect 2 0 14 0;
#X connect 3 0 1 0;
#X connect 4 0 9 0;
#X connect 5 0 1 1;
#X connect 5 0 2 1;
#X connect 6 0 7 0;
#X connect 7 0 8 0;
#X connect 8 0 1 2;
#X connect 8 0 2 2;
#X connect 9 0 6 0;
#X connect 9 0 11 0;
#X connect 10 0 9 1;
#X connect 11 0 5 0;
#X connect 12 0 1 1;
#X connect 12 0 2 1;
#X connect 13 0 1 2;
#X connect 13 0 2 2;
#X connect 14 0 15 0;
#X connect 15 0 16 0;
#X connect 16 0 18 0;
#X connect 16 0 21 0;
#X connect 17 0 14 1;
#X connect 17 0 15 1;
#X connect 17 0 16 1;
#X connect 17 0 19 0;
#X connect 18 0 21 0;
#X connect 19 0 23 0;
#X connect 20 0 21 1;
#X connect 21 0 0 0;
#X connect 23 0 20 0;
#X restore 375 369 pd hh;
#N canvas 0 22 552 550 env 0;
#X obj 194 428 outlet~;
#X obj 195 385 line~;
#X obj 195 311 del;
#X obj 214 95 r \$0-1H;
#X obj 390 43 r \$0-MT;
#X obj 259 310 f;
#X obj 390 147 random;
#X obj 390 172 sel 0;
#X obj 425 198 t b;
#X obj 278 95 r \$0-hhH2;
#X obj 433 92 r \$0-hhHMix;
#X obj 433 117 int;
#X obj 294 41 inlet bang;
#X msg 130 339 1 1;
#X msg 195 339 0 1;
#X msg 259 339 1 \, 0 \$1;
#X connect 1 0 0 0;
#X connect 2 0 14 0;
#X connect 3 0 2 1;
#X connect 5 0 15 0;
#X connect 6 0 7 0;
#X connect 7 0 13 0;
#X connect 7 0 2 0;
#X connect 7 1 8 0;
#X connect 8 0 5 0;
#X connect 9 0 5 1;
#X connect 10 0 11 0;
#X connect 11 0 6 1;
#X connect 12 0 6 0;
#X connect 13 0 1 0;
#X connect 14 0 1 0;
#X connect 15 0 1 0;
#X restore 331 337 pd env;
#X obj 376 427 r \$0-1Lvl;
#X obj 331 595 outlet~ hh;
#X obj 52 202 change;
#X obj 52 28 r \$0-seekBang;
#X obj 52 116 sel 0;
#X obj 52 58 t f f;
#X obj 52 145 f;
#X obj 158 97 + 1;
#X obj 52 89 mod;
#X obj 52 240 t b;
#X obj 158 66 r \$0-hhGate;
#N canvas 0 22 458 308 selTable 0;
#X obj 72 191 outlet tableMessage;
#X obj 72 85 + 1;
#X obj 72 121 makefilename \$0-%d;
#X msg 72 153 set \$1;
#X obj 72 51 r \$0-hhTab;
#X connect 1 0 2 0;
#X connect 2 0 3 0;
#X connect 3 0 0 0;
#X connect 4 0 1 0;
#X restore 268 67 pd selTable;
#X obj 52 172 tabread \$0-2;
#X obj 64 529 switch~;
#X obj 64 413 r \$0-hhOn;
#X obj 140 413 r \$0-hh2FM;
#X obj 140 455 t b f;
#X obj 64 490 ||;
#X obj 331 546 *~;
#X obj 350 516 r \$0-hhOn;
#X obj 425 547 *~;
#X obj 425 596 outlet~ hhFM;
#X obj 444 517 r \$0-hh2FM;
#X connect 0 0 1 1;
#X connect 1 0 23 0;
#X connect 1 0 25 0;
#X connect 2 0 0 0;
#X connect 3 0 2 1;
#X connect 4 0 1 0;
#X connect 5 0 0 1;
#X connect 7 0 14 0;
#X connect 8 0 10 0;
#X connect 9 0 11 0;
#X connect 10 0 13 0;
#X connect 10 1 11 1;
#X connect 11 0 17 0;
#X connect 12 0 13 1;
#X connect 13 0 9 0;
#X connect 14 0 4 0;
#X connect 15 0 12 0;
#X connect 16 0 17 0;
#X connect 17 0 7 0;
#X connect 17 0 2 0;
#X connect 19 0 22 0;
#X connect 20 0 21 0;
#X connect 21 0 22 0;
#X connect 21 1 22 1;
#X connect 22 0 18 0;
#X connect 23 0 6 0;
#X connect 24 0 23 1;
#X connect 25 0 26 0;
#X connect 27 0 25 1;
#X restore 170 59 pd hh;
#X obj 97 374 hip~;
#X obj 97 398 hip~;
#X obj 161 349 r \$0-masterHip;
#X obj 97 240 *~;
#X obj 112 213 r \$0-dryLvl;
#X obj 98 298 *~;
#X obj 113 270 r \$0-dryOn;
#X obj 217 182 /~ 0.5;
#N canvas 20 22 482 332 tableStores 0;
#N canvas 441 94 575 464 tab1Stores 0;
#X obj 171 235 arraycopy;
#X obj 254 70 r \$0-tab1Store;
#X obj 254 169 makefilename \$0-s1%d;
#X msg 171 185 copy \$1-1;
#X obj 171 158 pack \$0;
#X obj 171 30 r \$0-tab1Save;
#X obj 254 107 + 1;
#X obj 379 330 arraycopy \$0-1;
#X obj 379 230 r \$0-tab1Load;
#X obj 379 260 f;
#X obj 379 291 makefilename \$0-s1%d;
#X obj 162 366 spigot;
#X obj 201 330 r \$0-tab1AL;
#X obj 162 299 r \$0-tab1Store;
#X obj 162 422 s \$0-tab1Loadr;
#X obj 162 395 t b f;
#X obj 162 335 + 1;
#N canvas 0 22 458 308 tables 0;
#N canvas 0 22 450 300 (subpatch) 0;
#X array \$0-s11 64 float 3;
#A 0 0 0.9 0 0 0 0 0.9 0 0 0.9 0 0 0 0.9 0 0.9 0 0.9 0 0 0 0 0.9 0
0 0 0 0 0.9 0 0 0 0 0 0 0 0 0 0 0 0 0 0 0 0 0 0 0 0 0 0 0 0 0 0 0 0
0 0 0 0 0 0 0;
#X coords 0 1 64 0 64 64 1;
#X restore 35 33 graph;
#N canvas 0 22 450 300 (subpatch) 0;
#X array \$0-s14 64 float 3;
#A 0 0 0 0.9 0 0 0.0840003 0 0 0 0 0.9 0.564 0 0 0 0 0 0 0.9 0.468
0.36 0.168 0.432 0.432 0.6 0.9 0.348 0 0 0 0 0 0 0 0 0.264 0.48 0.528
0.576 0.528 0.432 0.312 0.144 0.576 0.36 0.336 0.336 1.49012e-08 1.49012e-08
0.048 0.36 0.36 0 0 0 0.6 0.624 0.672 0.72 0 0 0 0 0;
#X coords 0 1 64 0 64 64 1;
#X restore 35 124 graph;
#N canvas 0 22 450 300 (subpatch) 0;
#X array \$0-s12 64 float 3;
#A 0 0.9 0 0.9 0 0.9 0 0.9 0.9 0 0.9 0 0 0 0 0 0 0 0 0 0 0 0 0 0 0
0 0 0 0 0 0 0 0.024 0.048 0.0959999 0.12 0.168 0.384 0 0 0 0 0 0 0
0 0 0 0 0 0 0 0 0 0 0 0 0 0 0 0 0 0 0;
#X coords 0 1 64 0 64 64 1;
#X restore 171 33 graph;
#N canvas 0 22 450 300 (subpatch) 0;
#X array \$0-s15 64 float 3;
#A 0 0 0 0.9 0 0.9 0.9 0 0.9 0 0.9 0 0.9 0.9 0 0.9 0 0.9 0 0 0.9 0
0.9 0 0 0 0 0 0.9 0.9 0 0 0 0 0 0 0 0 0 0 0 0 0 0 0 0 0 0 0 0 0 0 0
0 0 0 0 0 0 0 0 0 0 0 0;
#X coords 0 1 64 0 64 64 1;
#X restore 171 124 graph;
#N canvas 0 22 450 300 (subpatch) 0;
#X array \$0-s13 64 float 3;
#A 0 0 0 0.9 0 0 0.0360003 0 0 0 0 0.9 0.564 0 0 0 0 0 0 0.9 0.276
0.276 0.204 0.132 0.132 0.108 0.108 0.0840001 0.0840001 0.0600001 0.0600001
0 0 0 0 0 0 0 0 0 0 0 0 0 0 0 0 0 0 0 0 0 0 0 0 0 0 0 0 0 0 0 0 0 0
;
#X coords 0 1 64 0 64 64 1;
#X restore 303 34 graph;
#N canvas 0 22 450 300 (subpatch) 0;
#X array \$0-s16 64 float 3;
#A 0 0 0 0 0 0 0 0 0 0 0 0 0 0 0 0 0 0 0 0 0 0 0 0 0 0 0 0 0 0 0 0
0 0 0 0 0 0 0 0 0 0 0 0 0 0 0 0 0 0 0 0 0 0 0 0 0 0 0 0 0 0 0 0 0;
#X coords 0 1 64 0 64 64 1;
#X restore 303 125 graph;
#X restore 33 29 pd tables;
#X connect 1 0 6 0;
#X connect 2 0 0 1;
#X connect 3 0 0 0;
#X connect 4 0 3 0;
#X connect 5 0 4 0;
#X connect 6 0 2 0;
#X connect 6 0 9 1;
#X connect 8 0 9 0;
#X connect 9 0 10 0;
#X connect 10 0 7 0;
#X connect 11 0 15 0;
#X connect 12 0 11 1;
#X connect 13 0 16 0;
#X connect 15 0 14 0;
#X connect 15 1 9 1;
#X connect 16 0 11 0;
#X restore 29 26 pd tab1Stores;
#N canvas 367 77 571 460 tab2Stores 0;
#X obj 171 235 arraycopy;
#X obj 171 158 pack \$0;
#X obj 254 107 + 1;
#X obj 379 260 f;
#X obj 162 366 spigot;
#X obj 162 395 t b f;
#X obj 162 335 + 1;
#X obj 171 30 r \$0-tab2Save;
#X obj 254 70 r \$0-tab2Store;
#X obj 255 169 makefilename \$0-s2%d;
#X msg 171 185 copy \$1-2;
#X obj 379 330 arraycopy \$0-2;
#X obj 379 291 makefilename \$0-s2%d;
#X obj 379 230 r \$0-tab2Load;
#X obj 162 299 r \$0-tab2Store;
#X obj 201 330 r \$0-tab2AL;
#X obj 162 422 s \$0-tab2Loadr;
#N canvas 0 22 458 308 tables 0;
#N canvas 0 22 450 300 (subpatch) 0;
#X array \$0-s21 64 float 3;
#A 0 0 0.17 0.07 0.12 0.16 0.02 0.18 0.04 0.08 0.05 0.07 0.08 0.11
0.14 0.19 0.01 0.11 0.05 0.17 0.16 0.03 0.07 0.06 0.12 0.04 0.13 0.17
0.06 0.05 0.08 0.13 0.19 0.12 0.03 0.14 0.07 0.15 0.17 0.19 0.13 0.05
0.18 0.14 0.13 0.07 0 0.14 0.09 0.18 0.03 0.1 0.16 0.19 0.15 0.12 0.14
0.11 0.09 0.15 0.15 0.08 0.06 0.02 0.15;
#X coords 0 1 64 0 64 64 1;
#X restore 35 33 graph;
#N canvas 0 22 450 300 (subpatch) 0;
#X array \$0-s24 64 float 3;
#A 0 0 0 0 0 0 0 0 0 0 0 0 0 0 0 0 0 0 0 0 0 0 0 0 0 0 0 0 0 0 0 0
0 0 0 0 0 0 0 0 0 0 0 0 0 0 0 0 0 0 0 0 0 0 0 0 0 0 0 0 0 0 0 0 0;
#X coords 0 1 64 0 64 64 1;
#X restore 35 124 graph;
#N canvas 0 22 450 300 (subpatch) 0;
#X array \$0-s22 64 float 3;
#A 0 0 0 0 0 0 0 0 0 0 0 0 0 0 0 0 0 0 0 0 0 0 0 0 0 0 0 0 0 0 0 0
0 0 0 0 0 0 0 0 0 0 0 0 0 0 0 0 0 0 0 0 0 0 0 0 0 0 0 0 0 0 0 0 0;
#X coords 0 1 64 0 64 64 1;
#X restore 171 33 graph;
#N canvas 0 22 450 300 (subpatch) 0;
#X array \$0-s25 64 float 3;
#A 0 0 0 0 0 0 0.9 0.9 0 0 0.9 0 0 0 0.9 0 0.9 0 0 0 0 0 0 0.9 0 0
0.9 0 0 0 0 0.9 0 0.9 0 0 0 0 0 0.9 0 0 0 0 0 0 0 0 0 0 0 0 0 0 0 0
0 0 0 0 0 0 0 0 0;
#X coords 0 1 64 0 64 64 1;
#X restore 171 124 graph;
#N canvas 0 22 450 300 (subpatch) 0;
#X array \$0-s23 64 float 3;
#A 0 0 0 0 0 0 0 0 0 0 0 0 0 0 0 0 0 0 0 0 0 0 0 0 0 0 0 0 0 0 0 0
0 0 0 0 0 0 0 0 0 0 0 0 0 0 0 0 0 0 0 0 0 0 0 0 0 0 0 0 0 0 0 0 0;
#X coords 0 1 64 0 64 64 1;
#X restore 303 34 graph;
#N canvas 0 22 450 300 (subpatch) 0;
#X array \$0-s26 64 float 3;
#A 0 0 0 0 0 0 0 0 0 0 0 0 0 0 0 0 0 0 0 0 0 0 0 0 0 0 0 0 0 0 0 0
0 0 0 0 0 0 0 0 0 0 0 0 0 0 0 0 0 0 0 0 0 0 0 0 0 0 0 0 0 0 0 0 0;
#X coords 0 1 64 0 64 64 1;
#X restore 303 125 graph;
#X restore 33 29 pd tables;
#X connect 1 0 10 0;
#X connect 2 0 3 1;
#X connect 2 0 9 0;
#X connect 3 0 12 0;
#X connect 4 0 5 0;
#X connect 5 0 16 0;
#X connect 5 1 3 1;
#X connect 6 0 4 0;
#X connect 7 0 1 0;
#X connect 8 0 2 0;
#X connect 9 0 0 1;
#X connect 10 0 0 0;
#X connect 12 0 11 0;
#X connect 13 0 3 0;
#X connect 14 0 6 0;
#X connect 15 0 4 1;
#X restore 29 57 pd tab2Stores;
#N canvas 367 77 579 468 tab3Stores 0;
#X obj 171 235 arraycopy;
#X obj 171 158 pack \$0;
#X obj 254 107 + 1;
#X obj 379 260 f;
#X obj 162 366 spigot;
#X obj 162 395 t b f;
#X obj 162 335 + 1;
#X obj 171 31 r \$0-tab3Save;
#X obj 254 70 r \$0-tab3Store;
#X obj 254 169 makefilename \$0-s3%d;
#X msg 171 185 copy \$1-3;
#X obj 379 330 arraycopy \$0-3;
#X obj 379 291 makefilename \$0-s3%d;
#X obj 162 299 r \$0-tab3Store;
#X obj 379 230 r \$0-tab3Load;
#X obj 201 330 r \$0-tab3AL;
#X obj 162 422 s \$0-tab3Loadr;
#N canvas 0 22 462 312 tables 0;
#N canvas 0 22 450 300 (subpatch) 0;
#X array \$0-s31 64 float 3;
#A 0 0 0 0.9 0 0 0 0 0 0 0 0.9 0 0 0 0 0 0 0 0.9 0 0 0 0.024 0.408
3.72529e-09 0.072 0.9 0 0 0 0 0 0 0 0 0 0 0 0 0 0 0 0 0 0 0 0 0 0 0
0 0 0 0 0 0 0 0 0 0 0 0 0 0;
#X coords 0 1 64 0 64 64 1;
#X restore 35 33 graph;
#N canvas 0 22 450 300 (subpatch) 0;
#X array \$0-s34 64 float 3;
#A 0 0 0 0.9 0 0 0 0 0 0 0 0.9 0 0 0 0 0 0 0 0 0.9 0 0 0 0 0 0 0.9
0 0 0 0 0 0 0 0.9 0 0 0 0 0 0 0 0.9 0 0 0 0 0 0 0 0 0 0.9 0 0 0 0 0
0.9 0 0 0 0 0;
#X coords 0 1 64 0 64 64 1;
#X restore 35 124 graph;
#N canvas 0 22 450 300 (subpatch) 0;
#X array \$0-s32 64 float 3;
#A 0 0 0 0.9 0 0 0 0 0 0 0 0.9 0 0 0 0 0 0 0 0.9 0 0 0 0 0 0 0 0.9
0 0 0 0 0 0 0 0 0 0 0 0 0 0 0 0 0 0 0 0 0 0 0 0 0 0 0 0 0 0 0 0 0 0
0 0 0;
#X coords 0 1 64 0 64 64 1;
#X restore 171 33 graph;
#N canvas 0 22 450 300 (subpatch) 0;
#X array \$0-s35 64 float 3;
#A 0 0 0.9 0 0 0 0 0 0 0 0 0 0 0 0 0 0 0 0 0 0 0 0 0 0 0 0 0 0 0 0
0 0 0 0 0 0 0 0.9 0 0.9 0 0 0 0 0 0 0 0 0 0 0 0 0 0 0 0 0 0 0 0 0 0
0 0;
#X coords 0 1 64 0 64 64 1;
#X restore 171 124 graph;
#N canvas 0 22 450 300 (subpatch) 0;
#X array \$0-s33 64 float 3;
#A 0 0 0 0.9 0 0 0 0 0 0 0 0.9 0 0 0 0 0 0 0 0.9 0 0 0 0 0 0 0 0.9
0 0 0 0 0 0 0 0 0 0 0 0 0 0 0 0 0 0 0 0 0 0 0 0 0 0 0 0 0 0 0 0 0 0
0 0 0;
#X coords 0 1 64 0 64 64 1;
#X restore 303 34 graph;
#N canvas 0 22 450 300 (subpatch) 0;
#X array \$0-s36 64 float 3;
#A 0 0 0 0 0 0 0 0 0 0 0 0 0 0 0 0 0 0 0 0 0 0 0 0 0 0 0 0 0 0 0 0
0 0 0 0 0 0 0 0 0 0 0 0 0 0 0 0 0 0 0 0 0 0 0 0 0 0 0 0 0 0 0 0 0;
#X coords 0 1 64 0 64 64 1;
#X restore 303 125 graph;
#X restore 33 29 pd tables;
#X connect 1 0 10 0;
#X connect 2 0 3 1;
#X connect 2 0 9 0;
#X connect 3 0 12 0;
#X connect 4 0 5 0;
#X connect 5 0 16 0;
#X connect 5 1 3 1;
#X connect 6 0 4 0;
#X connect 7 0 1 0;
#X connect 8 0 2 0;
#X connect 9 0 0 1;
#X connect 10 0 0 0;
#X connect 12 0 11 0;
#X connect 13 0 6 0;
#X connect 14 0 3 0;
#X connect 15 0 4 1;
#X restore 29 88 pd tab3Stores;
#N canvas 367 77 591 480 tab4Stores 0;
#X obj 171 235 arraycopy;
#X obj 171 158 pack \$0;
#X obj 254 107 + 1;
#X obj 379 260 f;
#X obj 162 366 spigot;
#X obj 162 395 t b f;
#X obj 162 335 + 1;
#N canvas 0 22 470 320 tables 0;
#N canvas 0 22 450 300 (subpatch) 0;
#X array \$0-s41 64 float 3;
#A 0 0 0.9 0 0 0.9 0.9 0 0 0 0 0.9 0 0.9 0 0.9 0 0 0 0.9 0 0 0 0.9
0.9 0.9 0 0.9 0 0 0 0 0 0 0 0 0 0 0 0 0 0 0 0 0 0 0 0 0 0 0 0 0 0 0
0 0 0 0 0 0 0 0 0 0;
#X coords 0 1 64 0 64 64 1;
#X restore 35 33 graph;
#N canvas 0 22 450 300 (subpatch) 0;
#X array \$0-s44 64 float 3;
#A 0 0 0 0.9 0 0 0 0 0 0 0 0.9 0 0 0 0 0 0 0 0 0.9 0 0 0 0 0 0 0.9
0 0 0 0 0 0 0 0.9 0 0 0 0 0 0 0 0.9 0 0 0 0 0 0 0 0 0 0.9 0 0 0 0 0
0.9 0 0 0 0 0;
#X coords 0 1 64 0 64 64 1;
#X restore 35 124 graph;
#N canvas 0 22 450 300 (subpatch) 0;
#X array \$0-s42 64 float 3;
#A 0 0 0 0 0 0 0 0 0 0 0 0 0 0 0 0 0.9 0 0 0 0.9 0 0 0 0.9 0 0 0 0.9
0 0 0 0 0 0 0 0 0 0 0 0 0 0 0 0 0 0 0 0 0 0 0 0 0 0 0 0 0 0 0 0 0 0
0 0;
#X coords 0 1 64 0 64 64 1;
#X restore 171 33 graph;
#N canvas 0 22 450 300 (subpatch) 0;
#X array \$0-s45 64 float 3;
#A 0 0 0 0.9 0 0 0 0 0 0 0 0.9 0 0 0 0 0 0 0 0 0 0 0 0.9 0 0 0.9 0
0 0.9 0 0 0 0 0 0.9 0 0 0 0 0 0 0 0.9 0 0 0 0 0 0 0 0 0 0 0 0 0 0 0.9
0 0 0.9 0 0 0;
#X coords 0 1 64 0 64 64 1;
#X restore 171 124 graph;
#N canvas 0 22 450 300 (subpatch) 0;
#X array \$0-s43 64 float 3;
#A 0 0 0 0.9 0 0 0 0 0 0 0 0.9 0 0 0 0 0 0 0 0.9 0 0 0 0 0 0 0 0.9
0 0 0 0 0 0 0 0 0 0 0 0 0 0 0 0 0 0 0 0 0 0 0 0 0 0 0 0 0 0 0 0 0 0
0 0 0;
#X coords 0 1 64 0 64 64 1;
#X restore 303 34 graph;
#N canvas 0 22 450 300 (subpatch) 0;
#X array \$0-s46 64 float 3;
#A 0 0 0 0 0 0 0 0 0 0 0 0 0 0 0 0 0 0 0 0 0 0 0 0 0 0 0 0 0 0 0 0
0 0 0 0 0 0 0 0 0 0 0 0 0 0 0 0 0 0 0 0 0 0 0 0 0 0 0 0 0 0 0 0 0;
#X coords 0 1 64 0 64 64 1;
#X restore 303 125 graph;
#X restore 33 29 pd tables;
#X obj 171 31 r \$0-tab4Save;
#X obj 254 70 r \$0-tab4Store;
#X obj 254 169 makefilename \$0-s4%d;
#X msg 171 184 copy \$1-4;
#X obj 379 230 r \$0-tab4Load;
#X obj 379 291 makefilename \$0-s4%d;
#X obj 379 330 arraycopy \$0-4;
#X obj 162 299 r \$0-tab4Store;
#X obj 201 330 r \$0-tab4AL;
#X obj 162 422 s \$0-tab4Loadr;
#X connect 1 0 11 0;
#X connect 2 0 3 1;
#X connect 2 0 10 0;
#X connect 3 0 13 0;
#X connect 4 0 5 0;
#X connect 5 0 17 0;
#X connect 5 1 3 1;
#X connect 6 0 4 0;
#X connect 8 0 1 0;
#X connect 9 0 2 0;
#X connect 10 0 0 1;
#X connect 11 0 0 0;
#X connect 12 0 3 0;
#X connect 13 0 14 0;
#X connect 15 0 6 0;
#X connect 16 0 4 1;
#X restore 29 120 pd tab4Stores;
#X restore 444 257 pd tableStores;
#N canvas 0 22 993 791 shiftTablesLeft 0;
#X obj 264 158 pack \$0;
#X obj 384 158 pack \$0;
#X obj 504 158 pack \$0;
#X obj 624 158 pack \$0;
#X msg 264 190 set \$1-1;
#X msg 384 190 set \$1-2;
#X msg 504 190 set \$1-3;
#X msg 624 190 set \$1-4;
#X obj 46 101 t b b;
#X obj 166 101 t b b;
#X obj 286 101 t b b;
#X obj 406 101 t b b;
#X obj 46 62 r \$0-tab1Left;
#X obj 442 663 tabwrite;
#X obj 166 62 r \$0-tab2Left;
#X obj 286 62 r \$0-tab3Left;
#X obj 406 62 r \$0-tab4Left;
#X obj 92 407 tabread;
#X obj 74 532 f;
#X msg 92 369 0;
#X obj 46 242 t b b b;
#X obj 201 381 t b b;
#X obj 201 442 until;
#X obj 201 508 f;
#X msg 219 481 1;
#X msg 201 413 63;
#X obj 238 553 t f f;
#X obj 201 551 + 1;
#X obj 270 581 - 1;
#X obj 238 613 tabread;
#X obj 46 460 t b b;
#X msg 78 489 64;
#X obj 598 523 s \$0-tab1Leftr;
#X obj 615 489 s \$0-tab2Leftr;
#X obj 633 455 s \$0-tab3Leftr;
#X obj 647 420 s \$0-tab4Leftr;
#X obj 598 331 r \$0-allLeft;
#X connect 0 0 4 0;
#X connect 1 0 5 0;
#X connect 2 0 6 0;
#X connect 3 0 7 0;
#X connect 4 0 13 0;
#X connect 4 0 17 0;
#X connect 4 0 29 0;
#X connect 5 0 13 0;
#X connect 5 0 17 0;
#X connect 5 0 29 0;
#X connect 6 0 13 0;
#X connect 6 0 17 0;
#X connect 6 0 29 0;
#X connect 7 0 13 0;
#X connect 7 0 17 0;
#X connect 7 0 29 0;
#X connect 8 0 20 0;
#X connect 8 1 0 0;
#X connect 9 0 20 0;
#X connect 9 1 1 0;
#X connect 10 0 20 0;
#X connect 10 1 2 0;
#X connect 11 0 20 0;
#X connect 11 1 3 0;
#X connect 12 0 8 0;
#X connect 14 0 9 0;
#X connect 15 0 10 0;
#X connect 16 0 11 0;
#X connect 17 0 18 1;
#X connect 18 0 13 0;
#X connect 19 0 17 0;
#X connect 20 0 30 0;
#X connect 20 1 21 0;
#X connect 20 2 19 0;
#X connect 21 0 25 0;
#X connect 21 1 24 0;
#X connect 22 0 23 0;
#X connect 23 0 26 0;
#X connect 23 0 27 0;
#X connect 24 0 23 1;
#X connect 25 0 22 0;
#X connect 26 0 29 0;
#X connect 26 1 28 0;
#X connect 27 0 23 1;
#X connect 28 0 13 1;
#X connect 29 0 13 0;
#X connect 30 0 18 0;
#X connect 30 1 31 0;
#X connect 31 0 13 1;
#X connect 36 0 32 0;
#X connect 36 0 33 0;
#X connect 36 0 34 0;
#X connect 36 0 35 0;
#X restore 444 283 pd shiftTablesLeft;
#N canvas 0 22 879 791 shiftTablesRight 0;
#X obj 264 158 pack \$0;
#X obj 384 158 pack \$0;
#X obj 504 158 pack \$0;
#X obj 624 158 pack \$0;
#X msg 264 190 set \$1-1;
#X msg 384 190 set \$1-2;
#X msg 504 190 set \$1-3;
#X msg 624 190 set \$1-4;
#X obj 46 101 t b b;
#X obj 166 101 t b b;
#X obj 286 101 t b b;
#X obj 406 101 t b b;
#X obj 442 663 tabwrite;
#X obj 92 407 tabread;
#X obj 74 532 f;
#X obj 46 242 t b b b;
#X obj 201 381 t b b;
#X obj 201 442 until;
#X obj 201 508 f;
#X msg 201 413 63;
#X obj 238 553 t f f;
#X obj 238 613 tabread;
#X obj 46 460 t b b;
#X msg 92 369 64;
#X msg 78 489 0;
#X obj 201 551 - 1;
#X obj 270 581 + 1;
#X msg 219 481 62;
#X obj 46 62 r \$0-tab1Right;
#X obj 166 62 r \$0-tab2Right;
#X obj 286 62 r \$0-tab3Right;
#X obj 406 62 r \$0-tab4Right;
#X obj 556 647 s \$0-tab4Rightr;
#X obj 569 617 s \$0-tab3Rightr;
#X obj 584 584 s \$0-tab2Rightr;
#X obj 596 551 s \$0-tab1Rightr;
#X obj 556 494 r \$0-allRight;
#X connect 0 0 4 0;
#X connect 1 0 5 0;
#X connect 2 0 6 0;
#X connect 3 0 7 0;
#X connect 4 0 12 0;
#X connect 4 0 13 0;
#X connect 4 0 21 0;
#X connect 5 0 12 0;
#X connect 5 0 13 0;
#X connect 5 0 21 0;
#X connect 6 0 12 0;
#X connect 6 0 13 0;
#X connect 6 0 21 0;
#X connect 7 0 12 0;
#X connect 7 0 13 0;
#X connect 7 0 21 0;
#X connect 8 0 15 0;
#X connect 8 1 0 0;
#X connect 9 0 15 0;
#X connect 9 1 1 0;
#X connect 10 0 15 0;
#X connect 10 1 2 0;
#X connect 11 0 15 0;
#X connect 11 1 3 0;
#X connect 13 0 14 1;
#X connect 14 0 12 0;
#X connect 15 0 22 0;
#X connect 15 1 16 0;
#X connect 15 2 23 0;
#X connect 16 0 19 0;
#X connect 16 1 27 0;
#X connect 17 0 18 0;
#X connect 18 0 20 0;
#X connect 18 0 25 0;
#X connect 19 0 17 0;
#X connect 20 0 21 0;
#X connect 20 1 26 0;
#X connect 21 0 12 0;
#X connect 22 0 14 0;
#X connect 22 1 24 0;
#X connect 23 0 13 0;
#X connect 24 0 12 1;
#X connect 25 0 18 1;
#X connect 26 0 12 1;
#X connect 27 0 18 1;
#X connect 28 0 8 0;
#X connect 29 0 9 0;
#X connect 30 0 10 0;
#X connect 31 0 11 0;
#X connect 36 0 32 0;
#X connect 36 0 35 0;
#X connect 36 0 34 0;
#X connect 36 0 33 0;
#X restore 444 306 pd shiftTablesRight;
#N canvas 522 206 470 634 fm 0;
#X obj 121 163 *~;
#X obj 123 285 *~;
#X obj 122 215 osc~;
#X obj 122 188 abs~;
#X obj 123 312 hip~;
#X obj 123 341 hip~;
#X obj 140 58 r \$0-fmAmt;
#X obj 142 252 r \$0-fmLvl;
#X obj 166 289 r \$0-fmHip;
#X obj 122 20 inlet~;
#X obj 125 520 outlet~;
#X obj 308 49 r \$0-fmOn;
#X obj 308 91 switch~;
#X obj 124 378 lop~;
#X obj 124 407 lop~;
#X obj 124 440 lop~;
#X obj 124 469 lop~;
#X obj 189 343 r \$0-fmLop;
#X obj 140 139 *;
#X obj 159 81 r \$0-fm2Amt;
#X obj 159 108 t b f;
#X connect 0 0 3 0;
#X connect 1 0 4 0;
#X connect 2 0 1 0;
#X connect 3 0 2 0;
#X connect 4 0 5 0;
#X connect 5 0 13 0;
#X connect 6 0 18 0;
#X connect 7 0 1 1;
#X connect 8 0 4 1;
#X connect 8 0 5 1;
#X connect 9 0 0 0;
#X connect 11 0 12 0;
#X connect 13 0 14 0;
#X connect 14 0 15 0;
#X connect 15 0 16 0;
#X connect 16 0 10 0;
#X connect 17 0 13 1;
#X connect 17 0 14 1;
#X connect 17 0 15 1;
#X connect 17 0 16 1;
#X connect 18 0 0 1;
#X connect 19 0 20 0;
#X connect 20 0 18 0;
#X connect 20 1 18 1;
#X restore 216 299 pd fm;
#N canvas 434 145 626 769 bd2 0;
#X obj 261 414 *~;
#X obj 234 439 *~;
#X obj 261 354 *~;
#N canvas 0 22 370 418 env 0;
#X obj 132 329 outlet~;
#X obj 133 286 line~;
#X obj 182 144 del;
#X obj 201 54 r \$0-bdH;
#X obj 182 210 f;
#X msg 103 244 1 1;
#X msg 182 241 0 \$1;
#X obj 201 176 r \$0-bdR;
#X obj 103 55 inlet bang;
#X obj 103 98 t b;
#X connect 1 0 0 0;
#X connect 2 0 4 0;
#X connect 3 0 2 1;
#X connect 4 0 6 0;
#X connect 5 0 1 0;
#X connect 6 0 1 0;
#X connect 7 0 4 1;
#X connect 8 0 9 0;
#X connect 9 0 5 0;
#X connect 9 0 2 0;
#X restore 235 240 pd env;
#X obj 235 645 outlet~ bd;
#X obj 52 28 r \$0-seekBang;
#X obj 52 116 sel 0;
#X obj 52 58 t f f;
#X obj 52 145 f;
#X obj 158 97 + 1;
#X obj 52 89 mod;
#X obj 158 66 r \$0-bdGate;
#X obj 235 481 tanh~;
#N canvas 500 22 675 853 bd2 0;
#X obj 167 358 vline~;
#X obj 118 491 *~;
#X obj 118 466 cos~;
#X obj 117 442 *~;
#X obj 117 419 *~;
#X obj 137 275 t f f;
#X obj 118 395 *~;
#X msg 167 323 1 0 0 \, 0 \$1 0;
#X msg 171 194 30.5;
#X obj 118 606 outlet~;
#X obj 137 59 inlet envBang;
#X obj 137 194 f;
#X obj 156 141 r \$0-bd2Pitch;
#X obj 137 301 /;
#X obj 137 92 t b b;
#X obj 119 538 *~;
#X obj 138 509 r \$0-bd2Lvl;
#X connect 0 0 1 1;
#X connect 0 0 6 0;
#X connect 0 0 3 1;
#X connect 1 0 15 0;
#X connect 2 0 1 0;
#X connect 3 0 2 0;
#X connect 4 0 3 0;
#X connect 5 0 13 0;
#X connect 5 1 7 0;
#X connect 6 0 4 1;
#X connect 6 0 4 0;
#X connect 7 0 0 0;
#X connect 8 0 13 1;
#X connect 10 0 14 0;
#X connect 11 0 5 0;
#X connect 12 0 11 1;
#X connect 13 0 6 1;
#X connect 14 0 11 0;
#X connect 14 1 8 0;
#X connect 15 0 9 0;
#X connect 16 0 15 1;
#X restore 388 266 pd bd2;
#X obj 388 317 *~;
#X obj 407 291 r \$0-bd2On;
#N canvas 0 22 454 304 selTable 0;
#X obj 72 191 outlet tableMessage;
#X obj 72 51 r \$0-bdTab;
#X obj 72 85 + 1;
#X obj 72 121 makefilename \$0-%d;
#X msg 72 153 set \$1;
#X connect 1 0 2 0;
#X connect 2 0 3 0;
#X connect 3 0 4 0;
#X connect 4 0 0 0;
#X restore 268 67 pd selTable;
#X obj 281 318 *~;
#X obj 300 292 r \$0-bd1On;
#N canvas 38 322 534 616 bd1 0;
#X obj 117 528 outlet~;
#X obj 115 250 *~;
#X obj 115 283 clip~ -0.99 0.99;
#X obj 114 179 *~;
#X obj 115 357 lop~;
#X obj 115 382 lop~;
#X obj 115 408 lop~;
#X obj 113 106 osc~;
#X obj 199 112 osc~;
#X obj 200 140 cos~;
#X obj 113 78 r \$0-bdFreq;
#X obj 202 325 r \$0-bdLop;
#X obj 133 214 r \$0-bdOD;
#X obj 116 470 *~;
#X obj 135 441 r \$0-bd1Lvl;
#X msg 224 77 0;
#X obj 224 23 inlet trigger;
#X obj 224 52 t b;
#X connect 1 0 2 0;
#X connect 2 0 4 0;
#X connect 3 0 1 0;
#X connect 4 0 5 0;
#X connect 5 0 6 0;
#X connect 6 0 13 0;
#X connect 7 0 3 0;
#X connect 8 0 9 0;
#X connect 9 0 3 1;
#X connect 10 0 7 0;
#X connect 10 0 8 0;
#X connect 11 0 4 1;
#X connect 11 0 5 1;
#X connect 11 0 6 1;
#X connect 12 0 1 1;
#X connect 13 0 0 0;
#X connect 14 0 13 1;
#X connect 15 0 8 1;
#X connect 16 0 17 0;
#X connect 17 0 15 0;
#X restore 281 268 pd bd1;
#X obj 52 172 tabread \$0-1;
#X obj 111 501 *~;
#X obj 111 529 osc~;
#X obj 93 588 *~;
#X obj 92 351 r \$0-bdFmLvl;
#X obj 92 408 line~;
#X msg 92 379 \$1 20;
#X obj 111 436 r \$0-bdFmPitch;
#X obj 112 558 hip~ 10;
#X obj 442 131 switch~;
#X obj 442 102 r \$0-bd2On;
#X obj 280 380 r \$0-bd2Lvl;
#X obj 304 476 *~;
#X obj 322 442 r \$0-bdLvl;
#X obj 235 623 hip~ 10;
#X connect 0 0 1 1;
#X connect 1 0 21 1;
#X connect 1 0 12 0;
#X connect 2 0 0 0;
#X connect 3 0 1 0;
#X connect 5 0 7 0;
#X connect 6 0 8 0;
#X connect 7 0 10 0;
#X connect 7 1 8 1;
#X connect 8 0 20 0;
#X connect 9 0 10 1;
#X connect 10 0 6 0;
#X connect 11 0 9 0;
#X connect 12 0 32 0;
#X connect 13 0 14 0;
#X connect 14 0 2 1;
#X connect 15 0 14 1;
#X connect 16 0 20 0;
#X connect 17 0 2 1;
#X connect 18 0 17 1;
#X connect 19 0 17 0;
#X connect 20 0 2 0;
#X connect 20 0 13 0;
#X connect 20 0 3 0;
#X connect 20 0 19 0;
#X connect 21 0 22 0;
#X connect 22 0 28 0;
#X connect 23 0 12 0;
#X connect 24 0 26 0;
#X connect 25 0 23 0;
#X connect 26 0 25 0;
#X connect 27 0 21 0;
#X connect 28 0 23 1;
#X connect 30 0 29 0;
#X connect 31 0 0 1;
#X connect 32 0 34 0;
#X connect 33 0 32 1;
#X connect 34 0 4 0;
#X restore 44 57 pd bd2;
#N canvas 23 22 681 545 presets 0;
#N canvas 205 22 1199 557 createPreset 0;
#X obj 35 27 inlet bang;
#X msg 35 154 name;
#X obj 165 128 r \$0-1H;
#X obj 214 128 r \$0-hhHMix;
#X obj 287 128 r \$0-hhH2;
#X obj 348 128 r \$0-hhBPFreq;
#X obj 433 128 r \$0-hhBPQ;
#X obj 500 128 r \$0-hhHipFreq;
#X obj 114 493 outlet;
#X obj 259 162 r \$0-bdH;
#X obj 313 162 r \$0-bdR;
#X obj 367 162 r \$0-bdFreq;
#X obj 439 162 r \$0-bd1On;
#X obj 505 162 r \$0-bdOD;
#X obj 633 162 r \$0-bd2Pitch;
#X obj 717 162 r \$0-bd2On;
#X obj 783 162 r \$0-bd1Lvl;
#X obj 856 162 r \$0-bd2Lvl;
#X obj 928 162 r \$0-bdFmPitch;
#X obj 1018 162 r \$0-bdFmLvl;
#X obj 381 216 r \$0-3H;
#X obj 430 216 r \$0-snLvl2;
#X obj 502 216 r \$0-snH2;
#X obj 563 216 r \$0-snBPFreq;
#X obj 647 216 r \$0-snBPQ;
#X obj 713 216 r \$0-snPitch;
#X obj 793 216 r \$0-sdLop;
#X obj 590 128 r \$0-1Lvl;
#X obj 1096 162 r \$0-bdLvl;
#X obj 859 216 r \$0-3Lvl;
#X obj 566 162 r \$0-bdLop;
#X obj 114 306 pack s f f f f f f f f f f f f f f f f f f f f f f f
f f f f f f f f f f;
#X msg 114 389 set \$1 \$2 \$3 \$4 \$5 \$6 \$7 \$8 \$9 \$10 \$11 \$12
\$13 \$14 \$15 \$16 \$17 \$18 \$19 \$20 \$21 \$22 \$23 \$24 \$25 \$26
\$27 \$28 \$29 \$30 \$31 \$32 \$33 \$34;
#X obj 125 95 r \$0-kickEnvH;
#X obj 213 95 r \$0-kickEnvR;
#X obj 300 95 r \$0-kickPitch;
#X obj 1071 217 r \$0-kickComp;
#X obj 955 212 r \$0-bddLvl;
#X connect 0 0 1 0;
#X connect 1 0 31 0;
#X connect 2 0 31 4;
#X connect 3 0 31 5;
#X connect 4 0 31 6;
#X connect 5 0 31 7;
#X connect 6 0 31 8;
#X connect 7 0 31 9;
#X connect 9 0 31 11;
#X connect 10 0 31 12;
#X connect 11 0 31 13;
#X connect 12 0 31 14;
#X connect 13 0 31 15;
#X connect 14 0 31 17;
#X connect 15 0 31 18;
#X connect 16 0 31 19;
#X connect 17 0 31 20;
#X connect 18 0 31 21;
#X connect 19 0 31 22;
#X connect 20 0 31 24;
#X connect 21 0 31 25;
#X connect 22 0 31 26;
#X connect 23 0 31 27;
#X connect 24 0 31 28;
#X connect 25 0 31 29;
#X connect 26 0 31 30;
#X connect 27 0 31 10;
#X connect 28 0 31 23;
#X connect 29 0 31 31;
#X connect 30 0 31 16;
#X connect 31 0 32 0;
#X connect 32 0 8 0;
#X connect 33 0 31 1;
#X connect 34 0 31 2;
#X connect 35 0 31 3;
#X connect 36 0 31 33;
#X connect 37 0 31 32;
#X restore 128 61 pd createPreset;
#X obj 129 34 bng 15 250 50 0 empty empty empty 0 -6 0 10 -262144 -1
-1;
#N canvas 788 22 616 734 presetSelect 0;
#X obj 70 22 r \$0-presets;
#X obj 69 645 outlet;
#X msg 70 74 chill.set 6 50 44.9495 2.59184 2.64286 76.5306 8346.94
16.7322 2573.54 0.123596 2.85714 17.3469 26.7857 0 2.14286 104.592
69.0476 1 3 0.717391 196.739 0 0.606742 24.4898 0 0 3938.78 4.85288
261.691 1908.11 0.0719101 0.88764 0.984848;
#X msg 84 144 soft.clickz 1 34.4444 139.495 19.4388 4.71714 12.7551
9081.63 19.4115 4848.6 0.0561798 6.12245 10 119.643 1 4.79796 227.27
73.8095 1 2.04348 0.543478 98.913 0 0.573034 36.7347 0.140306 40.8163
1612.24 3.50509 54.3647 1618.73 0.18427 1 1.28788;
#X msg 106 315 bird.in.da.house 8 78.5859 75.1515 19.4388 4.71714 12.7551
9081.63 19.4115 4848.6 0.337079 6.12245 41.8367 150 1 1 30.6122 500
1 1 0.652174 120.652 0 0.370787 24.4898 0.00510204 826.531 1612.24
3.50509 54.3647 5000 0.25 1 1.12121;
#X msg 127 472 down.under 4 56.1616 37.0707 88.1225 4.71714 12.7551
7428.57 4.30308 552.669 0.314607 8.67347 16.9388 150 1 5 181.122 309.524
1 2.65217 0.76087 169.565 0.782609 0.573034 57.1429 0.214286 51.0204
1775.51 4.15357 16.9739 562.329 0.332584 0.898876 2.54545;
#X msg 93 227 heavy.steavy.ho 32 216.667 43.6364 88.1225 4.71714 12.7551
7428.57 4.30308 552.669 0.0842697 10 25 128.571 1 4.59184 244.898 161.905
1 2.91304 0.630435 142.391 0 0.404494 28.5714 0.153061 275.51 4387.75
4.15357 32.1978 1405.88 0.121348 1 0.727273;
#X obj 70 44 sel 0 1 2 3 4 5;
#X msg 112 394 tuna.electra 46 168.283 35.7576 116.633 2.14286 51.0204
2010.2 5.66993 4045.95 0.297753 0.918367 45.5102 1.78571 1 1 61.2245
440.476 1 3.86957 0.217391 50 0 2.76405 44.898 0.0382653 326.531 4306.12
3.26574 207.339 1011.79 0.323596 0.764045 0.590909;
#X connect 0 0 7 0;
#X connect 2 0 1 0;
#X connect 3 0 1 0;
#X connect 4 0 1 0;
#X connect 5 0 1 0;
#X connect 6 0 1 0;
#X connect 7 0 2 0;
#X connect 7 1 3 0;
#X connect 7 2 6 0;
#X connect 7 3 4 0;
#X connect 7 4 8 0;
#X connect 7 5 5 0;
#X connect 8 0 1 0;
#X restore 130 171 pd presetSelect;
#N canvas 0 112 1349 829 loadPreset 0;
#X obj 60 39 inlet;
#X obj 145 329 s \$0-1Hr;
#X obj 203 329 s \$0-hhHMixr;
#X obj 285 329 s \$0-hhH2r;
#X obj 355 329 s \$0-hhBPFreqr;
#X obj 449 329 s \$0-hhBPQr;
#X obj 525 329 s \$0-hhHipFreqr;
#X obj 622 329 s \$0-1Lvlr;
#X obj 1112 375 s \$0-bdLvlr;
#X obj 1028 375 s \$0-bdFmLvlr;
#X obj 931 375 s \$0-bdFmPitchr;
#X obj 853 375 s \$0-bd2Lvlr;
#X obj 774 375 s \$0-bd1Lvlr;
#X obj 702 375 s \$0-bd2Onr;
#X obj 612 375 s \$0-bd2Pitchr;
#X obj 539 375 s \$0-bdLopr;
#X obj 400 375 s \$0-bd1Onr;
#X obj 322 375 s \$0-bdFreqr;
#X obj 262 375 s \$0-bdRr;
#X obj 472 375 s \$0-bdODr;
#X obj 741 530 s \$0-snPitchr;
#X obj 829 530 s \$0-sdLopr;
#X obj 901 530 s \$0-3Lvlr;
#X obj 669 530 s \$0-snBPQr;
#X obj 579 530 s \$0-snBPFreqr;
#X obj 512 530 s \$0-snH2r;
#X obj 434 530 s \$0-snLvl2r;
#X obj 379 530 s \$0-3Hr;
#X obj 194 375 s \$0-bdHr;
#X obj 93 132 unpack s f f f f f f f f f f f f f f f f f f f f f f
f f f f f f f f f f f;
#X msg 93 572 \; drpresetNamer label \$1;
#X obj 102 290 s \$0-kickEnvHr;
#X obj 199 290 s \$0-kickEnvRr;
#X obj 289 290 s \$0-kickPitchr;
#X obj 1059 462 s \$0-kickCompr;
#X obj 964 462 s \$0-bddLvlr;
#X connect 0 0 29 0;
#X connect 29 0 30 0;
#X connect 29 1 31 0;
#X connect 29 2 32 0;
#X connect 29 3 33 0;
#X connect 29 4 1 0;
#X connect 29 5 2 0;
#X connect 29 6 3 0;
#X connect 29 7 4 0;
#X connect 29 8 5 0;
#X connect 29 9 6 0;
#X connect 29 10 7 0;
#X connect 29 11 28 0;
#X connect 29 12 18 0;
#X connect 29 13 17 0;
#X connect 29 14 16 0;
#X connect 29 15 19 0;
#X connect 29 16 15 0;
#X connect 29 17 14 0;
#X connect 29 18 13 0;
#X connect 29 19 12 0;
#X connect 29 20 11 0;
#X connect 29 21 10 0;
#X connect 29 22 9 0;
#X connect 29 23 8 0;
#X connect 29 24 27 0;
#X connect 29 25 26 0;
#X connect 29 26 25 0;
#X connect 29 27 24 0;
#X connect 29 28 23 0;
#X connect 29 29 20 0;
#X connect 29 30 21 0;
#X connect 29 31 22 0;
#X connect 29 32 35 0;
#X connect 29 33 34 0;
#X restore 130 208 pd loadPreset;
#X msg 128 89 tuna.electra 46 168.283 35.7576 116.633 2.14286 51.0204
2010.2 5.66993 4045.95 0.297753 0.918367 45.5102 1.78571 1 1 61.2245
440.476 1 3.86957 0.217391 50 0 2.76405 44.898 0.0382653 326.531 4306.12
3.26574 207.339 1011.79 0.323596 0.764045 0.590909;
#X connect 0 0 4 0;
#X connect 1 0 0 0;
#X connect 2 0 3 0;
#X restore 445 77 pd presets;
#N canvas 57 273 667 608 2Verb_Or_2Dry---------------------- 0;
#X obj 103 38 inlet~ soundL;
#X obj 213 38 inlet~ soundR;
#X obj 102 392 outlet~ dryL;
#X obj 214 392 outlet~ dryR;
#X obj 353 391 outlet~ verbL;
#X obj 465 391 outlet~ verbR;
#X obj 368 145 * 10;
#X obj 368 170 / 9;
#X obj 229 253 - 1;
#X obj 229 280 * -1;
#X obj 353 345 *~;
#X obj 465 346 *~;
#X obj 102 338 *~;
#X obj 214 339 *~;
#X obj 229 307 change;
#X obj 368 40 r \$0-seekBang;
#X obj 368 70 tabread \$0-5;
#X obj 368 120 spigot;
#X obj 480 146 - 1;
#X obj 480 173 * -1;
#X obj 480 65 r \$0-verbFollow;
#X connect 0 0 12 0;
#X connect 0 0 10 0;
#X connect 1 0 13 0;
#X connect 1 0 11 0;
#X connect 6 0 7 0;
#X connect 7 0 8 0;
#X connect 7 0 10 1;
#X connect 7 0 11 1;
#X connect 8 0 9 0;
#X connect 9 0 14 0;
#X connect 10 0 4 0;
#X connect 11 0 5 0;
#X connect 12 0 2 0;
#X connect 13 0 3 0;
#X connect 14 0 12 1;
#X connect 14 0 13 1;
#X connect 15 0 16 0;
#X connect 16 0 17 0;
#X connect 17 0 6 0;
#X connect 18 0 19 0;
#X connect 19 0 10 1;
#X connect 19 0 11 1;
#X connect 20 0 17 1;
#X connect 20 0 18 0;
#X restore 97 504 pd 2Verb_Or_2Dry----------------------;
#N canvas 468 234 676 650 rverb----- 0;
#X obj 151 333 outlet~ L;
#X obj 317 333 outlet~ R;
#N canvas 123 142 715 706 vst---------------------- 0;
#X obj 40 23 inlet~ L;
#X obj 109 23 inlet~ R;
#X obj 119 606 outlet~ L;
#X obj 279 606 outlet~ R;
#X obj 270 302 vst~ 2 2;
#X msg 462 66 bypass \$1;
#X msg 368 86 plug \$1;
#X obj 368 61 openpanel;
#X obj 309 389 line~;
#X msg 309 365 \$1 30;
#X obj 293 478 *~;
#X obj 270 478 *~;
#X obj 37 398 line~;
#X msg 37 374 \$1 30;
#X obj 37 326 - 1;
#X obj 37 350 abs;
#X obj 118 546 +~;
#X obj 278 551 +~;
#X obj 152 475 *~;
#X obj 118 474 *~;
#X msg 594 78 edit \$1;
#X msg 92 374 1;
#X obj 92 345 loadbang;
#X obj 177 23 inlet plug;
#X obj 263 23 inlet dryWet;
#X obj 368 23 inlet open;
#X obj 462 22 inlet onOff;
#X obj 594 22 inlet edit;
#N canvas 264 457 775 251 parameters 0;
#X obj 71 44 r \$0-presetsPlug3;
#X msg 71 68 param 0 \$1;
#X msg 225 71 param 1 1;
#X text 296 71 mix 100%;
#X msg 368 73 param 2 \$1;
#X obj 368 47 r \$0-revDecay;
#X obj 480 45 r \$0-revDamp;
#X msg 480 71 param 3 \$1;
#X msg 567 69 param 4 \$1;
#X obj 567 43 r \$0-revTranspose;
#X obj 225 6 loadbang;
#X text 149 69 output;
#X obj 320 184 outlet parameterMessage;
#X obj 225 31 del 2000;
#X text 282 29 wait 2 sec;
#X connect 0 0 1 0;
#X connect 1 0 12 0;
#X connect 2 0 12 0;
#X connect 4 0 12 0;
#X connect 5 0 4 0;
#X connect 6 0 7 0;
#X connect 7 0 12 0;
#X connect 8 0 12 0;
#X connect 9 0 8 0;
#X connect 10 0 13 0;
#X connect 13 0 2 0;
#X restore 462 207 pd parameters;
#X connect 0 0 4 0;
#X connect 0 0 19 1;
#X connect 1 0 4 1;
#X connect 1 0 18 1;
#X connect 4 0 11 0;
#X connect 4 1 10 0;
#X connect 5 0 4 0;
#X connect 6 0 4 0;
#X connect 7 0 6 0;
#X connect 8 0 10 1;
#X connect 8 0 11 1;
#X connect 9 0 8 0;
#X connect 10 0 17 1;
#X connect 11 0 16 1;
#X connect 12 0 19 0;
#X connect 12 0 18 0;
#X connect 13 0 12 0;
#X connect 14 0 15 0;
#X connect 15 0 13 0;
#X connect 16 0 2 0;
#X connect 17 0 3 0;
#X connect 18 0 17 0;
#X connect 19 0 16 0;
#X connect 20 0 4 0;
#X connect 21 0 12 0;
#X connect 22 0 21 0;
#X connect 23 0 4 0;
#X connect 24 0 14 0;
#X connect 24 0 9 0;
#X connect 25 0 7 0;
#X connect 26 0 5 0;
#X connect 27 0 20 0;
#X connect 28 0 4 0;
#X restore 152 278 pd vst----------------------;
#X obj 93 38 inlet~ soundL;
#X obj 179 39 inlet~ soundR;
#X obj 254 183 r \$0-mixPlug3;
#X obj 282 205 r \$0-openPlug3;
#X obj 309 225 r \$0-bypassPlug3;
#X obj 337 246 r \$0-editPlug3;
#N canvas 0 22 460 190 loadPlug 0;
#X obj 47 119 outlet;
#X obj 47 46 loadbang;
#X msg 47 81 plug D:/puredata/DHO2.0/plugins/reverbs/PSP_PianoVerb.dll
;
#X connect 1 0 2 0;
#X connect 2 0 0 0;
#X restore 231 153 pd loadPlug;
#X connect 2 0 0 0;
#X connect 2 1 1 0;
#X connect 3 0 2 0;
#X connect 4 0 2 1;
#X connect 5 0 2 3;
#X connect 6 0 2 4;
#X connect 7 0 2 5;
#X connect 8 0 2 6;
#X connect 9 0 2 2;
#X restore 246 544 pd rverb-----;
#N canvas 0 22 510 785 woodfire-- 0;
#X obj 123 37 inlet~ L;
#X obj 275 36 inlet~ R;
#X obj 67 722 outlet~ L;
#X obj 200 718 outlet~ R;
#X obj 122 488 tanh~;
#X obj 259 493 tanh~;
#X obj 182 172 / 100;
#X obj 182 307 /;
#X obj 182 282 f;
#X obj 122 420 *~;
#X obj 259 417 *~;
#X obj 122 566 *~;
#X obj 258 564 *~;
#X obj 182 218 t b f;
#X obj 182 121 /~ 2;
#X obj 302 565 r \$0-onOff;
#X obj 182 353 sig~;
#X obj 122 464 hip~ 20;
#X obj 259 461 hip~ 20;
#X obj 350 265 loadbang;
#X msg 329 340 1;
#X obj 329 362 s \$0-amount1r;
#X obj 197 249 r \$0-amount2;
#X obj 343 418 r \$0-amount1;
#X obj 343 462 s \$0-amount2r;
#X obj 137 514 r \$0-woodLvl;
#X obj 358 387 s \$0-woodLvlr;
#X obj 182 145 env~ 1024;
#X obj 258 601 *~;
#X obj 123 603 *~;
#X obj 302 598 - 1;
#X obj 302 630 * -1;
#X obj 66 666 *~;
#X obj 201 664 *~;
#X connect 0 0 14 0;
#X connect 0 0 9 0;
#X connect 0 0 32 0;
#X connect 1 0 10 1;
#X connect 1 0 14 0;
#X connect 1 0 33 0;
#X connect 4 0 11 0;
#X connect 5 0 12 0;
#X connect 6 0 13 0;
#X connect 7 0 16 0;
#X connect 8 0 7 0;
#X connect 9 0 17 0;
#X connect 10 0 18 0;
#X connect 11 0 29 0;
#X connect 12 0 28 0;
#X connect 13 0 8 0;
#X connect 13 1 7 1;
#X connect 14 0 27 0;
#X connect 15 0 28 1;
#X connect 15 0 29 1;
#X connect 15 0 30 0;
#X connect 16 0 10 0;
#X connect 16 0 9 1;
#X connect 17 0 4 0;
#X connect 18 0 5 0;
#X connect 19 0 20 0;
#X connect 20 0 21 0;
#X connect 20 0 26 0;
#X connect 22 0 8 1;
#X connect 23 0 24 0;
#X connect 25 0 11 1;
#X connect 25 0 12 1;
#X connect 27 0 6 0;
#X connect 28 0 3 0;
#X connect 29 0 2 0;
#X connect 30 0 31 0;
#X connect 31 0 32 1;
#X connect 31 0 33 1;
#X connect 32 0 2 0;
#X connect 33 0 3 0;
#X restore 97 618 pd woodfire--;
#X obj 97 466 *~ 0.5;
#X obj 321 468 *~ 0.5;
#X obj 96 745 dac~;
#X obj 97 677 *~ 0.9;
#X obj 172 676 *~ 0.9;
#X connect 0 0 2 0;
#X connect 1 0 2 0;
#X connect 1 1 18 0;
#X connect 2 0 14 0;
#X connect 10 0 2 0;
#X connect 10 1 18 0;
#X connect 11 0 12 0;
#X connect 12 0 28 0;
#X connect 12 0 29 0;
#X connect 13 0 11 1;
#X connect 13 0 12 1;
#X connect 14 0 16 0;
#X connect 15 0 14 1;
#X connect 16 0 11 0;
#X connect 17 0 16 1;
#X connect 18 0 22 0;
#X connect 22 0 11 0;
#X connect 23 0 2 0;
#X connect 25 0 27 0;
#X connect 25 1 27 1;
#X connect 25 2 26 0;
#X connect 25 3 26 1;
#X connect 26 0 27 0;
#X connect 26 1 27 1;
#X connect 27 0 31 0;
#X connect 27 1 32 0;
#X connect 28 0 25 0;
#X connect 29 0 25 1;
#X connect 31 0 30 0;
#X connect 32 0 30 1;
#X restore 63 222 pd guts;
#X obj 24 33 vsl 15 150 0 2 0 0 \$0-dryLvl \$0-dryLvlr empty 0 -8 0
8 -101014 -262144 -1 7450 0;
#X obj 24 186 tgl 15 0 \$0-dryOn \$0-dryOnr empty 0 -6 0 8 -104984
-262144 -1 1 1;
#X obj 48 38 vsl 15 100 1000 15000 0 0 \$0-fmAmt \$0-fmAmtr FM 1 7
1 7 -241291 -1 -1 0 0;
#X obj 93 38 vsl 15 113 0 2 0 0 \$0-fmLvl \$0-fmLvlr empty 0 -8 0 8
-75699 -262144 -1 0 0;
#X obj 63 38 vsl 15 128 5 1000 0 0 \$0-fmHip \$0-fmHipr HP 2 7 1 7
-260818 -1 -1 0 0;
#X obj 93 154 tgl 15 0 \$0-fmOn \$0-fmOnr empty 0 -6 0 8 -75699 -262144
-1 0 1;
#X obj 78 38 vsl 15 128 0 5000 0 0 \$0-fmLop \$0-fmLopr LP 2 7 1 7
-198223 -262144 -262144 0 0;
#X obj 48 143 vsl 15 28 1 20 0 0 \$0-fm2Amt \$0-fm2Amtr FM 1 7 1 7
-241291 -1 -1 0 0;
#X obj 5 245 hradio 12 1 0 6 \$0-presets \$0-presetsr presets 0 -6
0 10 -99865 -262144 -262144 0;
#X obj 5 260 cnv 15 245 20 drpresetName drpresetNamer heavy.steavy.ho
4 10 0 10 -66577 -262144 0;
#N canvas 290 70 299 271 controls 0;
#X obj 4 -19 cnv 15 140 124 empty empty bd.1 2 4 1 9 -33289 -262144
0;
#X obj 7 -3 vradio 13 1 0 7 \$0-bd1Gate \$0-bd1Gater empty 0 -6 0 8
-186458 -262144 -1 0;
#X obj 100 90 hradio 10 1 0 4 \$0-bd1Tab \$0-bd1Tabr empty 0 -6 0 8
-257472 -128992 -1 0;
#X obj 4 108 cnv 15 140 124 empty empty bd.2 2 4 1 9 -66577 -262144
0;
#X obj 147 -19 cnv 15 133 124 empty empty hh 2 4 1 9 -191407 -262144
0;
#X obj 147 108 cnv 15 133 124 empty empty sn 2 4 1 9 -128992 -262144
0;
#X obj 167 -14 vsl 14 99 0 127 0 0 \$0-1H \$0-1Hr H 5 5 1 7 -128992
-1 -1 0 0;
#X obj 240 74 tgl 14 0 \$0-1rnd \$0-1rndr empty 0 -6 0 10 -260097 -1
-1 0 1;
#X obj 212 -14 vsl 14 99 1000 10000 0 0 \$0-hhBPFreq \$0-hhBPFreqr
BP 1 5 1 7 -145672 -262144 -262144 0 0;
#X obj 226 -14 vsl 14 99 3 24 1 0 \$0-hhBPQ \$0-hhBPQr Q 4 5 1 7 -178775
-262144 -1 0 0;
#X obj 196 -14 vsl 14 99 0 250 0 0 \$0-hhH2 \$0-hhH2r H 5 5 1 7 -128992
-1 -1 0 0;
#X obj 181 -14 vsl 15 99 1 8 0 0 \$0-hhHMix \$0-hhHMixr HM 1 5 1 7
-99865 -262144 -262144 0 0;
#X obj 152 -3 vradio 13 1 0 7 \$0-hhGate \$0-hhGater empty 0 -6 0 8
-186458 -262144 -1 0;
#X obj 200 90 hradio 10 1 0 4 \$0-hhTab \$0-hhTabr empty 0 -6 0 8 -257472
-128992 -1 1;
#X obj 240 -14 vsl 14 85 5 10000 1 0 \$0-hhHipFreq \$0-hhHipFreqr HP
1 5 1 7 -179028 -262144 -262144 0 0;
#X obj 168 115 vsl 14 99 0 400 0 0 \$0-3H \$0-3Hr H 5 5 1 7 -128992
-1 -1 0 0;
#X obj 214 115 vsl 14 99 1000 5000 0 0 \$0-snBPFreq \$0-snBPFreqr BP
1 5 1 7 -145672 -262144 -262144 0 0;
#X obj 228 115 vsl 14 99 3 12 1 0 \$0-snBPQ \$0-snBPQr Q 4 5 1 7 -178775
-262144 -1 0 0;
#X obj 244 115 vsl 14 99 5 1500 1 0 \$0-snPitch \$0-snPitchr P 4 5
1 7 -190127 -262144 -262144 0 0;
#X obj 153 126 vradio 13 1 0 7 \$0-hhGate \$0-hhGater empty 0 -6 0
8 -186458 -262144 -1 0;
#X obj 198 115 vsl 14 99 0 1000 0 0 \$0-snH2 \$0-snH2r H 5 5 1 7 -128992
-1 -1 0 0;
#X obj 184 115 vsl 14 99 0 0.25 0 0 \$0-snLvl2 \$0-snLvl2r empty 0
-8 0 10 -163777 -1 -1 0 0;
#X obj 226 219 hradio 10 1 0 4 \$0-snTab \$0-snTabr empty 0 -6 0 8
-257472 -128992 -1 2;
#X obj 260 115 vsl 14 99 500 5000 1 0 \$0-sdLop \$0-sdLopr LP 1 5 1
7 -137284 -262144 -262144 0 0;
#X obj 23 116 vsl 14 99 0 10 0 0 \$0-bdH \$0-bdHr H 5 5 1 7 -128992
-1 -1 0 0;
#X obj 51 116 vsl 14 85 0 150 0 0 \$0-bdFreq \$0-bdFreqr P 5 5 1 7
-177713 -262144 -262144 0 0;
#X obj 81 116 vsl 14 99 0 250 0 0 \$0-bdLop \$0-bdLopr LP 2 5 1 7 -83269
-262144 -262144 0 0;
#X obj 67 116 vsl 14 99 1 5 0 0 \$0-bdOD \$0-bdODr OD 0 5 1 7 -258079
-262144 -262144 0 0;
#X obj 37 116 vsl 14 99 10 50 0 0 \$0-bdR \$0-bdRr R 4 5 1 7 -166441
-262144 -262144 0 0;
#X obj 8 127 vradio 13 1 0 7 \$0-bdGate \$0-bdGater empty 0 -6 0 8
-186458 -262144 -1 0;
#X obj 95 116 vsl 14 85 0 500 0 0 \$0-bd2Pitch \$0-bd2Pitchr empty
0 -8 0 8 -169899 -262144 -1 0 0;
#X obj 82 220 hradio 10 1 0 4 \$0-bdTab \$0-bdTabr empty 0 -6 0 8 -257472
-128992 -1 3;
#X obj 95 204 tgl 14 0 \$0-bd2On \$0-bd2Onr empty 0 -6 0 8 -173932
-262144 -1 1 1;
#X obj 51 204 tgl 14 0 \$0-bd1On \$0-bd1Onr empty 0 -6 0 8 -173932
-262144 -1 0 1;
#X obj 111 116 vsl 14 47 1 5 0 0 \$0-bd1Lvl \$0-bd1Lvlr empty 0 -8
0 10 -163777 -1 -1 0 0;
#X obj 111 168 vsl 14 47 0 1 0 0 \$0-bd2Lvl \$0-bd2Lvlr empty 0 -8
0 10 -163777 -1 -1 0 0;
#X obj 127 168 vsl 14 47 0 1 0 0 \$0-bdFmLvl \$0-bdFmLvl empty 0 -8
0 8 -258699 -1 -1 0 0;
#X obj 127 116 vsl 14 47 50 300 0 0 \$0-bdFmPitch \$0-bdFmPitchr empty
0 -8 0 8 -169899 -262144 -1 0 0;
#X obj 64 -5 vsl 14 100 20 150 0 0 \$0-kickPitch \$0-kickPitchr P 0
-8 0 10 -262144 -1 -262144 0 0;
#X obj 30 -5 vsl 14 100 1 100 0 0 \$0-kickEnvH \$0-kickEnvHr H 0 -8
0 10 -262144 -1 -262144 0 0;
#X obj 47 -5 vsl 14 100 30 400 0 0 \$0-kickEnvR \$0-kickEnvRr R 0 -8
0 10 -262144 -1 -262144 0 0;
#X obj 81 -5 vsl 14 100 0 3 0 0 \$0-kickComp \$0-kickCompr comp 0 -8
0 10 -262144 -1 -262144 0 0;
#X restore 39 201 pd controls;
#X obj 9 33 vsl 15 165 5 300 0 0 \$0-masterHip \$0-masterHipr HP 2
7 1 7 -260818 -1 -1 834 0;
#X obj 29 3 tgl 20 0 \$0-runMetro \$0-runMetror run 0 -6 0 10 -262144
-1 -1 0 1;
#X obj 51 3 nbx 5 20 -1e+37 1e+37 0 0 \$0-tempo \$0-tempor tempo 0
-6 0 10 -262144 -1 -1 125 256;
#X obj 511 -11 r sl1;
#X obj 511 38 r sl2;
#X obj 510 91 r sl3;
#X obj 508 143 r sl4;
#X obj 346 307 r sl5;
#X obj 398 307 r sl6;
#X connect 125 0 13 0;
#X connect 126 0 12 0;
#X connect 127 0 14 0;
#X connect 128 0 15 0;
